M48
; DRILL file {KiCad (5.1.2)-1} date 24/08/2019 10:51:25 p.m.
; FORMAT={-:-/ absolute / inch / decimal}
; #@! TF.CreationDate,2019-08-24T22:51:25-03:00
; #@! TF.GenerationSoftware,Kicad,Pcbnew,(5.1.2)-1
; #@! TF.FileFunction,Plated,1,2,PTH
FMAT,2
INCH
T1C0.0157
T2C0.0276
T3C0.0315
T4C0.0354
T5C0.0394
T6C0.0472
T7C0.0511
T8C0.0591
%
G90
G05
T1
X2.1122Y-5.6457
X2.1309Y-5.5906
X2.52Y-1.73
X2.53Y-1.705
X2.7451Y-6.3209
X2.75Y-6.3691
X2.9321Y-5.5709
X2.9547Y-5.6152
X3.1348Y-6.4222
X3.1713Y-6.4409
X5.96Y-1.53
X5.98Y-1.55
X6.6565Y-2.502
X6.6565Y-2.5463
T2
X6.64Y-1.485
X6.535Y-1.485
T3
X5.0778Y-3.689
X5.4778Y-3.689
X3.6732Y-5.7093
X3.6732Y-6.1093
X4.1378Y-5.8583
X4.1378Y-5.9583
X4.1378Y-6.0583
X4.1378Y-6.1583
X4.4378Y-5.8583
X4.4378Y-5.9583
X4.4378Y-6.0583
X4.4378Y-6.1583
X4.5423Y-5.4764
X4.8252Y-5.7592
X4.8327Y-6.0222
X4.8327Y-6.4222
X2.3023Y-3.9665
X2.3292Y-4.0405
X2.3561Y-4.1145
X2.3763Y-3.9396
X2.4032Y-4.0136
X2.4301Y-4.0876
X2.935Y-3.6978
X3.335Y-3.6978
T4
X4.8366Y-3.499
X4.8366Y-3.599
X3.6142Y-3.5
X3.6142Y-3.6
T5
X2.0994Y-5.9715
X2.1978Y-5.9715
X2.2963Y-5.9715
X2.0404Y-1.764
X2.0404Y-1.864
X2.0404Y-1.964
X2.0404Y-2.064
X2.0404Y-2.164
X2.0404Y-2.264
X6.0974Y-5.9656
X6.1959Y-5.9656
X6.2943Y-5.9656
T6
X2.3016Y-3.8495
X2.4308Y-4.2047
X3.186Y-5.7904
X3.186Y-6.2825
X3.3829Y-5.7904
X3.3829Y-6.2825
X5.0758Y-5.812
X5.0758Y-6.3041
X5.2726Y-5.812
X5.2726Y-6.3041
T7
X6.5493Y-1.7383
X6.5493Y-1.8406
X6.5493Y-2.0374
X6.5493Y-2.1397
X6.7461Y-1.939
T8
X2.712Y-4.6811
X3.5187Y-4.6811
T0
M30
