G04 #@! TF.GenerationSoftware,KiCad,Pcbnew,(5.1.2)-1*
G04 #@! TF.CreationDate,2019-08-24T22:51:10-03:00*
G04 #@! TF.ProjectId,SpaceMonkey2Shenzhen,53706163-654d-46f6-9e6b-657932536865,rev?*
G04 #@! TF.SameCoordinates,Original*
G04 #@! TF.FileFunction,Profile,NP*
%FSLAX46Y46*%
G04 Gerber Fmt 4.6, Leading zero omitted, Abs format (unit mm)*
G04 Created by KiCad (PCBNEW (5.1.2)-1) date 2019-08-24 22:51:10*
%MOMM*%
%LPD*%
G04 APERTURE LIST*
%ADD10C,0.100000*%
G04 APERTURE END LIST*
D10*
X66765499Y-133657667D02*
X66003019Y-132114727D01*
X66003019Y-132114727D02*
X65119859Y-130262007D01*
X65119859Y-130262007D02*
X63964249Y-127755967D01*
X63964249Y-127755967D02*
X62582809Y-124647237D01*
X62582809Y-124647237D02*
X61821969Y-122882697D01*
X61821969Y-122882697D02*
X61022159Y-120986467D01*
X61022159Y-120986467D02*
X60189209Y-118964887D01*
X60189209Y-118964887D02*
X59328929Y-116824287D01*
X59328929Y-116824287D02*
X58447169Y-114570987D01*
X58447169Y-114570987D02*
X57549739Y-112211327D01*
X57549739Y-112211327D02*
X56642479Y-109751637D01*
X56642479Y-109751637D02*
X55731209Y-107198237D01*
X55731209Y-107198237D02*
X54821759Y-104557457D01*
X54821759Y-104557457D02*
X53919959Y-101835637D01*
X53919959Y-101835637D02*
X53031639Y-99039097D01*
X53031639Y-99039097D02*
X52162619Y-96174177D01*
X52162619Y-96174177D02*
X51318739Y-93247197D01*
X51318739Y-93247197D02*
X50505809Y-90264483D01*
X50505809Y-90264483D02*
X49729679Y-87232374D01*
X49729679Y-87232374D02*
X48996159Y-84157196D01*
X48996159Y-84157196D02*
X48311079Y-81045279D01*
X48311079Y-81045279D02*
X47988529Y-79477521D01*
X47988529Y-79477521D02*
X47680269Y-77902952D01*
X47680269Y-77902952D02*
X47387039Y-76322363D01*
X47387039Y-76322363D02*
X47109569Y-74736545D01*
X47109569Y-74736545D02*
X46848569Y-73146289D01*
X46848569Y-73146289D02*
X46604789Y-71552387D01*
X46604789Y-71552387D02*
X46378939Y-69955629D01*
X46378939Y-69955629D02*
X46171759Y-68356808D01*
X46171759Y-68356808D02*
X45983979Y-66756713D01*
X45983979Y-66756713D02*
X45816319Y-65156137D01*
X45816319Y-65156137D02*
X45669519Y-63555870D01*
X45669519Y-63555870D02*
X45544289Y-61956703D01*
X45544289Y-61956703D02*
X45441379Y-60359429D01*
X45441379Y-60359429D02*
X45361479Y-58764837D01*
X45361479Y-58764837D02*
X45305379Y-57173720D01*
X45305379Y-57173720D02*
X45273779Y-55586868D01*
X45273779Y-55586868D02*
X45267779Y-54005073D01*
X45267779Y-54005073D02*
X45287379Y-52429125D01*
X45287379Y-52429125D02*
X45333679Y-50859817D01*
X45333679Y-50859817D02*
X45407279Y-49297938D01*
X45407279Y-49297938D02*
X45509059Y-47744281D01*
X45509059Y-47744281D02*
X45639719Y-46199637D01*
X45639719Y-46199637D02*
X45799959Y-44664796D01*
X45799959Y-44664796D02*
X45990529Y-43140550D01*
X45990529Y-43140550D02*
X46212149Y-41627690D01*
X46212149Y-41627690D02*
X46465559Y-40127008D01*
X46465559Y-40127008D02*
X46751469Y-38639294D01*
X46751469Y-38639294D02*
X47070609Y-37165340D01*
X47070609Y-37165340D02*
X47423719Y-35705936D01*
X47423719Y-35705936D02*
X47811529Y-34261875D01*
X47811529Y-34261875D02*
X48234759Y-32833947D01*
X48234759Y-32833947D02*
X48694139Y-31422943D01*
X48694139Y-31422943D02*
X49190399Y-30029655D01*
X49190399Y-30029655D02*
X49724259Y-28654874D01*
X49724259Y-28654874D02*
X50296459Y-27299390D01*
X50296459Y-27299390D02*
X50907729Y-25963996D01*
X50907729Y-25963996D02*
X51558789Y-24649483D01*
X51558789Y-24649483D02*
X52250369Y-23356641D01*
X52250369Y-23356641D02*
X52983199Y-22086261D01*
X52983199Y-22086261D02*
X53758009Y-20839136D01*
X53758009Y-20839136D02*
X54575529Y-19616056D01*
X54575529Y-19616056D02*
X55436479Y-18417812D01*
X55436479Y-18417812D02*
X56341589Y-17245196D01*
X56341589Y-17245196D02*
X57291599Y-16098998D01*
X57291599Y-16098998D02*
X58287229Y-14980011D01*
X58287229Y-14980011D02*
X59329209Y-13889024D01*
X59329209Y-13889024D02*
X60418269Y-12826830D01*
X60418269Y-12826830D02*
X61555129Y-11794219D01*
X61555129Y-11794219D02*
X62740529Y-10791983D01*
X62740529Y-10791983D02*
X63975189Y-9820913D01*
X63975189Y-9820913D02*
X65259839Y-8881799D01*
X65259839Y-8881799D02*
X66595219Y-7975435D01*
X66595219Y-7975435D02*
X67982039Y-7102609D01*
X67982039Y-7102609D02*
X69421039Y-6264114D01*
X69421039Y-6264114D02*
X70912939Y-5460741D01*
X70912939Y-5460741D02*
X72458479Y-4693281D01*
X72458479Y-4693281D02*
X74058389Y-3962525D01*
X74058389Y-3962525D02*
X75713379Y-3269265D01*
X75713379Y-3269265D02*
X77424189Y-2614291D01*
X77424189Y-2614291D02*
X79191549Y-1998395D01*
X79191549Y-1998395D02*
X81015748Y-1422368D01*
X81015748Y-1422368D02*
X82898391Y-887001D01*
X82898391Y-887001D02*
X84839767Y-393085D01*
X84839767Y-393085D02*
X86840605Y58588D01*
X86840605Y58588D02*
X88901634Y467227D01*
X88901634Y467227D02*
X91023582Y832042D01*
X91023582Y832042D02*
X93207177Y1152240D01*
X93207177Y1152240D02*
X95453148Y1427031D01*
X95453148Y1427031D02*
X97762223Y1655624D01*
X97762223Y1655624D02*
X100135132Y1837227D01*
X100135132Y1837227D02*
X102572601Y1971049D01*
X102572601Y1971049D02*
X105075361Y2056299D01*
X105075361Y2056299D02*
X107644139Y2092186D01*
X107644139Y2092186D02*
X110279664Y2077918D01*
X110279664Y2077918D02*
X112889275Y2019513D01*
X112889275Y2019513D02*
X115433492Y1923076D01*
X115433492Y1923076D02*
X117913013Y1789132D01*
X117913013Y1789132D02*
X120328534Y1618206D01*
X120328534Y1618206D02*
X122680752Y1410822D01*
X122680752Y1410822D02*
X124970364Y1167505D01*
X124970364Y1167505D02*
X127198068Y888779D01*
X127198068Y888779D02*
X129364559Y575170D01*
X129364559Y575170D02*
X131470536Y227202D01*
X131470536Y227202D02*
X133516695Y-154600D01*
X133516695Y-154600D02*
X135503734Y-569713D01*
X135503734Y-569713D02*
X137432353Y-1017610D01*
X137432353Y-1017610D02*
X139303233Y-1497767D01*
X139303233Y-1497767D02*
X141117083Y-2009660D01*
X141117083Y-2009660D02*
X142874613Y-2552764D01*
X142874613Y-2552764D02*
X144576503Y-3126553D01*
X144576503Y-3126553D02*
X146223453Y-3730505D01*
X146223453Y-3730505D02*
X147816153Y-4364093D01*
X147816153Y-4364093D02*
X149355323Y-5026793D01*
X149355323Y-5026793D02*
X150841633Y-5718080D01*
X150841633Y-5718080D02*
X152275793Y-6437430D01*
X152275793Y-6437430D02*
X153658503Y-7184319D01*
X153658503Y-7184319D02*
X154990453Y-7958220D01*
X154990453Y-7958220D02*
X156272343Y-8758610D01*
X156272343Y-8758610D02*
X157504873Y-9584964D01*
X157504873Y-9584964D02*
X158688733Y-10436757D01*
X158688733Y-10436757D02*
X159824633Y-11313465D01*
X159824633Y-11313465D02*
X160913253Y-12214562D01*
X160913253Y-12214562D02*
X161955293Y-13139525D01*
X161955293Y-13139525D02*
X162951463Y-14087828D01*
X162951463Y-14087828D02*
X163902443Y-15058946D01*
X163902443Y-15058946D02*
X164808943Y-16052356D01*
X164808943Y-16052356D02*
X165671663Y-17067532D01*
X165671663Y-17067532D02*
X166491283Y-18103950D01*
X166491283Y-18103950D02*
X167268513Y-19161085D01*
X167268513Y-19161085D02*
X168004043Y-20238412D01*
X168004043Y-20238412D02*
X168698573Y-21335406D01*
X168698573Y-21335406D02*
X169352803Y-22451544D01*
X169352803Y-22451544D02*
X169967433Y-23586299D01*
X169967433Y-23586299D02*
X170543143Y-24739148D01*
X170543143Y-24739148D02*
X171080653Y-25909566D01*
X171080653Y-25909566D02*
X171580633Y-27097028D01*
X171580633Y-27097028D02*
X172043813Y-28301010D01*
X172043813Y-28301010D02*
X172470863Y-29520986D01*
X172470863Y-29520986D02*
X172862483Y-30756432D01*
X172862483Y-30756432D02*
X173219383Y-32006823D01*
X173219383Y-32006823D02*
X173542253Y-33271636D01*
X173542253Y-33271636D02*
X173831793Y-34550344D01*
X173831793Y-34550344D02*
X174088693Y-35842423D01*
X174088693Y-35842423D02*
X174313663Y-37147349D01*
X174313663Y-37147349D02*
X174507383Y-38464596D01*
X174507383Y-38464596D02*
X174670553Y-39793641D01*
X174670553Y-39793641D02*
X174803883Y-41133958D01*
X174803883Y-41133958D02*
X174908063Y-42485023D01*
X174908063Y-42485023D02*
X174983763Y-43846312D01*
X174983763Y-43846312D02*
X175031763Y-45217298D01*
X175031763Y-45217298D02*
X175052663Y-46597458D01*
X175052663Y-46597458D02*
X175047663Y-47986267D01*
X175047663Y-47986267D02*
X175016563Y-49383201D01*
X175016563Y-49383201D02*
X174960463Y-50787734D01*
X174960463Y-50787734D02*
X174880063Y-52199342D01*
X174880063Y-52199342D02*
X174776123Y-53617500D01*
X174776123Y-53617500D02*
X174649303Y-55041684D01*
X174649303Y-55041684D02*
X174500303Y-56471369D01*
X174500303Y-56471369D02*
X174329813Y-57906029D01*
X174329813Y-57906029D02*
X174138543Y-59345141D01*
X174138543Y-59345141D02*
X173927183Y-60788180D01*
X173927183Y-60788180D02*
X173696423Y-62234621D01*
X173696423Y-62234621D02*
X173446973Y-63683940D01*
X173446973Y-63683940D02*
X173179523Y-65135611D01*
X173179523Y-65135611D02*
X172894763Y-66589109D01*
X172894763Y-66589109D02*
X172593403Y-68043912D01*
X172593403Y-68043912D02*
X171943653Y-70955327D01*
X171943653Y-70955327D02*
X171235853Y-73865659D01*
X171235853Y-73865659D02*
X170475563Y-76770711D01*
X170475563Y-76770711D02*
X169668363Y-79666284D01*
X169668363Y-79666284D02*
X168819833Y-82548181D01*
X168819833Y-82548181D02*
X167935553Y-85412205D01*
X167935553Y-85412205D02*
X167021083Y-88254158D01*
X167021083Y-88254158D02*
X166082023Y-91069837D01*
X166082023Y-91069837D02*
X165123923Y-93855057D01*
X165123923Y-93855057D02*
X164152383Y-96605617D01*
X164152383Y-96605617D02*
X163172953Y-99317307D01*
X163172953Y-99317307D02*
X162191233Y-101985937D01*
X162191233Y-101985937D02*
X160243183Y-107177247D01*
X160243183Y-107177247D02*
X158352843Y-112145937D01*
X158352843Y-112145937D02*
X156564823Y-116858447D01*
X156564823Y-116858447D02*
X154923713Y-121281197D01*
X154923713Y-121281197D02*
X154172193Y-123373407D01*
X154172193Y-123373407D02*
X153474133Y-125380587D01*
X153474133Y-125380587D02*
X152835103Y-127298537D01*
X152835103Y-127298537D02*
X152260683Y-129123057D01*
X152260683Y-129123057D02*
X151756443Y-130849957D01*
X151756443Y-130849957D02*
X151327973Y-132475027D01*
X151327973Y-132475027D02*
X150980833Y-133994067D01*
X150980833Y-133994067D02*
X150839503Y-134712527D01*
X150839503Y-134712527D02*
X150720603Y-135402897D01*
X150720603Y-135402897D02*
X172517613Y-123975007D01*
X172517613Y-123975007D02*
X171988443Y-184829167D01*
X171988443Y-184829167D02*
X139973413Y-170277087D01*
X139973413Y-170277087D02*
X73562999Y-168954167D01*
X73562999Y-168954167D02*
X43929669Y-183506257D01*
X43929669Y-183506257D02*
X42606749Y-120535427D01*
X42606749Y-120535427D02*
X66765499Y-133657667D01*
X66765499Y-133657667D02*
X66765499Y-133657667D01*
M02*
