G04 #@! TF.GenerationSoftware,KiCad,Pcbnew,(5.1.2)-1*
G04 #@! TF.CreationDate,2019-08-24T22:51:10-03:00*
G04 #@! TF.ProjectId,SpaceMonkey2Shenzhen,53706163-654d-46f6-9e6b-657932536865,rev?*
G04 #@! TF.SameCoordinates,Original*
G04 #@! TF.FileFunction,Copper,L2,Bot*
G04 #@! TF.FilePolarity,Positive*
%FSLAX46Y46*%
G04 Gerber Fmt 4.6, Leading zero omitted, Abs format (unit mm)*
G04 Created by KiCad (PCBNEW (5.1.2)-1) date 2019-08-24 22:51:10*
%MOMM*%
%LPD*%
G04 APERTURE LIST*
%ADD10C,0.100000*%
%ADD11C,1.400000*%
%ADD12O,2.500000X3.000000*%
%ADD13R,2.400000X1.600000*%
%ADD14O,2.400000X1.600000*%
%ADD15C,1.600000*%
%ADD16C,1.600000*%
%ADD17O,1.600000X1.600000*%
%ADD18R,1.700000X1.700000*%
%ADD19O,1.700000X1.700000*%
%ADD20C,3.000000*%
%ADD21R,3.000000X3.000000*%
%ADD22C,1.800000*%
%ADD23R,1.800000X1.800000*%
%ADD24C,4.000000*%
%ADD25C,1.300000*%
%ADD26C,2.181860*%
%ADD27C,0.600000*%
%ADD28C,0.800000*%
%ADD29C,0.600000*%
%ADD30C,1.000000*%
%ADD31C,0.250000*%
%ADD32C,0.254000*%
G04 APERTURE END LIST*
D10*
G36*
X65913000Y-43053000D02*
G01*
X65532000Y-44831000D01*
X64262000Y-45466000D01*
X62865000Y-45339000D01*
X62230000Y-44323000D01*
X62357000Y-43180000D01*
X63246000Y-42418000D01*
X63627000Y-41783000D01*
X65151000Y-41783000D01*
X65913000Y-43053000D01*
G37*
X65913000Y-43053000D02*
X65532000Y-44831000D01*
X64262000Y-45466000D01*
X62865000Y-45339000D01*
X62230000Y-44323000D01*
X62357000Y-43180000D01*
X63246000Y-42418000D01*
X63627000Y-41783000D01*
X65151000Y-41783000D01*
X65913000Y-43053000D01*
G36*
X166751000Y-24638000D02*
G01*
X167386000Y-25146000D01*
X168275000Y-26035000D01*
X168910000Y-27051000D01*
X169545000Y-28194000D01*
X170053000Y-29718000D01*
X170307000Y-30734000D01*
X170688000Y-32639000D01*
X170688000Y-34544000D01*
X170434000Y-35179000D01*
X170053000Y-35687000D01*
X169418000Y-36322000D01*
X168529000Y-36576000D01*
X167894000Y-36449000D01*
X166751000Y-36068000D01*
X165481000Y-35179000D01*
X164465000Y-34290000D01*
X163322000Y-33655000D01*
X162179000Y-33528000D01*
X161163000Y-34036000D01*
X160782000Y-35052000D01*
X160655000Y-36195000D01*
X160909000Y-37084000D01*
X161544000Y-37973000D01*
X162306000Y-38989000D01*
X162941000Y-40005000D01*
X163195000Y-40767000D01*
X162941000Y-41275000D01*
X162306000Y-41148000D01*
X161544000Y-40767000D01*
X161163000Y-41275000D01*
X160528000Y-42037000D01*
X159766000Y-42037000D01*
X159639000Y-41402000D01*
X159766000Y-40513000D01*
X158877000Y-40767000D01*
X158115000Y-40640000D01*
X158115000Y-40132000D01*
X158750000Y-39116000D01*
X158496000Y-38862000D01*
X157353000Y-38354000D01*
X157353000Y-37719000D01*
X157988000Y-36957000D01*
X157734000Y-36068000D01*
X157353000Y-35306000D01*
X157099000Y-34417000D01*
X157226000Y-33401000D01*
X157353000Y-32512000D01*
X158115000Y-31242000D01*
X159258000Y-30480000D01*
X160655000Y-30099000D01*
X162433000Y-30099000D01*
X163830000Y-30861000D01*
X164846000Y-31750000D01*
X166370000Y-32258000D01*
X167513000Y-31623000D01*
X167767000Y-30607000D01*
X167259000Y-29718000D01*
X166751000Y-29591000D01*
X165989000Y-29718000D01*
X165354000Y-29591000D01*
X165354000Y-28956000D01*
X165608000Y-27940000D01*
X165481000Y-27432000D01*
X164465000Y-26924000D01*
X164465000Y-26416000D01*
X164719000Y-26035000D01*
X165227000Y-25781000D01*
X165735000Y-25654000D01*
X165862000Y-25146000D01*
X165862000Y-24511000D01*
X166751000Y-24638000D01*
G37*
X166751000Y-24638000D02*
X167386000Y-25146000D01*
X168275000Y-26035000D01*
X168910000Y-27051000D01*
X169545000Y-28194000D01*
X170053000Y-29718000D01*
X170307000Y-30734000D01*
X170688000Y-32639000D01*
X170688000Y-34544000D01*
X170434000Y-35179000D01*
X170053000Y-35687000D01*
X169418000Y-36322000D01*
X168529000Y-36576000D01*
X167894000Y-36449000D01*
X166751000Y-36068000D01*
X165481000Y-35179000D01*
X164465000Y-34290000D01*
X163322000Y-33655000D01*
X162179000Y-33528000D01*
X161163000Y-34036000D01*
X160782000Y-35052000D01*
X160655000Y-36195000D01*
X160909000Y-37084000D01*
X161544000Y-37973000D01*
X162306000Y-38989000D01*
X162941000Y-40005000D01*
X163195000Y-40767000D01*
X162941000Y-41275000D01*
X162306000Y-41148000D01*
X161544000Y-40767000D01*
X161163000Y-41275000D01*
X160528000Y-42037000D01*
X159766000Y-42037000D01*
X159639000Y-41402000D01*
X159766000Y-40513000D01*
X158877000Y-40767000D01*
X158115000Y-40640000D01*
X158115000Y-40132000D01*
X158750000Y-39116000D01*
X158496000Y-38862000D01*
X157353000Y-38354000D01*
X157353000Y-37719000D01*
X157988000Y-36957000D01*
X157734000Y-36068000D01*
X157353000Y-35306000D01*
X157099000Y-34417000D01*
X157226000Y-33401000D01*
X157353000Y-32512000D01*
X158115000Y-31242000D01*
X159258000Y-30480000D01*
X160655000Y-30099000D01*
X162433000Y-30099000D01*
X163830000Y-30861000D01*
X164846000Y-31750000D01*
X166370000Y-32258000D01*
X167513000Y-31623000D01*
X167767000Y-30607000D01*
X167259000Y-29718000D01*
X166751000Y-29591000D01*
X165989000Y-29718000D01*
X165354000Y-29591000D01*
X165354000Y-28956000D01*
X165608000Y-27940000D01*
X165481000Y-27432000D01*
X164465000Y-26924000D01*
X164465000Y-26416000D01*
X164719000Y-26035000D01*
X165227000Y-25781000D01*
X165735000Y-25654000D01*
X165862000Y-25146000D01*
X165862000Y-24511000D01*
X166751000Y-24638000D01*
D11*
X168656000Y-37719000D03*
X165989000Y-37719000D03*
D12*
X128925000Y-147625000D03*
X133925000Y-147625000D03*
X128925000Y-160125000D03*
X133925000Y-160125000D03*
X80925000Y-147075000D03*
X85925000Y-147075000D03*
X80925000Y-159575000D03*
X85925000Y-159575000D03*
D13*
X105100000Y-148800000D03*
D14*
X112720000Y-156420000D03*
X105100000Y-151340000D03*
X112720000Y-153880000D03*
X105100000Y-153880000D03*
X112720000Y-151340000D03*
X105100000Y-156420000D03*
X112720000Y-148800000D03*
D15*
X115375000Y-139100000D03*
X122559205Y-146284205D03*
D16*
X122559205Y-146284205D02*
X122559205Y-146284205D01*
D17*
X93300000Y-145015000D03*
D15*
X93300000Y-155175000D03*
X122750000Y-163125000D03*
D17*
X122750000Y-152965000D03*
X139135000Y-93700000D03*
D15*
X128975000Y-93700000D03*
X74550000Y-93925000D03*
D17*
X84710000Y-93925000D03*
D18*
X51825000Y-44805000D03*
D19*
X51825000Y-47345000D03*
X51825000Y-49885000D03*
X51825000Y-52425000D03*
X51825000Y-54965000D03*
X51825000Y-57505000D03*
D20*
X68885000Y-118900000D03*
D21*
X89375000Y-118900000D03*
D22*
X91800000Y-91440000D03*
D23*
X91800000Y-88900000D03*
D24*
X51425000Y-158675000D03*
X60225000Y-158675000D03*
D22*
X53325000Y-151675000D03*
X55825000Y-151675000D03*
X58325000Y-151675000D03*
X58459570Y-97777110D03*
X61742964Y-106798159D03*
D25*
X58477534Y-100750270D03*
X59161574Y-102629655D03*
X59845615Y-104509040D03*
X60356919Y-100066230D03*
X61040960Y-101945615D03*
X61725000Y-103825000D03*
D22*
X159875000Y-151525000D03*
X157375000Y-151525000D03*
X154875000Y-151525000D03*
D24*
X161775000Y-158525000D03*
X152975000Y-158525000D03*
D23*
X122850000Y-88875000D03*
D22*
X122850000Y-91415000D03*
D26*
X166351280Y-44152220D03*
X166351280Y-46750640D03*
X171350000Y-49250000D03*
X166351280Y-54347780D03*
X166351280Y-51749360D03*
D27*
X54125000Y-142000000D03*
X75050000Y-142625000D03*
X69850000Y-161775000D03*
X79625000Y-163125000D03*
X53650000Y-143400000D03*
X74475000Y-141500000D03*
X69725000Y-160550000D03*
X80550000Y-163600000D03*
X169075000Y-64675000D03*
X169075000Y-63550000D03*
X151892000Y-39370000D03*
X151384000Y-38862000D03*
X64008000Y-43942000D03*
X64262000Y-43307000D03*
D28*
X54125000Y-142000000D02*
X55825000Y-140300000D01*
X55825000Y-140300000D02*
X58275000Y-140300000D01*
X58275000Y-140300000D02*
X62250000Y-144275000D01*
X62250000Y-144275000D02*
X75200000Y-144275000D01*
X75200000Y-144275000D02*
X75050000Y-144125000D01*
X75050000Y-144125000D02*
X75050000Y-142625000D01*
X69850000Y-162199264D02*
X70000000Y-162349264D01*
X69850000Y-161775000D02*
X69850000Y-162199264D01*
X70000000Y-162349264D02*
X77624264Y-162349264D01*
X77624264Y-162349264D02*
X78400000Y-163125000D01*
X78400000Y-163125000D02*
X79625000Y-163125000D01*
X112720000Y-153880000D02*
X112615000Y-153775000D01*
D29*
X112250000Y-156890000D02*
X112720000Y-156420000D01*
X112250000Y-158600000D02*
X112250000Y-156890000D01*
X110050000Y-157025000D02*
X110050000Y-158750000D01*
X110200000Y-158600000D02*
X112250000Y-158600000D01*
X110050000Y-158750000D02*
X110200000Y-158600000D01*
X52135000Y-44800000D02*
X51925000Y-44590000D01*
X57925000Y-44800000D02*
X52135000Y-44800000D01*
X89375000Y-118900000D02*
X89375000Y-110025000D01*
X80275000Y-100925000D02*
X80275000Y-91775000D01*
X80275000Y-91775000D02*
X68150000Y-79650000D01*
X68150000Y-79650000D02*
X68150000Y-55025000D01*
X89375000Y-110025000D02*
X80275000Y-100925000D01*
X68150000Y-55025000D02*
X57925000Y-44800000D01*
X66475000Y-81450000D02*
X66475000Y-57075000D01*
X77550000Y-92525000D02*
X66475000Y-81450000D01*
X118375000Y-146225000D02*
X114600000Y-146225000D01*
X118375000Y-151050000D02*
X118375000Y-146225000D01*
X118325000Y-151100000D02*
X118375000Y-151050000D01*
X80275000Y-109150000D02*
X77550000Y-106425000D01*
X114760000Y-151100000D02*
X118325000Y-151100000D01*
X80275000Y-120925000D02*
X80275000Y-109150000D01*
X112720000Y-151340000D02*
X114520000Y-151340000D01*
X103975000Y-138875000D02*
X93450000Y-128350000D01*
X114520000Y-151340000D02*
X114760000Y-151100000D01*
X109525000Y-141150000D02*
X109025000Y-141150000D01*
X66475000Y-57075000D02*
X56530000Y-47130000D01*
X114600000Y-146225000D02*
X109525000Y-141150000D01*
X77550000Y-106425000D02*
X77550000Y-92525000D01*
X56530000Y-47130000D02*
X51925000Y-47130000D01*
X109025000Y-141150000D02*
X106750000Y-138875000D01*
X106750000Y-138875000D02*
X103975000Y-138875000D01*
X93450000Y-128350000D02*
X87700000Y-128350000D01*
X87700000Y-128350000D02*
X80275000Y-120925000D01*
X103000000Y-140650000D02*
X106310000Y-140650000D01*
X110805000Y-153880000D02*
X112720000Y-153880000D01*
X109980000Y-154705000D02*
X110805000Y-153880000D01*
X92550000Y-130200000D02*
X103000000Y-140650000D01*
X87250000Y-130200000D02*
X92550000Y-130200000D01*
X78425000Y-121375000D02*
X87250000Y-130200000D01*
X109980000Y-144320000D02*
X109980000Y-154705000D01*
X78425000Y-111375000D02*
X78425000Y-121375000D01*
X72075000Y-105025000D02*
X78425000Y-111375000D01*
X51980000Y-49725000D02*
X55900000Y-49725000D01*
X51925000Y-49670000D02*
X51980000Y-49725000D01*
X55900000Y-49725000D02*
X64525000Y-58350000D01*
X64525000Y-58350000D02*
X64525000Y-87150000D01*
X64525000Y-87150000D02*
X72075000Y-94700000D01*
X106310000Y-140650000D02*
X109980000Y-144320000D01*
X72075000Y-94700000D02*
X72075000Y-105025000D01*
D28*
X62925000Y-60125000D02*
X55225000Y-52425000D01*
X62925000Y-89050000D02*
X62925000Y-60125000D01*
X70500000Y-107000000D02*
X70500000Y-96625000D01*
X76700000Y-113200000D02*
X70500000Y-107000000D01*
X86425000Y-132225000D02*
X76700000Y-122500000D01*
X55225000Y-52425000D02*
X52140000Y-52425000D01*
X108250000Y-155225000D02*
X108250000Y-146600000D01*
X70500000Y-96625000D02*
X62925000Y-89050000D01*
X110050000Y-157025000D02*
X108250000Y-155225000D01*
X108250000Y-146600000D02*
X104400000Y-142750000D01*
X52140000Y-52425000D02*
X51925000Y-52210000D01*
X104400000Y-142750000D02*
X101750000Y-142750000D01*
X101750000Y-142750000D02*
X91225000Y-132225000D01*
X76700000Y-122500000D02*
X76700000Y-113200000D01*
X91225000Y-132225000D02*
X86425000Y-132225000D01*
X53450000Y-54750000D02*
X51925000Y-54750000D01*
X61225000Y-62525000D02*
X53450000Y-54750000D01*
X65550000Y-94925000D02*
X65550000Y-94775000D01*
X68475000Y-97850000D02*
X65550000Y-94925000D01*
X74975000Y-115350000D02*
X68475000Y-108850000D01*
X74975000Y-124950000D02*
X74975000Y-115350000D01*
X61225000Y-90450000D02*
X61225000Y-62525000D01*
X105100000Y-148800000D02*
X105100000Y-147200000D01*
X104350000Y-146450000D02*
X102050000Y-146450000D01*
X102050000Y-146450000D02*
X90775000Y-135175000D01*
X65550000Y-94775000D02*
X61225000Y-90450000D01*
X68475000Y-108850000D02*
X68475000Y-97850000D01*
X90775000Y-135175000D02*
X85200000Y-135175000D01*
X105100000Y-147200000D02*
X104350000Y-146450000D01*
X85200000Y-135175000D02*
X74975000Y-124950000D01*
X52540000Y-57290000D02*
X51925000Y-57290000D01*
X98500000Y-145825000D02*
X90300000Y-137625000D01*
X72500000Y-125400000D02*
X72500000Y-115950000D01*
X66625000Y-98475000D02*
X59050000Y-90900000D01*
X104445000Y-156675000D02*
X99750000Y-156675000D01*
X105100000Y-156420000D02*
X104700000Y-156420000D01*
X104700000Y-156420000D02*
X104445000Y-156675000D01*
X84725000Y-137625000D02*
X72500000Y-125400000D01*
X72500000Y-115950000D02*
X66625000Y-110075000D01*
X90300000Y-137625000D02*
X84725000Y-137625000D01*
X66625000Y-110075000D02*
X66625000Y-98475000D01*
X98500000Y-155425000D02*
X98500000Y-145825000D01*
X59050000Y-90900000D02*
X59050000Y-68000000D01*
X59050000Y-68000000D02*
X58900000Y-67850000D01*
X58900000Y-67850000D02*
X58900000Y-63650000D01*
X99750000Y-156675000D02*
X98500000Y-155425000D01*
X58900000Y-63650000D02*
X52540000Y-57290000D01*
D29*
X166351280Y-54347780D02*
X166351280Y-51749360D01*
X166351280Y-46750640D02*
X166351280Y-44152220D01*
X164547780Y-54347780D02*
X166351280Y-54347780D01*
X162175000Y-51975000D02*
X164547780Y-54347780D01*
X162175000Y-46000000D02*
X162175000Y-51975000D01*
X163850000Y-44325000D02*
X162175000Y-46000000D01*
X166351280Y-44152220D02*
X166178500Y-44325000D01*
X166178500Y-44325000D02*
X163850000Y-44325000D01*
D28*
X169075000Y-51525000D02*
X171350000Y-49250000D01*
X169075000Y-63550000D02*
X169075000Y-51525000D01*
D30*
X168775001Y-64375001D02*
X168600001Y-64375001D01*
X169075000Y-64675000D02*
X168775001Y-64375001D01*
X168600001Y-64024999D02*
X169075000Y-63550000D01*
X168600001Y-64375001D02*
X168600001Y-64024999D01*
X169625000Y-64600000D02*
X169625000Y-64025000D01*
X169550000Y-64025000D02*
X169075000Y-63550000D01*
X169625000Y-64025000D02*
X169550000Y-64025000D01*
X168600001Y-64375001D02*
X168600001Y-64950001D01*
X168925000Y-65275000D02*
X169025000Y-65275000D01*
X168600001Y-64950001D02*
X168925000Y-65275000D01*
X168950000Y-65275000D02*
X169625000Y-64600000D01*
X168925000Y-65275000D02*
X168950000Y-65275000D01*
D28*
X152191999Y-39070001D02*
X156890999Y-39070001D01*
D31*
X151892000Y-39370000D02*
X152191999Y-39070001D01*
D28*
X156890999Y-39070001D02*
X158242000Y-37719000D01*
D31*
X151983998Y-38862000D02*
X151384000Y-38862000D01*
X152191999Y-39070001D02*
X151983998Y-38862000D01*
D30*
X151892000Y-39370000D02*
X151384000Y-38862000D01*
D31*
X63962001Y-43007001D02*
X63962001Y-42880001D01*
X64262000Y-43307000D02*
X63962001Y-43007001D01*
D30*
X63962001Y-42880001D02*
X63246000Y-42164000D01*
D31*
X63563500Y-41719500D02*
X63563500Y-41846500D01*
X63627000Y-41656000D02*
X63563500Y-41719500D01*
X63246000Y-42164000D02*
X63563500Y-41846500D01*
X64008000Y-43561000D02*
X64262000Y-43307000D01*
X64008000Y-43942000D02*
X64008000Y-43561000D01*
D30*
X62865000Y-42799000D02*
X64008000Y-43942000D01*
D31*
X62865000Y-42672000D02*
X62865000Y-42799000D01*
D32*
G36*
X110263313Y900990D02*
G01*
X112853801Y843013D01*
X115379505Y747277D01*
X117839714Y614376D01*
X120235290Y444862D01*
X122566880Y239296D01*
X124835096Y-1747D01*
X127040712Y-277710D01*
X129184330Y-588008D01*
X131266624Y-932063D01*
X133288406Y-1309317D01*
X135250242Y-1719165D01*
X137152912Y-2161037D01*
X138997044Y-2634329D01*
X140783459Y-3138479D01*
X142512803Y-3672874D01*
X144185800Y-4236922D01*
X145803254Y-4830057D01*
X147365832Y-5451663D01*
X148874343Y-6101164D01*
X150329475Y-6777950D01*
X151732137Y-7481501D01*
X153083020Y-8211199D01*
X154382967Y-8966505D01*
X155632774Y-9746863D01*
X156833282Y-10551749D01*
X157985265Y-11380606D01*
X159089622Y-12232971D01*
X160147115Y-13108303D01*
X161158631Y-14006172D01*
X162124991Y-14926099D01*
X163046993Y-15867626D01*
X163925533Y-16830396D01*
X164761361Y-17813929D01*
X165555251Y-18817812D01*
X166308055Y-19841725D01*
X167020492Y-20885227D01*
X167693338Y-21947971D01*
X168327336Y-23029591D01*
X168923175Y-24129654D01*
X169481564Y-25247820D01*
X170003197Y-26383666D01*
X170371007Y-27257222D01*
X169938883Y-26479398D01*
X169926281Y-26461168D01*
X169916706Y-26441188D01*
X169908094Y-26427192D01*
X169273094Y-25411191D01*
X169266837Y-25403067D01*
X169262116Y-25393960D01*
X169196809Y-25312152D01*
X169132920Y-25229207D01*
X169125199Y-25222449D01*
X169118803Y-25214437D01*
X169107265Y-25202735D01*
X168218265Y-24313735D01*
X168174250Y-24277580D01*
X168134026Y-24237273D01*
X168121266Y-24226918D01*
X167486266Y-23718917D01*
X167423176Y-23677853D01*
X167363003Y-23632624D01*
X167327126Y-23615334D01*
X167293745Y-23593607D01*
X167223875Y-23565576D01*
X167156068Y-23532899D01*
X167117521Y-23522908D01*
X167080552Y-23508077D01*
X167006569Y-23494152D01*
X166933705Y-23475267D01*
X166917453Y-23472830D01*
X166028453Y-23345829D01*
X165949147Y-23342325D01*
X165870217Y-23334029D01*
X165834651Y-23337266D01*
X165798967Y-23335689D01*
X165720497Y-23347654D01*
X165641452Y-23354848D01*
X165607190Y-23364932D01*
X165571881Y-23370316D01*
X165497227Y-23397296D01*
X165421088Y-23419705D01*
X165389439Y-23436250D01*
X165355846Y-23448391D01*
X165287858Y-23489356D01*
X165217518Y-23526128D01*
X165189682Y-23548509D01*
X165159092Y-23566940D01*
X165100356Y-23620329D01*
X165038496Y-23670066D01*
X165015539Y-23697425D01*
X164989109Y-23721449D01*
X164941860Y-23785232D01*
X164890841Y-23846034D01*
X164873636Y-23877330D01*
X164852375Y-23906031D01*
X164818414Y-23977779D01*
X164780178Y-24047330D01*
X164769379Y-24081373D01*
X164754098Y-24113656D01*
X164734721Y-24190626D01*
X164710720Y-24266288D01*
X164706739Y-24301784D01*
X164698020Y-24336417D01*
X164693963Y-24415686D01*
X164685115Y-24494567D01*
X164685000Y-24511000D01*
X164685000Y-24736074D01*
X164192630Y-24982259D01*
X164135708Y-25018056D01*
X164076068Y-25049116D01*
X164038705Y-25079060D01*
X163998176Y-25104548D01*
X163949294Y-25150717D01*
X163896819Y-25192772D01*
X163865984Y-25229403D01*
X163831178Y-25262277D01*
X163792190Y-25317068D01*
X163748888Y-25368509D01*
X163739677Y-25382118D01*
X163485677Y-25763118D01*
X163435025Y-25858020D01*
X163383178Y-25952330D01*
X163380964Y-25959310D01*
X163377516Y-25965770D01*
X163346251Y-26068738D01*
X163313720Y-26171288D01*
X163312904Y-26178562D01*
X163310776Y-26185571D01*
X163300108Y-26292649D01*
X163288115Y-26399567D01*
X163288014Y-26414032D01*
X163288002Y-26414150D01*
X163288012Y-26414256D01*
X163288000Y-26416000D01*
X163288000Y-26924000D01*
X163294652Y-26991840D01*
X163295883Y-27059994D01*
X163305834Y-27105883D01*
X163310416Y-27152614D01*
X163330119Y-27217875D01*
X163344564Y-27284487D01*
X163363236Y-27327563D01*
X163376809Y-27372520D01*
X163408813Y-27432710D01*
X163435921Y-27495249D01*
X163462608Y-27533884D01*
X163484652Y-27575342D01*
X163527733Y-27628165D01*
X163566475Y-27684251D01*
X163600158Y-27716967D01*
X163629835Y-27753354D01*
X163682353Y-27796801D01*
X163731255Y-27844298D01*
X163770654Y-27869850D01*
X163806830Y-27899777D01*
X163866791Y-27932198D01*
X163923983Y-27969289D01*
X163938630Y-27976741D01*
X164335928Y-28175391D01*
X164212142Y-28670536D01*
X164209064Y-28691289D01*
X164202720Y-28711288D01*
X164192238Y-28804741D01*
X164178442Y-28897760D01*
X164179454Y-28918717D01*
X164177115Y-28939567D01*
X164177000Y-28956000D01*
X164177000Y-29591000D01*
X164187701Y-29700136D01*
X164189130Y-29716183D01*
X162996609Y-29065717D01*
X162945414Y-29043975D01*
X162896670Y-29017178D01*
X162839944Y-28999183D01*
X162785176Y-28975924D01*
X162730735Y-28964540D01*
X162677712Y-28947720D01*
X162618578Y-28941087D01*
X162560329Y-28928907D01*
X162504703Y-28928314D01*
X162449433Y-28922115D01*
X162433000Y-28922000D01*
X160655000Y-28922000D01*
X160621649Y-28925270D01*
X160588168Y-28923899D01*
X160507568Y-28936456D01*
X160426386Y-28944416D01*
X160394306Y-28954102D01*
X160361195Y-28959260D01*
X160345311Y-28963473D01*
X158948311Y-29344473D01*
X158886529Y-29368010D01*
X158822997Y-29386335D01*
X158779443Y-29408805D01*
X158733650Y-29426251D01*
X158677608Y-29461345D01*
X158618855Y-29491657D01*
X158605118Y-29500677D01*
X157462118Y-30262677D01*
X157445006Y-30276678D01*
X157425902Y-30287813D01*
X157356238Y-30349308D01*
X157284334Y-30408140D01*
X157270269Y-30425197D01*
X157253689Y-30439832D01*
X157197302Y-30513680D01*
X157138189Y-30585364D01*
X157127701Y-30604834D01*
X157114284Y-30622406D01*
X157105731Y-30636438D01*
X156343731Y-31906438D01*
X156296103Y-32006906D01*
X156247899Y-32106932D01*
X156246952Y-32110588D01*
X156245331Y-32114006D01*
X156218120Y-32221831D01*
X156190267Y-32329295D01*
X156189195Y-32336443D01*
X156189122Y-32336733D01*
X156189106Y-32337035D01*
X156187830Y-32345547D01*
X156060829Y-33234547D01*
X156060735Y-33236663D01*
X156060241Y-33238719D01*
X156058089Y-33255011D01*
X155931089Y-34271011D01*
X155928074Y-34384277D01*
X155924789Y-34497984D01*
X155925011Y-34499307D01*
X155924976Y-34500640D01*
X155944030Y-34612405D01*
X155962882Y-34724514D01*
X155963554Y-34726929D01*
X155963580Y-34727083D01*
X155963641Y-34727244D01*
X155967286Y-34740347D01*
X156221286Y-35629347D01*
X156258282Y-35723049D01*
X156293013Y-35817621D01*
X156300259Y-35832370D01*
X156632337Y-36496527D01*
X156685260Y-36681756D01*
X156448804Y-36965503D01*
X156417565Y-37011459D01*
X156381841Y-37054034D01*
X156353148Y-37106227D01*
X156319669Y-37155479D01*
X156297950Y-37206632D01*
X156271178Y-37255330D01*
X156253170Y-37312097D01*
X156229893Y-37366920D01*
X156218524Y-37421317D01*
X156201720Y-37474288D01*
X156195081Y-37533477D01*
X156193090Y-37543001D01*
X152341448Y-37543001D01*
X152292285Y-37502654D01*
X152009638Y-37351576D01*
X151702947Y-37258543D01*
X151384000Y-37227129D01*
X151065053Y-37258543D01*
X150758362Y-37351576D01*
X150475715Y-37502654D01*
X150227971Y-37705971D01*
X150024654Y-37953715D01*
X149873576Y-38236362D01*
X149780543Y-38543053D01*
X149749129Y-38862000D01*
X149780543Y-39180947D01*
X149873576Y-39487638D01*
X150024654Y-39770285D01*
X150177022Y-39955947D01*
X150798053Y-40576977D01*
X150983714Y-40729345D01*
X151266361Y-40880424D01*
X151573052Y-40973457D01*
X151891999Y-41004871D01*
X152210947Y-40973457D01*
X152517638Y-40880424D01*
X152800285Y-40729345D01*
X152961547Y-40597001D01*
X156815998Y-40597001D01*
X156890999Y-40604388D01*
X156938000Y-40599759D01*
X156938000Y-40640000D01*
X156939346Y-40653726D01*
X156938321Y-40667477D01*
X156950541Y-40767904D01*
X156960416Y-40868614D01*
X156964403Y-40881818D01*
X156966068Y-40895505D01*
X156997561Y-40991646D01*
X157026809Y-41088520D01*
X157033283Y-41100696D01*
X157037576Y-41113801D01*
X157087150Y-41202005D01*
X157134652Y-41291342D01*
X157143368Y-41302029D01*
X157150125Y-41314051D01*
X157215894Y-41390954D01*
X157279835Y-41469354D01*
X157290458Y-41478142D01*
X157299424Y-41488626D01*
X157378891Y-41551301D01*
X157456830Y-41615777D01*
X157468958Y-41622335D01*
X157479788Y-41630876D01*
X157569899Y-41676913D01*
X157658894Y-41725033D01*
X157672067Y-41729111D01*
X157684348Y-41735385D01*
X157781677Y-41763041D01*
X157878331Y-41792960D01*
X157892046Y-41794401D01*
X157905312Y-41798171D01*
X157921502Y-41800986D01*
X158539074Y-41903914D01*
X158611856Y-42267828D01*
X158643759Y-42372767D01*
X158674705Y-42477912D01*
X158677141Y-42482573D01*
X158678672Y-42487607D01*
X158730325Y-42584304D01*
X158781128Y-42681482D01*
X158784426Y-42685584D01*
X158786903Y-42690221D01*
X158856340Y-42775027D01*
X158925066Y-42860504D01*
X158929096Y-42863886D01*
X158932428Y-42867955D01*
X159016994Y-42937641D01*
X159101034Y-43008159D01*
X159105648Y-43010696D01*
X159109703Y-43014037D01*
X159206146Y-43065944D01*
X159302330Y-43118822D01*
X159307349Y-43120414D01*
X159311977Y-43122905D01*
X159416710Y-43155106D01*
X159521288Y-43188280D01*
X159526517Y-43188867D01*
X159531544Y-43190412D01*
X159640562Y-43201658D01*
X159749567Y-43213885D01*
X159759774Y-43213956D01*
X159760041Y-43213984D01*
X159760298Y-43213960D01*
X159766000Y-43214000D01*
X160528000Y-43214000D01*
X160575029Y-43209389D01*
X160622280Y-43210218D01*
X160689077Y-43198206D01*
X160756614Y-43191584D01*
X160801851Y-43177926D01*
X160848364Y-43169562D01*
X160911552Y-43144806D01*
X160976520Y-43125191D01*
X161018246Y-43103005D01*
X161062244Y-43085767D01*
X161119420Y-43049209D01*
X161179342Y-43017348D01*
X161215963Y-42987481D01*
X161255777Y-42962024D01*
X161304764Y-42915056D01*
X161357354Y-42872165D01*
X161387476Y-42835754D01*
X161421588Y-42803048D01*
X161432196Y-42790497D01*
X161887576Y-42244042D01*
X161917960Y-42253744D01*
X161994133Y-42282931D01*
X162027160Y-42288615D01*
X162059080Y-42298808D01*
X162075171Y-42302143D01*
X162710171Y-42429143D01*
X162779117Y-42436037D01*
X162847322Y-42448266D01*
X162893140Y-42447438D01*
X162938741Y-42451998D01*
X163007717Y-42445368D01*
X163076994Y-42444117D01*
X163121778Y-42434406D01*
X163167398Y-42430021D01*
X163233776Y-42410119D01*
X163301487Y-42395436D01*
X163343532Y-42377211D01*
X163387431Y-42364049D01*
X163448672Y-42331637D01*
X163512249Y-42304079D01*
X163549959Y-42278031D01*
X163590459Y-42256596D01*
X163644233Y-42212910D01*
X163701251Y-42173525D01*
X163733185Y-42140647D01*
X163768750Y-42111754D01*
X163813013Y-42058458D01*
X163861298Y-42008745D01*
X163886238Y-41970289D01*
X163915512Y-41935041D01*
X163948582Y-41874159D01*
X163986289Y-41816017D01*
X163993741Y-41801370D01*
X164247741Y-41293371D01*
X164286628Y-41191879D01*
X164326603Y-41090735D01*
X164327718Y-41084641D01*
X164329930Y-41078867D01*
X164348365Y-40971754D01*
X164367932Y-40864774D01*
X164367842Y-40858588D01*
X164368892Y-40852486D01*
X164366169Y-40743800D01*
X164364585Y-40635088D01*
X164363294Y-40629032D01*
X164363139Y-40622847D01*
X164339360Y-40516770D01*
X164316688Y-40410426D01*
X164312943Y-40398926D01*
X164312893Y-40398701D01*
X164312806Y-40398505D01*
X164311600Y-40394800D01*
X164057600Y-39632800D01*
X164051009Y-39618020D01*
X164046981Y-39602339D01*
X164004276Y-39513230D01*
X163964040Y-39423006D01*
X163954701Y-39409784D01*
X163947706Y-39395188D01*
X163939094Y-39381192D01*
X163304094Y-38365191D01*
X163278574Y-38332059D01*
X163257368Y-38296015D01*
X163247600Y-38282800D01*
X162493814Y-37277752D01*
X161984885Y-36565253D01*
X161850403Y-36094563D01*
X161935593Y-35327847D01*
X162102771Y-34882041D01*
X162394482Y-34736185D01*
X162957058Y-34798694D01*
X163784065Y-35258143D01*
X164705940Y-36064783D01*
X164751038Y-36097054D01*
X164792638Y-36133718D01*
X164806035Y-36143236D01*
X166076035Y-37032236D01*
X166116875Y-37055240D01*
X166154779Y-37082815D01*
X166216715Y-37111479D01*
X166276178Y-37144974D01*
X166320709Y-37159608D01*
X166363247Y-37179295D01*
X166378800Y-37184600D01*
X167521800Y-37565600D01*
X167585167Y-37580037D01*
X167647080Y-37599808D01*
X167663171Y-37603143D01*
X168298171Y-37730143D01*
X168339686Y-37734294D01*
X168380370Y-37743578D01*
X168453725Y-37745697D01*
X168526741Y-37752998D01*
X168568274Y-37749006D01*
X168609984Y-37750211D01*
X168682352Y-37738042D01*
X168755398Y-37731021D01*
X168795367Y-37719037D01*
X168836514Y-37712118D01*
X168852347Y-37707714D01*
X169741347Y-37453714D01*
X169797318Y-37431615D01*
X169855099Y-37414828D01*
X169903890Y-37389537D01*
X169955006Y-37369355D01*
X170005618Y-37336806D01*
X170059040Y-37309115D01*
X170101983Y-37274834D01*
X170148212Y-37245104D01*
X170191546Y-37203337D01*
X170238563Y-37165803D01*
X170250265Y-37154265D01*
X170885265Y-36519264D01*
X170933048Y-36461092D01*
X170984648Y-36406277D01*
X170994600Y-36393200D01*
X171375600Y-35885200D01*
X171391998Y-35858198D01*
X171412053Y-35833784D01*
X171451504Y-35760212D01*
X171494836Y-35688859D01*
X171505679Y-35659182D01*
X171520607Y-35631342D01*
X171526817Y-35616127D01*
X171780817Y-34981127D01*
X171808870Y-34884576D01*
X171839280Y-34788712D01*
X171840888Y-34774380D01*
X171844909Y-34760539D01*
X171853675Y-34660371D01*
X171864885Y-34560433D01*
X171865000Y-34544000D01*
X171865000Y-32639000D01*
X171854480Y-32531705D01*
X171845253Y-32424307D01*
X171842599Y-32410535D01*
X171842584Y-32410386D01*
X171842545Y-32410257D01*
X171842143Y-32408171D01*
X171461143Y-30503171D01*
X171455370Y-30484181D01*
X171452732Y-30464506D01*
X171448858Y-30448536D01*
X171199816Y-29452368D01*
X171354176Y-29893337D01*
X171735354Y-31095842D01*
X172083043Y-32313957D01*
X172397861Y-33547229D01*
X172680418Y-34795100D01*
X172931356Y-36057194D01*
X173151305Y-37332992D01*
X173340866Y-38621963D01*
X173500672Y-39923599D01*
X173631369Y-41237444D01*
X173730640Y-42524840D01*
X173679320Y-42524840D01*
X173345776Y-42591186D01*
X173031584Y-42721328D01*
X172748818Y-42910266D01*
X172599680Y-43059404D01*
X172450542Y-42910266D01*
X172167776Y-42721328D01*
X171853584Y-42591186D01*
X171520040Y-42524840D01*
X171179960Y-42524840D01*
X170846416Y-42591186D01*
X170532224Y-42721328D01*
X170249458Y-42910266D01*
X170008986Y-43150738D01*
X169820048Y-43433504D01*
X169689906Y-43747696D01*
X169623560Y-44081240D01*
X169623560Y-44421320D01*
X169689906Y-44754864D01*
X169820048Y-45069056D01*
X170008986Y-45351822D01*
X170249458Y-45592294D01*
X170532224Y-45781232D01*
X170846416Y-45911374D01*
X171179960Y-45977720D01*
X171520040Y-45977720D01*
X171853584Y-45911374D01*
X172167776Y-45781232D01*
X172450542Y-45592294D01*
X172599680Y-45443156D01*
X172748818Y-45592294D01*
X173031584Y-45781232D01*
X173345776Y-45911374D01*
X173679320Y-45977720D01*
X173866144Y-45977720D01*
X173875631Y-46604226D01*
X173870711Y-47971058D01*
X173840085Y-49346655D01*
X173784801Y-50730756D01*
X173705514Y-52122833D01*
X173676192Y-52522902D01*
X173345776Y-52588626D01*
X173031584Y-52718768D01*
X172748818Y-52907706D01*
X172599680Y-53056844D01*
X172450542Y-52907706D01*
X172167776Y-52718768D01*
X171853584Y-52588626D01*
X171520040Y-52522280D01*
X171179960Y-52522280D01*
X170846416Y-52588626D01*
X170602000Y-52689866D01*
X170602000Y-52157503D01*
X171291573Y-51467930D01*
X171568447Y-51467930D01*
X171996946Y-51382697D01*
X172400584Y-51215504D01*
X172763848Y-50972779D01*
X173072779Y-50663848D01*
X173315504Y-50300584D01*
X173482697Y-49896946D01*
X173567930Y-49468447D01*
X173567930Y-49031553D01*
X173482697Y-48603054D01*
X173315504Y-48199416D01*
X173072779Y-47836152D01*
X172763848Y-47527221D01*
X172400584Y-47284496D01*
X171996946Y-47117303D01*
X171568447Y-47032070D01*
X171131553Y-47032070D01*
X170703054Y-47117303D01*
X170299416Y-47284496D01*
X169936152Y-47527221D01*
X169627221Y-47836152D01*
X169384496Y-48199416D01*
X169217303Y-48603054D01*
X169132070Y-49031553D01*
X169132070Y-49308427D01*
X168086446Y-50354051D01*
X168074059Y-50335512D01*
X167851228Y-50112681D01*
X167881232Y-50067776D01*
X168011374Y-49753584D01*
X168077720Y-49420040D01*
X168077720Y-49079960D01*
X168011374Y-48746416D01*
X167881232Y-48432224D01*
X167851228Y-48387319D01*
X168074059Y-48164488D01*
X168316784Y-47801224D01*
X168483977Y-47397586D01*
X168569210Y-46969087D01*
X168569210Y-46532193D01*
X168483977Y-46103694D01*
X168316784Y-45700056D01*
X168150658Y-45451430D01*
X168316784Y-45202804D01*
X168483977Y-44799166D01*
X168569210Y-44370667D01*
X168569210Y-43933773D01*
X168483977Y-43505274D01*
X168316784Y-43101636D01*
X168074059Y-42738372D01*
X167765128Y-42429441D01*
X167401864Y-42186716D01*
X166998226Y-42019523D01*
X166569727Y-41934290D01*
X166132833Y-41934290D01*
X165704334Y-42019523D01*
X165300696Y-42186716D01*
X164937432Y-42429441D01*
X164628501Y-42738372D01*
X164521841Y-42898000D01*
X163920090Y-42898000D01*
X163850000Y-42891097D01*
X163779910Y-42898000D01*
X163779902Y-42898000D01*
X163594474Y-42916263D01*
X163570258Y-42918648D01*
X163513340Y-42935914D01*
X163301269Y-43000245D01*
X163053366Y-43132752D01*
X163031450Y-43150738D01*
X162890525Y-43266392D01*
X162890522Y-43266395D01*
X162836077Y-43311077D01*
X162791395Y-43365522D01*
X161215523Y-44941395D01*
X161161077Y-44986078D01*
X161116395Y-45040523D01*
X161116392Y-45040526D01*
X161033384Y-45141672D01*
X160982752Y-45203367D01*
X160850245Y-45451270D01*
X160768648Y-45720260D01*
X160748000Y-45929903D01*
X160748000Y-45929912D01*
X160741097Y-46000000D01*
X160748000Y-46070088D01*
X160748001Y-51904903D01*
X160741097Y-51975000D01*
X160748001Y-52045098D01*
X160755935Y-52125656D01*
X160768649Y-52254741D01*
X160850246Y-52523731D01*
X160982753Y-52771634D01*
X161116392Y-52934474D01*
X161116396Y-52934478D01*
X161161078Y-52988923D01*
X161215523Y-53033605D01*
X163489175Y-55307258D01*
X163533857Y-55361703D01*
X163588302Y-55406385D01*
X163588305Y-55406388D01*
X163751145Y-55540028D01*
X163843537Y-55589412D01*
X163999049Y-55672535D01*
X164186441Y-55729380D01*
X164268038Y-55754132D01*
X164292254Y-55756517D01*
X164477682Y-55774780D01*
X164477690Y-55774780D01*
X164547780Y-55781683D01*
X164617870Y-55774780D01*
X164641653Y-55774780D01*
X164937432Y-56070559D01*
X165300696Y-56313284D01*
X165704334Y-56480477D01*
X166132833Y-56565710D01*
X166569727Y-56565710D01*
X166998226Y-56480477D01*
X167401864Y-56313284D01*
X167548001Y-56215639D01*
X167548000Y-62776075D01*
X167506054Y-62818021D01*
X167443972Y-62868970D01*
X167240655Y-63116713D01*
X167089576Y-63399361D01*
X166996543Y-63706051D01*
X166973001Y-63945074D01*
X166973001Y-63945085D01*
X166965130Y-64024999D01*
X166973001Y-64104913D01*
X166973001Y-64295076D01*
X166965129Y-64375001D01*
X166973001Y-64454925D01*
X166973001Y-64870087D01*
X166965130Y-64950001D01*
X166973001Y-65029915D01*
X166973001Y-65029926D01*
X166996543Y-65268949D01*
X167089576Y-65575639D01*
X167240655Y-65858287D01*
X167443972Y-66106030D01*
X167506054Y-66156979D01*
X167718020Y-66368945D01*
X167768971Y-66431029D01*
X168016714Y-66634346D01*
X168299362Y-66785425D01*
X168606052Y-66878458D01*
X168845075Y-66902000D01*
X168845085Y-66902000D01*
X168925000Y-66909871D01*
X168937500Y-66908640D01*
X168950000Y-66909871D01*
X169029914Y-66902000D01*
X169104925Y-66902000D01*
X169343948Y-66878458D01*
X169650638Y-66785425D01*
X169933286Y-66634346D01*
X170181029Y-66431029D01*
X170384346Y-66183286D01*
X170432238Y-66093687D01*
X170718947Y-65806978D01*
X170781029Y-65756029D01*
X170984346Y-65508286D01*
X171135425Y-65225638D01*
X171228458Y-64918948D01*
X171252000Y-64679925D01*
X171252000Y-64679915D01*
X171259871Y-64600001D01*
X171252000Y-64520086D01*
X171252000Y-64104925D01*
X171259872Y-64025000D01*
X171228458Y-63706052D01*
X171135425Y-63399362D01*
X170984346Y-63116714D01*
X170781029Y-62868971D01*
X170602000Y-62722046D01*
X170602000Y-55807574D01*
X170846416Y-55908814D01*
X171179960Y-55975160D01*
X171520040Y-55975160D01*
X171853584Y-55908814D01*
X172167776Y-55778672D01*
X172450542Y-55589734D01*
X172599680Y-55440596D01*
X172748818Y-55589734D01*
X173031584Y-55778672D01*
X173345776Y-55908814D01*
X173374953Y-55914618D01*
X173330519Y-56340962D01*
X173161998Y-57759048D01*
X172972841Y-59182268D01*
X172763700Y-60610162D01*
X172535259Y-62042066D01*
X172288205Y-63477465D01*
X172023217Y-64915776D01*
X171740939Y-66356603D01*
X171442707Y-67796310D01*
X170797348Y-70688051D01*
X170094605Y-73577586D01*
X169339286Y-76463644D01*
X168536874Y-79342041D01*
X167692939Y-82208332D01*
X166813013Y-85058254D01*
X165902590Y-87887634D01*
X164967231Y-90692215D01*
X164012512Y-93467609D01*
X163043968Y-96209687D01*
X162067143Y-98914166D01*
X161087995Y-101575803D01*
X159142211Y-106761078D01*
X157273140Y-111673867D01*
X157272899Y-111674352D01*
X157252167Y-111728994D01*
X157232211Y-111781447D01*
X157232075Y-111781949D01*
X155483351Y-116390893D01*
X155481452Y-116394788D01*
X155462785Y-116445094D01*
X155443863Y-116494966D01*
X155442737Y-116499124D01*
X153838196Y-120823326D01*
X153835550Y-120828902D01*
X153818089Y-120877514D01*
X153800120Y-120925939D01*
X153798551Y-120931907D01*
X153082005Y-122926749D01*
X153079496Y-122932179D01*
X153062477Y-122981114D01*
X153044943Y-123029929D01*
X153043481Y-123035736D01*
X152378899Y-124946652D01*
X152375758Y-124953690D01*
X152359930Y-125001197D01*
X152343455Y-125048567D01*
X152341646Y-125056071D01*
X151733631Y-126880935D01*
X151729790Y-126889939D01*
X151715367Y-126935752D01*
X151700179Y-126981335D01*
X151698009Y-126990884D01*
X151151667Y-128726222D01*
X151147066Y-128737665D01*
X151134308Y-128781357D01*
X151120648Y-128824746D01*
X151118117Y-128836809D01*
X150638480Y-130479449D01*
X150633077Y-130493980D01*
X150622282Y-130534924D01*
X150610418Y-130575554D01*
X150607553Y-130590785D01*
X150199626Y-132137943D01*
X150193433Y-132156454D01*
X150184898Y-132193800D01*
X150175129Y-132230853D01*
X150172025Y-132250131D01*
X149842294Y-133692992D01*
X149837124Y-133710166D01*
X149829424Y-133749310D01*
X149820534Y-133788211D01*
X149818271Y-133806007D01*
X149693098Y-134442331D01*
X149689393Y-134455785D01*
X149681948Y-134499015D01*
X149673477Y-134542076D01*
X149672138Y-134555972D01*
X149564048Y-135183576D01*
X149544568Y-135277577D01*
X149543945Y-135355588D01*
X149538303Y-135433402D01*
X149543021Y-135471262D01*
X149542716Y-135509418D01*
X149557326Y-135586061D01*
X149566972Y-135663471D01*
X149578985Y-135699682D01*
X149586130Y-135737166D01*
X149615409Y-135809480D01*
X149639974Y-135883527D01*
X149658824Y-135916705D01*
X149673142Y-135952067D01*
X149715965Y-136017277D01*
X149754505Y-136085112D01*
X149779461Y-136113970D01*
X149800406Y-136145865D01*
X149855129Y-136201469D01*
X149906161Y-136260480D01*
X149936272Y-136283918D01*
X149963033Y-136311110D01*
X150027546Y-136354965D01*
X150089117Y-136402892D01*
X150123224Y-136420006D01*
X150154774Y-136441454D01*
X150226603Y-136471881D01*
X150296340Y-136506874D01*
X150333129Y-136517005D01*
X150368258Y-136531886D01*
X150444646Y-136547716D01*
X150519868Y-136568431D01*
X150557925Y-136571190D01*
X150595283Y-136578932D01*
X150673295Y-136579555D01*
X150751108Y-136585197D01*
X150788968Y-136580479D01*
X150827124Y-136580784D01*
X150903767Y-136566174D01*
X150981177Y-136556528D01*
X151017388Y-136544515D01*
X151054872Y-136537370D01*
X151127189Y-136508090D01*
X151201233Y-136483526D01*
X151284707Y-136436100D01*
X171323569Y-125929985D01*
X170827231Y-183008468D01*
X140505573Y-169226092D01*
X140447682Y-169193650D01*
X140345196Y-169160319D01*
X140243354Y-169125612D01*
X140235117Y-169124518D01*
X140227201Y-169121943D01*
X140120175Y-169109245D01*
X140013526Y-169095074D01*
X139947329Y-169099333D01*
X73594927Y-167777570D01*
X73487617Y-167773878D01*
X73421845Y-167784624D01*
X73355416Y-167789833D01*
X73307716Y-167803271D01*
X73258802Y-167811263D01*
X73196394Y-167834633D01*
X73132254Y-167852703D01*
X73036581Y-167901417D01*
X45067641Y-181636172D01*
X44578792Y-158367017D01*
X48298000Y-158367017D01*
X48298000Y-158982983D01*
X48418169Y-159587112D01*
X48653889Y-160156190D01*
X48996101Y-160668346D01*
X49431654Y-161103899D01*
X49943810Y-161446111D01*
X50512888Y-161681831D01*
X51117017Y-161802000D01*
X51732983Y-161802000D01*
X52337112Y-161681831D01*
X52906190Y-161446111D01*
X53418346Y-161103899D01*
X53853899Y-160668346D01*
X54196111Y-160156190D01*
X54431831Y-159587112D01*
X54552000Y-158982983D01*
X54552000Y-158367017D01*
X57098000Y-158367017D01*
X57098000Y-158982983D01*
X57218169Y-159587112D01*
X57453889Y-160156190D01*
X57796101Y-160668346D01*
X58231654Y-161103899D01*
X58743810Y-161446111D01*
X59312888Y-161681831D01*
X59917017Y-161802000D01*
X60532983Y-161802000D01*
X61137112Y-161681831D01*
X61706190Y-161446111D01*
X62218346Y-161103899D01*
X62653899Y-160668346D01*
X62826885Y-160409453D01*
X68298000Y-160409453D01*
X68298000Y-160690547D01*
X68352838Y-160966241D01*
X68439288Y-161174948D01*
X68432410Y-161187816D01*
X68345095Y-161475657D01*
X68323000Y-161699990D01*
X68323000Y-162124263D01*
X68315613Y-162199264D01*
X68323000Y-162274265D01*
X68323000Y-162274275D01*
X68345095Y-162498608D01*
X68432410Y-162786449D01*
X68574203Y-163051724D01*
X68765024Y-163284240D01*
X68823293Y-163332060D01*
X68867203Y-163375970D01*
X68915024Y-163434240D01*
X69147540Y-163625061D01*
X69412815Y-163766854D01*
X69700656Y-163854169D01*
X69924989Y-163876264D01*
X69924998Y-163876264D01*
X69999999Y-163883651D01*
X70075000Y-163876264D01*
X76991761Y-163876264D01*
X77267203Y-164151706D01*
X77315024Y-164209976D01*
X77547540Y-164400797D01*
X77812815Y-164542590D01*
X78100656Y-164629905D01*
X78324989Y-164652000D01*
X78324998Y-164652000D01*
X78399999Y-164659387D01*
X78475000Y-164652000D01*
X79583916Y-164652000D01*
X79640340Y-164708424D01*
X79874062Y-164864591D01*
X80133759Y-164972162D01*
X80409453Y-165027000D01*
X80690547Y-165027000D01*
X80966241Y-164972162D01*
X81225938Y-164864591D01*
X81459660Y-164708424D01*
X81658424Y-164509660D01*
X81814591Y-164275938D01*
X81922162Y-164016241D01*
X81977000Y-163740547D01*
X81977000Y-163459453D01*
X81922162Y-163183759D01*
X81819208Y-162935207D01*
X120823000Y-162935207D01*
X120823000Y-163314793D01*
X120897053Y-163687085D01*
X121042315Y-164037777D01*
X121253201Y-164353391D01*
X121521609Y-164621799D01*
X121837223Y-164832685D01*
X122187915Y-164977947D01*
X122560207Y-165052000D01*
X122939793Y-165052000D01*
X123312085Y-164977947D01*
X123662777Y-164832685D01*
X123978391Y-164621799D01*
X124246799Y-164353391D01*
X124457685Y-164037777D01*
X124602947Y-163687085D01*
X124677000Y-163314793D01*
X124677000Y-162935207D01*
X124602947Y-162562915D01*
X124457685Y-162212223D01*
X124246799Y-161896609D01*
X123978391Y-161628201D01*
X123662777Y-161417315D01*
X123312085Y-161272053D01*
X122939793Y-161198000D01*
X122560207Y-161198000D01*
X122187915Y-161272053D01*
X121837223Y-161417315D01*
X121521609Y-161628201D01*
X121253201Y-161896609D01*
X121042315Y-162212223D01*
X120897053Y-162562915D01*
X120823000Y-162935207D01*
X81819208Y-162935207D01*
X81814591Y-162924062D01*
X81658424Y-162690340D01*
X81459660Y-162491576D01*
X81225938Y-162335409D01*
X80966241Y-162227838D01*
X80863917Y-162207485D01*
X80925000Y-162213501D01*
X81390973Y-162167607D01*
X81839040Y-162031687D01*
X82251980Y-161810966D01*
X82613925Y-161513925D01*
X82910966Y-161151979D01*
X83131687Y-160739039D01*
X83267607Y-160290972D01*
X83302000Y-159941771D01*
X83302000Y-159208229D01*
X83548000Y-159208229D01*
X83548000Y-159941772D01*
X83582393Y-160290973D01*
X83718313Y-160739040D01*
X83939034Y-161151980D01*
X84236076Y-161513925D01*
X84598021Y-161810966D01*
X85010961Y-162031687D01*
X85459028Y-162167607D01*
X85925000Y-162213501D01*
X86390973Y-162167607D01*
X86839040Y-162031687D01*
X87251980Y-161810966D01*
X87613925Y-161513925D01*
X87910966Y-161151979D01*
X88131687Y-160739039D01*
X88267607Y-160290972D01*
X88302000Y-159941771D01*
X88302000Y-159208228D01*
X88267607Y-158859027D01*
X88131687Y-158410960D01*
X87910966Y-157998020D01*
X87613925Y-157636075D01*
X87251979Y-157339034D01*
X86839039Y-157118313D01*
X86390972Y-156982393D01*
X85925000Y-156936499D01*
X85459027Y-156982393D01*
X85010960Y-157118313D01*
X84598020Y-157339034D01*
X84236075Y-157636075D01*
X83939034Y-157998021D01*
X83718313Y-158410961D01*
X83582393Y-158859028D01*
X83548000Y-159208229D01*
X83302000Y-159208229D01*
X83302000Y-159208228D01*
X83267607Y-158859027D01*
X83131687Y-158410960D01*
X82910966Y-157998020D01*
X82613925Y-157636075D01*
X82251979Y-157339034D01*
X81839039Y-157118313D01*
X81390972Y-156982393D01*
X80925000Y-156936499D01*
X80459027Y-156982393D01*
X80010960Y-157118313D01*
X79598020Y-157339034D01*
X79236075Y-157636075D01*
X78939034Y-157998021D01*
X78718313Y-158410961D01*
X78582393Y-158859028D01*
X78548000Y-159208229D01*
X78548000Y-159941772D01*
X78582393Y-160290973D01*
X78718313Y-160739040D01*
X78939034Y-161151980D01*
X79236076Y-161513925D01*
X79338522Y-161598000D01*
X79032503Y-161598000D01*
X78757061Y-161322558D01*
X78709240Y-161264288D01*
X78476724Y-161073467D01*
X78211449Y-160931674D01*
X77923608Y-160844359D01*
X77699275Y-160822264D01*
X77699265Y-160822264D01*
X77624264Y-160814877D01*
X77549263Y-160822264D01*
X71125800Y-160822264D01*
X71152000Y-160690547D01*
X71152000Y-160409453D01*
X71097162Y-160133759D01*
X70989591Y-159874062D01*
X70833424Y-159640340D01*
X70634660Y-159441576D01*
X70400938Y-159285409D01*
X70141241Y-159177838D01*
X69865547Y-159123000D01*
X69584453Y-159123000D01*
X69308759Y-159177838D01*
X69049062Y-159285409D01*
X68815340Y-159441576D01*
X68616576Y-159640340D01*
X68460409Y-159874062D01*
X68352838Y-160133759D01*
X68298000Y-160409453D01*
X62826885Y-160409453D01*
X62996111Y-160156190D01*
X63231831Y-159587112D01*
X63352000Y-158982983D01*
X63352000Y-158367017D01*
X63231831Y-157762888D01*
X62996111Y-157193810D01*
X62653899Y-156681654D01*
X62218346Y-156246101D01*
X61706190Y-155903889D01*
X61137112Y-155668169D01*
X60532983Y-155548000D01*
X59917017Y-155548000D01*
X59312888Y-155668169D01*
X58743810Y-155903889D01*
X58231654Y-156246101D01*
X57796101Y-156681654D01*
X57453889Y-157193810D01*
X57218169Y-157762888D01*
X57098000Y-158367017D01*
X54552000Y-158367017D01*
X54431831Y-157762888D01*
X54196111Y-157193810D01*
X53853899Y-156681654D01*
X53418346Y-156246101D01*
X52906190Y-155903889D01*
X52337112Y-155668169D01*
X51732983Y-155548000D01*
X51117017Y-155548000D01*
X50512888Y-155668169D01*
X49943810Y-155903889D01*
X49431654Y-156246101D01*
X48996101Y-156681654D01*
X48653889Y-157193810D01*
X48418169Y-157762888D01*
X48298000Y-158367017D01*
X44578792Y-158367017D01*
X44507746Y-154985207D01*
X91373000Y-154985207D01*
X91373000Y-155364793D01*
X91447053Y-155737085D01*
X91592315Y-156087777D01*
X91803201Y-156403391D01*
X92071609Y-156671799D01*
X92387223Y-156882685D01*
X92737915Y-157027947D01*
X93110207Y-157102000D01*
X93489793Y-157102000D01*
X93862085Y-157027947D01*
X94212777Y-156882685D01*
X94528391Y-156671799D01*
X94796799Y-156403391D01*
X95007685Y-156087777D01*
X95152947Y-155737085D01*
X95227000Y-155364793D01*
X95227000Y-154985207D01*
X95152947Y-154612915D01*
X95007685Y-154262223D01*
X94796799Y-153946609D01*
X94528391Y-153678201D01*
X94212777Y-153467315D01*
X93862085Y-153322053D01*
X93489793Y-153248000D01*
X93110207Y-153248000D01*
X92737915Y-153322053D01*
X92387223Y-153467315D01*
X92071609Y-153678201D01*
X91803201Y-153946609D01*
X91592315Y-154262223D01*
X91447053Y-154612915D01*
X91373000Y-154985207D01*
X44507746Y-154985207D01*
X44434009Y-151475358D01*
X51298000Y-151475358D01*
X51298000Y-151874642D01*
X51375896Y-152266254D01*
X51528696Y-152635145D01*
X51750526Y-152967137D01*
X52032863Y-153249474D01*
X52364855Y-153471304D01*
X52733746Y-153624104D01*
X53125358Y-153702000D01*
X53524642Y-153702000D01*
X53916254Y-153624104D01*
X54285145Y-153471304D01*
X54575000Y-153277629D01*
X54864855Y-153471304D01*
X55233746Y-153624104D01*
X55625358Y-153702000D01*
X56024642Y-153702000D01*
X56416254Y-153624104D01*
X56785145Y-153471304D01*
X57075000Y-153277629D01*
X57364855Y-153471304D01*
X57733746Y-153624104D01*
X58125358Y-153702000D01*
X58524642Y-153702000D01*
X58916254Y-153624104D01*
X59285145Y-153471304D01*
X59617137Y-153249474D01*
X59899474Y-152967137D01*
X60121304Y-152635145D01*
X60274104Y-152266254D01*
X60352000Y-151874642D01*
X60352000Y-151475358D01*
X60274104Y-151083746D01*
X60121304Y-150714855D01*
X59899474Y-150382863D01*
X59617137Y-150100526D01*
X59285145Y-149878696D01*
X58916254Y-149725896D01*
X58524642Y-149648000D01*
X58125358Y-149648000D01*
X57733746Y-149725896D01*
X57364855Y-149878696D01*
X57075000Y-150072371D01*
X56785145Y-149878696D01*
X56416254Y-149725896D01*
X56024642Y-149648000D01*
X55625358Y-149648000D01*
X55233746Y-149725896D01*
X54864855Y-149878696D01*
X54575000Y-150072371D01*
X54285145Y-149878696D01*
X53916254Y-149725896D01*
X53524642Y-149648000D01*
X53125358Y-149648000D01*
X52733746Y-149725896D01*
X52364855Y-149878696D01*
X52032863Y-150100526D01*
X51750526Y-150382863D01*
X51528696Y-150714855D01*
X51375896Y-151083746D01*
X51298000Y-151475358D01*
X44434009Y-151475358D01*
X44333860Y-146708229D01*
X78548000Y-146708229D01*
X78548000Y-147441772D01*
X78582393Y-147790973D01*
X78718313Y-148239040D01*
X78939034Y-148651980D01*
X79236076Y-149013925D01*
X79598021Y-149310966D01*
X80010961Y-149531687D01*
X80459028Y-149667607D01*
X80925000Y-149713501D01*
X81390973Y-149667607D01*
X81839040Y-149531687D01*
X82251980Y-149310966D01*
X82613925Y-149013925D01*
X82910966Y-148651979D01*
X83131687Y-148239039D01*
X83267607Y-147790972D01*
X83302000Y-147441771D01*
X83302000Y-146708229D01*
X83548000Y-146708229D01*
X83548000Y-147441772D01*
X83582393Y-147790973D01*
X83718313Y-148239040D01*
X83939034Y-148651980D01*
X84236076Y-149013925D01*
X84598021Y-149310966D01*
X85010961Y-149531687D01*
X85459028Y-149667607D01*
X85925000Y-149713501D01*
X86390973Y-149667607D01*
X86839040Y-149531687D01*
X87251980Y-149310966D01*
X87613925Y-149013925D01*
X87910966Y-148651979D01*
X88131687Y-148239039D01*
X88267607Y-147790972D01*
X88302000Y-147441771D01*
X88302000Y-146708228D01*
X88267607Y-146359027D01*
X88131687Y-145910960D01*
X87910966Y-145498020D01*
X87613925Y-145136075D01*
X87251979Y-144839034D01*
X86839039Y-144618313D01*
X86390972Y-144482393D01*
X85925000Y-144436499D01*
X85459027Y-144482393D01*
X85010960Y-144618313D01*
X84598020Y-144839034D01*
X84236075Y-145136075D01*
X83939034Y-145498021D01*
X83718313Y-145910961D01*
X83582393Y-146359028D01*
X83548000Y-146708229D01*
X83302000Y-146708229D01*
X83302000Y-146708228D01*
X83267607Y-146359027D01*
X83131687Y-145910960D01*
X82910966Y-145498020D01*
X82613925Y-145136075D01*
X82251979Y-144839034D01*
X81839039Y-144618313D01*
X81390972Y-144482393D01*
X80925000Y-144436499D01*
X80459027Y-144482393D01*
X80010960Y-144618313D01*
X79598020Y-144839034D01*
X79236075Y-145136075D01*
X78939034Y-145498021D01*
X78718313Y-145910961D01*
X78582393Y-146359028D01*
X78548000Y-146708229D01*
X44333860Y-146708229D01*
X44261406Y-143259453D01*
X52223000Y-143259453D01*
X52223000Y-143540547D01*
X52277838Y-143816241D01*
X52385409Y-144075938D01*
X52541576Y-144309660D01*
X52740340Y-144508424D01*
X52974062Y-144664591D01*
X53233759Y-144772162D01*
X53509453Y-144827000D01*
X53790547Y-144827000D01*
X54066241Y-144772162D01*
X54325938Y-144664591D01*
X54559660Y-144508424D01*
X54758424Y-144309660D01*
X54914591Y-144075938D01*
X55022162Y-143816241D01*
X55077000Y-143540547D01*
X55077000Y-143259453D01*
X55065826Y-143203276D01*
X55151711Y-143132792D01*
X56457504Y-141827000D01*
X57642497Y-141827000D01*
X61117208Y-145301712D01*
X61165024Y-145359976D01*
X61397540Y-145550797D01*
X61600699Y-145659388D01*
X61662815Y-145692590D01*
X61950655Y-145779905D01*
X61977955Y-145782594D01*
X62174989Y-145802000D01*
X62174996Y-145802000D01*
X62250000Y-145809387D01*
X62325004Y-145802000D01*
X75124998Y-145802000D01*
X75199999Y-145809387D01*
X75275000Y-145802000D01*
X75275011Y-145802000D01*
X75499344Y-145779905D01*
X75787185Y-145692590D01*
X76052460Y-145550797D01*
X76284976Y-145359976D01*
X76475797Y-145127460D01*
X76617590Y-144862185D01*
X76704905Y-144574344D01*
X76734388Y-144275000D01*
X76704905Y-143975656D01*
X76617590Y-143687815D01*
X76577000Y-143611877D01*
X76577000Y-142549989D01*
X76554905Y-142325656D01*
X76467590Y-142037815D01*
X76325797Y-141772540D01*
X76134976Y-141540024D01*
X75902460Y-141349203D01*
X75899664Y-141347708D01*
X75847162Y-141083759D01*
X75739591Y-140824062D01*
X75583424Y-140590340D01*
X75384660Y-140391576D01*
X75150938Y-140235409D01*
X74891241Y-140127838D01*
X74615547Y-140073000D01*
X74334453Y-140073000D01*
X74058759Y-140127838D01*
X73799062Y-140235409D01*
X73565340Y-140391576D01*
X73366576Y-140590340D01*
X73210409Y-140824062D01*
X73102838Y-141083759D01*
X73048000Y-141359453D01*
X73048000Y-141640547D01*
X73102838Y-141916241D01*
X73210409Y-142175938D01*
X73366576Y-142409660D01*
X73523000Y-142566084D01*
X73523000Y-142748000D01*
X62882504Y-142748000D01*
X59407797Y-139273294D01*
X59359976Y-139215024D01*
X59127460Y-139024203D01*
X58862185Y-138882410D01*
X58574344Y-138795095D01*
X58350011Y-138773000D01*
X58350001Y-138773000D01*
X58275000Y-138765613D01*
X58199999Y-138773000D01*
X55900000Y-138773000D01*
X55824999Y-138765613D01*
X55749998Y-138773000D01*
X55749989Y-138773000D01*
X55525656Y-138795095D01*
X55237815Y-138882410D01*
X54972540Y-139024203D01*
X54740024Y-139215024D01*
X54692207Y-139273289D01*
X52992208Y-140973289D01*
X52849204Y-141147540D01*
X52707411Y-141412815D01*
X52620096Y-141700656D01*
X52590613Y-142000000D01*
X52620096Y-142299344D01*
X52646274Y-142385642D01*
X52541576Y-142490340D01*
X52385409Y-142724062D01*
X52277838Y-142983759D01*
X52223000Y-143259453D01*
X44261406Y-143259453D01*
X43826061Y-122537136D01*
X66105351Y-134638515D01*
X66108429Y-134641041D01*
X66143060Y-134659552D01*
X66174999Y-134682399D01*
X66241468Y-134712449D01*
X66254515Y-134719536D01*
X66258167Y-134721077D01*
X66312902Y-134750334D01*
X66350481Y-134761733D01*
X66386260Y-134777909D01*
X66400820Y-134781291D01*
X66414596Y-134787106D01*
X66475378Y-134799620D01*
X66534767Y-134817636D01*
X66573847Y-134821485D01*
X66612095Y-134830370D01*
X66627042Y-134830847D01*
X66641681Y-134833861D01*
X66703732Y-134834277D01*
X66707687Y-134834667D01*
X66746765Y-134834667D01*
X66843826Y-134837764D01*
X66858574Y-134835317D01*
X66873525Y-134835417D01*
X66934468Y-134823719D01*
X66996231Y-134817636D01*
X67033811Y-134806236D01*
X67072547Y-134799808D01*
X67086534Y-134794530D01*
X67101217Y-134791712D01*
X67158706Y-134768350D01*
X67218096Y-134750334D01*
X67252731Y-134731821D01*
X67289467Y-134717960D01*
X67302157Y-134710054D01*
X67316007Y-134704426D01*
X67367831Y-134670299D01*
X67422569Y-134641041D01*
X67452926Y-134616127D01*
X67486252Y-134595366D01*
X67497156Y-134585136D01*
X67509642Y-134576914D01*
X67553813Y-134533331D01*
X67601790Y-134493958D01*
X67626704Y-134463600D01*
X67655339Y-134436736D01*
X67664036Y-134424578D01*
X67674680Y-134414076D01*
X67709500Y-134362713D01*
X67748873Y-134314737D01*
X67767386Y-134280101D01*
X67790230Y-134248167D01*
X67796389Y-134234543D01*
X67804778Y-134222169D01*
X67828908Y-134165001D01*
X67858166Y-134110264D01*
X67869566Y-134072682D01*
X67885741Y-134036905D01*
X67889123Y-134022345D01*
X67894938Y-134008569D01*
X67907452Y-133947790D01*
X67925468Y-133888399D01*
X67929317Y-133849318D01*
X67938202Y-133811070D01*
X67938679Y-133796123D01*
X67941693Y-133781484D01*
X67942109Y-133719435D01*
X67948193Y-133657667D01*
X67944344Y-133618585D01*
X67945596Y-133579339D01*
X67943149Y-133564591D01*
X67943249Y-133549640D01*
X67931551Y-133488696D01*
X67925468Y-133426935D01*
X67914068Y-133389355D01*
X67907640Y-133350619D01*
X67902363Y-133336632D01*
X67899544Y-133321948D01*
X67876181Y-133264456D01*
X67858166Y-133205070D01*
X67832642Y-133157317D01*
X67812258Y-133107158D01*
X67788488Y-133071062D01*
X67061887Y-131600727D01*
X66185558Y-129762338D01*
X65036513Y-127270535D01*
X63661063Y-124175284D01*
X62904669Y-122421057D01*
X62108534Y-120533540D01*
X61279413Y-118521256D01*
X60423056Y-116390418D01*
X59545295Y-114147339D01*
X58651994Y-111798536D01*
X57748911Y-109350170D01*
X56841941Y-106808822D01*
X55936858Y-104180720D01*
X55039526Y-101472385D01*
X54155740Y-98690124D01*
X53818237Y-97577468D01*
X56432570Y-97577468D01*
X56432570Y-97976752D01*
X56510466Y-98368364D01*
X56663266Y-98737255D01*
X56885096Y-99069247D01*
X57167433Y-99351584D01*
X57284765Y-99429982D01*
X57097248Y-99617499D01*
X56902777Y-99908545D01*
X56768823Y-100231938D01*
X56700534Y-100575251D01*
X56700534Y-100925289D01*
X56768823Y-101268602D01*
X56902777Y-101591995D01*
X57097248Y-101883041D01*
X57344763Y-102130556D01*
X57436804Y-102192056D01*
X57384574Y-102454636D01*
X57384574Y-102804674D01*
X57452863Y-103147987D01*
X57586817Y-103471380D01*
X57781288Y-103762426D01*
X58028803Y-104009941D01*
X58120845Y-104071442D01*
X58068615Y-104334021D01*
X58068615Y-104684059D01*
X58136904Y-105027372D01*
X58270858Y-105350765D01*
X58465329Y-105641811D01*
X58712844Y-105889326D01*
X59003890Y-106083797D01*
X59327283Y-106217751D01*
X59670596Y-106286040D01*
X59778119Y-106286040D01*
X59715964Y-106598517D01*
X59715964Y-106997801D01*
X59793860Y-107389413D01*
X59946660Y-107758304D01*
X60168490Y-108090296D01*
X60450827Y-108372633D01*
X60782819Y-108594463D01*
X61151710Y-108747263D01*
X61543322Y-108825159D01*
X61942606Y-108825159D01*
X62334218Y-108747263D01*
X62703109Y-108594463D01*
X63035101Y-108372633D01*
X63317438Y-108090296D01*
X63539268Y-107758304D01*
X63692068Y-107389413D01*
X63769964Y-106997801D01*
X63769964Y-106598517D01*
X63692068Y-106206905D01*
X63539268Y-105838014D01*
X63317438Y-105506022D01*
X63035101Y-105223685D01*
X62917770Y-105145287D01*
X63105286Y-104957771D01*
X63299757Y-104666725D01*
X63433711Y-104343332D01*
X63502000Y-104000019D01*
X63502000Y-103649981D01*
X63433711Y-103306668D01*
X63299757Y-102983275D01*
X63105286Y-102692229D01*
X62857771Y-102444714D01*
X62765730Y-102383214D01*
X62817960Y-102120634D01*
X62817960Y-101770596D01*
X62749671Y-101427283D01*
X62615717Y-101103890D01*
X62421246Y-100812844D01*
X62173731Y-100565329D01*
X62081689Y-100503828D01*
X62133919Y-100241249D01*
X62133919Y-99891211D01*
X62065630Y-99547898D01*
X61931676Y-99224505D01*
X61737205Y-98933459D01*
X61489690Y-98685944D01*
X61198644Y-98491473D01*
X60875251Y-98357519D01*
X60531938Y-98289230D01*
X60424415Y-98289230D01*
X60486570Y-97976752D01*
X60486570Y-97577468D01*
X60408674Y-97185856D01*
X60255874Y-96816965D01*
X60034044Y-96484973D01*
X59751707Y-96202636D01*
X59419715Y-95980806D01*
X59050824Y-95828006D01*
X58659212Y-95750110D01*
X58259928Y-95750110D01*
X57868316Y-95828006D01*
X57499425Y-95980806D01*
X57167433Y-96202636D01*
X56885096Y-96484973D01*
X56663266Y-96816965D01*
X56510466Y-97185856D01*
X56432570Y-97577468D01*
X53818237Y-97577468D01*
X53291310Y-95840333D01*
X52452061Y-92929417D01*
X51643791Y-89963805D01*
X50872327Y-86949928D01*
X50143425Y-83894108D01*
X49462299Y-80800154D01*
X49142511Y-79245819D01*
X48836451Y-77682489D01*
X48545385Y-76113559D01*
X48270040Y-74539888D01*
X48011082Y-72962080D01*
X47769256Y-71380957D01*
X47545306Y-69797633D01*
X47339914Y-68212613D01*
X47153814Y-66626840D01*
X46987702Y-65041041D01*
X46842317Y-63456201D01*
X46718328Y-61872880D01*
X46616485Y-60292160D01*
X46537440Y-58714643D01*
X46481964Y-57141219D01*
X46450734Y-55572911D01*
X46444807Y-54010171D01*
X46464162Y-52453841D01*
X46509860Y-50904919D01*
X46582466Y-49364123D01*
X46682811Y-47832357D01*
X46724036Y-47345000D01*
X49838435Y-47345000D01*
X49876606Y-47732560D01*
X49989653Y-48105226D01*
X50173232Y-48448676D01*
X50309730Y-48615000D01*
X50173232Y-48781324D01*
X49989653Y-49124774D01*
X49876606Y-49497440D01*
X49838435Y-49885000D01*
X49876606Y-50272560D01*
X49989653Y-50645226D01*
X50173232Y-50988676D01*
X50309730Y-51155000D01*
X50173232Y-51321324D01*
X49989653Y-51664774D01*
X49876606Y-52037440D01*
X49838435Y-52425000D01*
X49876606Y-52812560D01*
X49989653Y-53185226D01*
X50173232Y-53528676D01*
X50309730Y-53695000D01*
X50173232Y-53861324D01*
X49989653Y-54204774D01*
X49876606Y-54577440D01*
X49838435Y-54965000D01*
X49876606Y-55352560D01*
X49989653Y-55725226D01*
X50173232Y-56068676D01*
X50309730Y-56235000D01*
X50173232Y-56401324D01*
X49989653Y-56744774D01*
X49876606Y-57117440D01*
X49838435Y-57505000D01*
X49876606Y-57892560D01*
X49989653Y-58265226D01*
X50173232Y-58608676D01*
X50420286Y-58909714D01*
X50721324Y-59156768D01*
X51064774Y-59340347D01*
X51437440Y-59453394D01*
X51727884Y-59482000D01*
X51922116Y-59482000D01*
X52212560Y-59453394D01*
X52466775Y-59376279D01*
X57373001Y-64282505D01*
X57373000Y-67774999D01*
X57365613Y-67850000D01*
X57373000Y-67925001D01*
X57373000Y-67925010D01*
X57395095Y-68149343D01*
X57482410Y-68437184D01*
X57523001Y-68513124D01*
X57523000Y-90824999D01*
X57515613Y-90900000D01*
X57523000Y-90975001D01*
X57523000Y-90975010D01*
X57545095Y-91199343D01*
X57632410Y-91487184D01*
X57774203Y-91752459D01*
X57965024Y-91984976D01*
X58023294Y-92032797D01*
X65098001Y-99107506D01*
X65098000Y-109999999D01*
X65090613Y-110075000D01*
X65098000Y-110150001D01*
X65098000Y-110150010D01*
X65120095Y-110374343D01*
X65207410Y-110662184D01*
X65349203Y-110927459D01*
X65540024Y-111159976D01*
X65598294Y-111207797D01*
X70973001Y-116582506D01*
X70973001Y-117296439D01*
X70925524Y-117225385D01*
X70559615Y-116859476D01*
X70129351Y-116571983D01*
X69651268Y-116373954D01*
X69143737Y-116273000D01*
X68626263Y-116273000D01*
X68118732Y-116373954D01*
X67640649Y-116571983D01*
X67210385Y-116859476D01*
X66844476Y-117225385D01*
X66556983Y-117655649D01*
X66358954Y-118133732D01*
X66258000Y-118641263D01*
X66258000Y-119158737D01*
X66358954Y-119666268D01*
X66556983Y-120144351D01*
X66844476Y-120574615D01*
X67210385Y-120940524D01*
X67640649Y-121228017D01*
X68118732Y-121426046D01*
X68626263Y-121527000D01*
X69143737Y-121527000D01*
X69651268Y-121426046D01*
X70129351Y-121228017D01*
X70559615Y-120940524D01*
X70925524Y-120574615D01*
X70973001Y-120503561D01*
X70973000Y-125324999D01*
X70965613Y-125400000D01*
X70973000Y-125475001D01*
X70973000Y-125475010D01*
X70995095Y-125699343D01*
X71082410Y-125987184D01*
X71224203Y-126252459D01*
X71415024Y-126484976D01*
X71473294Y-126532797D01*
X83592207Y-138651711D01*
X83640024Y-138709976D01*
X83872540Y-138900797D01*
X84103417Y-139024204D01*
X84137815Y-139042590D01*
X84425655Y-139129905D01*
X84452955Y-139132594D01*
X84649989Y-139152000D01*
X84649996Y-139152000D01*
X84725000Y-139159387D01*
X84800004Y-139152000D01*
X89667497Y-139152000D01*
X93626313Y-143110816D01*
X93394658Y-143088000D01*
X93205342Y-143088000D01*
X92922242Y-143115883D01*
X92559001Y-143226071D01*
X92224237Y-143405006D01*
X91930813Y-143645813D01*
X91690006Y-143939237D01*
X91511071Y-144274001D01*
X91400883Y-144637242D01*
X91363677Y-145015000D01*
X91400883Y-145392758D01*
X91511071Y-145755999D01*
X91690006Y-146090763D01*
X91930813Y-146384187D01*
X92224237Y-146624994D01*
X92559001Y-146803929D01*
X92922242Y-146914117D01*
X93205342Y-146942000D01*
X93394658Y-146942000D01*
X93677758Y-146914117D01*
X94040999Y-146803929D01*
X94375763Y-146624994D01*
X94669187Y-146384187D01*
X94909994Y-146090763D01*
X95088929Y-145755999D01*
X95199117Y-145392758D01*
X95236323Y-145015000D01*
X95204184Y-144688688D01*
X96973001Y-146457505D01*
X96973000Y-155349999D01*
X96965613Y-155425000D01*
X96973000Y-155500001D01*
X96973000Y-155500010D01*
X96995095Y-155724343D01*
X97082410Y-156012184D01*
X97224203Y-156277459D01*
X97415024Y-156509976D01*
X97473293Y-156557796D01*
X98617207Y-157701711D01*
X98665024Y-157759976D01*
X98897540Y-157950797D01*
X99162815Y-158092590D01*
X99450656Y-158179905D01*
X99674989Y-158202000D01*
X99674999Y-158202000D01*
X99750000Y-158209387D01*
X99825001Y-158202000D01*
X103946038Y-158202000D01*
X103959001Y-158208929D01*
X104322242Y-158319117D01*
X104605342Y-158347000D01*
X105594658Y-158347000D01*
X105877758Y-158319117D01*
X106240999Y-158208929D01*
X106575763Y-158029994D01*
X106869187Y-157789187D01*
X107109994Y-157495763D01*
X107288929Y-157160999D01*
X107399117Y-156797758D01*
X107422800Y-156557303D01*
X108623000Y-157757504D01*
X108623000Y-158679912D01*
X108616097Y-158750000D01*
X108623000Y-158820088D01*
X108623000Y-158820098D01*
X108639044Y-158982983D01*
X108643649Y-159029741D01*
X108725246Y-159298731D01*
X108857753Y-159546634D01*
X109036077Y-159763923D01*
X109170282Y-159874062D01*
X109253367Y-159942248D01*
X109501270Y-160074755D01*
X109770260Y-160156352D01*
X110050000Y-160183904D01*
X110329741Y-160156352D01*
X110598731Y-160074755D01*
X110688074Y-160027000D01*
X112179902Y-160027000D01*
X112250000Y-160033904D01*
X112320097Y-160027000D01*
X112320098Y-160027000D01*
X112529741Y-160006352D01*
X112798731Y-159924755D01*
X113046634Y-159792248D01*
X113088086Y-159758229D01*
X126548000Y-159758229D01*
X126548000Y-160491772D01*
X126582393Y-160840973D01*
X126718313Y-161289040D01*
X126939034Y-161701980D01*
X127236076Y-162063925D01*
X127598021Y-162360966D01*
X128010961Y-162581687D01*
X128459028Y-162717607D01*
X128925000Y-162763501D01*
X129390973Y-162717607D01*
X129839040Y-162581687D01*
X130251980Y-162360966D01*
X130613925Y-162063925D01*
X130910966Y-161701979D01*
X131131687Y-161289039D01*
X131267607Y-160840972D01*
X131302000Y-160491771D01*
X131302000Y-159758229D01*
X131548000Y-159758229D01*
X131548000Y-160491772D01*
X131582393Y-160840973D01*
X131718313Y-161289040D01*
X131939034Y-161701980D01*
X132236076Y-162063925D01*
X132598021Y-162360966D01*
X133010961Y-162581687D01*
X133459028Y-162717607D01*
X133925000Y-162763501D01*
X134390973Y-162717607D01*
X134839040Y-162581687D01*
X135251980Y-162360966D01*
X135613925Y-162063925D01*
X135910966Y-161701979D01*
X136131687Y-161289039D01*
X136267607Y-160840972D01*
X136302000Y-160491771D01*
X136302000Y-159758228D01*
X136267607Y-159409027D01*
X136131687Y-158960960D01*
X135910966Y-158548020D01*
X135639319Y-158217017D01*
X149848000Y-158217017D01*
X149848000Y-158832983D01*
X149968169Y-159437112D01*
X150203889Y-160006190D01*
X150546101Y-160518346D01*
X150981654Y-160953899D01*
X151493810Y-161296111D01*
X152062888Y-161531831D01*
X152667017Y-161652000D01*
X153282983Y-161652000D01*
X153887112Y-161531831D01*
X154456190Y-161296111D01*
X154968346Y-160953899D01*
X155403899Y-160518346D01*
X155746111Y-160006190D01*
X155981831Y-159437112D01*
X156102000Y-158832983D01*
X156102000Y-158217017D01*
X158648000Y-158217017D01*
X158648000Y-158832983D01*
X158768169Y-159437112D01*
X159003889Y-160006190D01*
X159346101Y-160518346D01*
X159781654Y-160953899D01*
X160293810Y-161296111D01*
X160862888Y-161531831D01*
X161467017Y-161652000D01*
X162082983Y-161652000D01*
X162687112Y-161531831D01*
X163256190Y-161296111D01*
X163768346Y-160953899D01*
X164203899Y-160518346D01*
X164546111Y-160006190D01*
X164781831Y-159437112D01*
X164902000Y-158832983D01*
X164902000Y-158217017D01*
X164781831Y-157612888D01*
X164546111Y-157043810D01*
X164203899Y-156531654D01*
X163768346Y-156096101D01*
X163256190Y-155753889D01*
X162687112Y-155518169D01*
X162082983Y-155398000D01*
X161467017Y-155398000D01*
X160862888Y-155518169D01*
X160293810Y-155753889D01*
X159781654Y-156096101D01*
X159346101Y-156531654D01*
X159003889Y-157043810D01*
X158768169Y-157612888D01*
X158648000Y-158217017D01*
X156102000Y-158217017D01*
X155981831Y-157612888D01*
X155746111Y-157043810D01*
X155403899Y-156531654D01*
X154968346Y-156096101D01*
X154456190Y-155753889D01*
X153887112Y-155518169D01*
X153282983Y-155398000D01*
X152667017Y-155398000D01*
X152062888Y-155518169D01*
X151493810Y-155753889D01*
X150981654Y-156096101D01*
X150546101Y-156531654D01*
X150203889Y-157043810D01*
X149968169Y-157612888D01*
X149848000Y-158217017D01*
X135639319Y-158217017D01*
X135613925Y-158186075D01*
X135251979Y-157889034D01*
X134839039Y-157668313D01*
X134390972Y-157532393D01*
X133925000Y-157486499D01*
X133459027Y-157532393D01*
X133010960Y-157668313D01*
X132598020Y-157889034D01*
X132236075Y-158186075D01*
X131939034Y-158548021D01*
X131718313Y-158960961D01*
X131582393Y-159409028D01*
X131548000Y-159758229D01*
X131302000Y-159758229D01*
X131302000Y-159758228D01*
X131267607Y-159409027D01*
X131131687Y-158960960D01*
X130910966Y-158548020D01*
X130613925Y-158186075D01*
X130251979Y-157889034D01*
X129839039Y-157668313D01*
X129390972Y-157532393D01*
X128925000Y-157486499D01*
X128459027Y-157532393D01*
X128010960Y-157668313D01*
X127598020Y-157889034D01*
X127236075Y-158186075D01*
X126939034Y-158548021D01*
X126718313Y-158960961D01*
X126582393Y-159409028D01*
X126548000Y-159758229D01*
X113088086Y-159758229D01*
X113263923Y-159613923D01*
X113442248Y-159396634D01*
X113574755Y-159148731D01*
X113656352Y-158879741D01*
X113683904Y-158600000D01*
X113677000Y-158529902D01*
X113677000Y-158264745D01*
X113860999Y-158208929D01*
X114195763Y-158029994D01*
X114489187Y-157789187D01*
X114729994Y-157495763D01*
X114908929Y-157160999D01*
X115019117Y-156797758D01*
X115056323Y-156420000D01*
X115019117Y-156042242D01*
X114908929Y-155679001D01*
X114729994Y-155344237D01*
X114570588Y-155150000D01*
X114729994Y-154955763D01*
X114908929Y-154620999D01*
X115019117Y-154257758D01*
X115056323Y-153880000D01*
X115019117Y-153502242D01*
X114908929Y-153139001D01*
X114815924Y-152965000D01*
X120813677Y-152965000D01*
X120850883Y-153342758D01*
X120961071Y-153705999D01*
X121140006Y-154040763D01*
X121380813Y-154334187D01*
X121674237Y-154574994D01*
X122009001Y-154753929D01*
X122372242Y-154864117D01*
X122655342Y-154892000D01*
X122844658Y-154892000D01*
X123127758Y-154864117D01*
X123490999Y-154753929D01*
X123825763Y-154574994D01*
X124119187Y-154334187D01*
X124359994Y-154040763D01*
X124538929Y-153705999D01*
X124649117Y-153342758D01*
X124686323Y-152965000D01*
X124649117Y-152587242D01*
X124538929Y-152224001D01*
X124359994Y-151889237D01*
X124119187Y-151595813D01*
X123825763Y-151355006D01*
X123770296Y-151325358D01*
X152848000Y-151325358D01*
X152848000Y-151724642D01*
X152925896Y-152116254D01*
X153078696Y-152485145D01*
X153300526Y-152817137D01*
X153582863Y-153099474D01*
X153914855Y-153321304D01*
X154283746Y-153474104D01*
X154675358Y-153552000D01*
X155074642Y-153552000D01*
X155466254Y-153474104D01*
X155835145Y-153321304D01*
X156125000Y-153127629D01*
X156414855Y-153321304D01*
X156783746Y-153474104D01*
X157175358Y-153552000D01*
X157574642Y-153552000D01*
X157966254Y-153474104D01*
X158335145Y-153321304D01*
X158625000Y-153127629D01*
X158914855Y-153321304D01*
X159283746Y-153474104D01*
X159675358Y-153552000D01*
X160074642Y-153552000D01*
X160466254Y-153474104D01*
X160835145Y-153321304D01*
X161167137Y-153099474D01*
X161449474Y-152817137D01*
X161671304Y-152485145D01*
X161824104Y-152116254D01*
X161902000Y-151724642D01*
X161902000Y-151325358D01*
X161824104Y-150933746D01*
X161671304Y-150564855D01*
X161449474Y-150232863D01*
X161167137Y-149950526D01*
X160835145Y-149728696D01*
X160466254Y-149575896D01*
X160074642Y-149498000D01*
X159675358Y-149498000D01*
X159283746Y-149575896D01*
X158914855Y-149728696D01*
X158625000Y-149922371D01*
X158335145Y-149728696D01*
X157966254Y-149575896D01*
X157574642Y-149498000D01*
X157175358Y-149498000D01*
X156783746Y-149575896D01*
X156414855Y-149728696D01*
X156125000Y-149922371D01*
X155835145Y-149728696D01*
X155466254Y-149575896D01*
X155074642Y-149498000D01*
X154675358Y-149498000D01*
X154283746Y-149575896D01*
X153914855Y-149728696D01*
X153582863Y-149950526D01*
X153300526Y-150232863D01*
X153078696Y-150564855D01*
X152925896Y-150933746D01*
X152848000Y-151325358D01*
X123770296Y-151325358D01*
X123490999Y-151176071D01*
X123127758Y-151065883D01*
X122844658Y-151038000D01*
X122655342Y-151038000D01*
X122372242Y-151065883D01*
X122009001Y-151176071D01*
X121674237Y-151355006D01*
X121380813Y-151595813D01*
X121140006Y-151889237D01*
X120961071Y-152224001D01*
X120850883Y-152587242D01*
X120813677Y-152965000D01*
X114815924Y-152965000D01*
X114729994Y-152804237D01*
X114691258Y-152757037D01*
X114799741Y-152746352D01*
X115068731Y-152664755D01*
X115316634Y-152532248D01*
X115323029Y-152527000D01*
X118254912Y-152527000D01*
X118325000Y-152533903D01*
X118395088Y-152527000D01*
X118395098Y-152527000D01*
X118604741Y-152506352D01*
X118873731Y-152424755D01*
X119121634Y-152292248D01*
X119338923Y-152113923D01*
X119361463Y-152086458D01*
X119388922Y-152063923D01*
X119567248Y-151846634D01*
X119699755Y-151598731D01*
X119781352Y-151329741D01*
X119802000Y-151120098D01*
X119802000Y-151120090D01*
X119808903Y-151050000D01*
X119802000Y-150979910D01*
X119802000Y-146295098D01*
X119803072Y-146284205D01*
X120622882Y-146284205D01*
X120660088Y-146661963D01*
X120770276Y-147025204D01*
X120949211Y-147359968D01*
X121190018Y-147653392D01*
X121483442Y-147894199D01*
X121818206Y-148073134D01*
X122181447Y-148183322D01*
X122464547Y-148211205D01*
X122653863Y-148211205D01*
X122936963Y-148183322D01*
X123300204Y-148073134D01*
X123634968Y-147894199D01*
X123928392Y-147653392D01*
X124169199Y-147359968D01*
X124223579Y-147258229D01*
X126548000Y-147258229D01*
X126548000Y-147991772D01*
X126582393Y-148340973D01*
X126718313Y-148789040D01*
X126939034Y-149201980D01*
X127236076Y-149563925D01*
X127598021Y-149860966D01*
X128010961Y-150081687D01*
X128459028Y-150217607D01*
X128925000Y-150263501D01*
X129390973Y-150217607D01*
X129839040Y-150081687D01*
X130251980Y-149860966D01*
X130613925Y-149563925D01*
X130910966Y-149201979D01*
X131131687Y-148789039D01*
X131267607Y-148340972D01*
X131302000Y-147991771D01*
X131302000Y-147258229D01*
X131548000Y-147258229D01*
X131548000Y-147991772D01*
X131582393Y-148340973D01*
X131718313Y-148789040D01*
X131939034Y-149201980D01*
X132236076Y-149563925D01*
X132598021Y-149860966D01*
X133010961Y-150081687D01*
X133459028Y-150217607D01*
X133925000Y-150263501D01*
X134390973Y-150217607D01*
X134839040Y-150081687D01*
X135251980Y-149860966D01*
X135613925Y-149563925D01*
X135910966Y-149201979D01*
X136131687Y-148789039D01*
X136267607Y-148340972D01*
X136302000Y-147991771D01*
X136302000Y-147258228D01*
X136267607Y-146909027D01*
X136131687Y-146460960D01*
X135910966Y-146048020D01*
X135613925Y-145686075D01*
X135251979Y-145389034D01*
X134839039Y-145168313D01*
X134390972Y-145032393D01*
X133925000Y-144986499D01*
X133459027Y-145032393D01*
X133010960Y-145168313D01*
X132598020Y-145389034D01*
X132236075Y-145686075D01*
X131939034Y-146048021D01*
X131718313Y-146460961D01*
X131582393Y-146909028D01*
X131548000Y-147258229D01*
X131302000Y-147258229D01*
X131302000Y-147258228D01*
X131267607Y-146909027D01*
X131131687Y-146460960D01*
X130910966Y-146048020D01*
X130613925Y-145686075D01*
X130251979Y-145389034D01*
X129839039Y-145168313D01*
X129390972Y-145032393D01*
X128925000Y-144986499D01*
X128459027Y-145032393D01*
X128010960Y-145168313D01*
X127598020Y-145389034D01*
X127236075Y-145686075D01*
X126939034Y-146048021D01*
X126718313Y-146460961D01*
X126582393Y-146909028D01*
X126548000Y-147258229D01*
X124223579Y-147258229D01*
X124348134Y-147025204D01*
X124458322Y-146661963D01*
X124495528Y-146284205D01*
X124458322Y-145906447D01*
X124348134Y-145543206D01*
X124169199Y-145208442D01*
X123928392Y-144915018D01*
X123634968Y-144674211D01*
X123300204Y-144495276D01*
X122936963Y-144385088D01*
X122653863Y-144357205D01*
X122464547Y-144357205D01*
X122181447Y-144385088D01*
X121818206Y-144495276D01*
X121483442Y-144674211D01*
X121190018Y-144915018D01*
X120949211Y-145208442D01*
X120770276Y-145543206D01*
X120660088Y-145906447D01*
X120622882Y-146284205D01*
X119803072Y-146284205D01*
X119808904Y-146225000D01*
X119781352Y-145945259D01*
X119699755Y-145676269D01*
X119567248Y-145428366D01*
X119388923Y-145211077D01*
X119171634Y-145032752D01*
X118923731Y-144900245D01*
X118654741Y-144818648D01*
X118445098Y-144798000D01*
X118375000Y-144791096D01*
X118304903Y-144798000D01*
X115191083Y-144798000D01*
X110583607Y-140190525D01*
X110538923Y-140136077D01*
X110321634Y-139957752D01*
X110073731Y-139825245D01*
X109804741Y-139743648D01*
X109618375Y-139725293D01*
X108803289Y-138910207D01*
X113448000Y-138910207D01*
X113448000Y-139289793D01*
X113522053Y-139662085D01*
X113667315Y-140012777D01*
X113878201Y-140328391D01*
X114146609Y-140596799D01*
X114462223Y-140807685D01*
X114812915Y-140952947D01*
X115185207Y-141027000D01*
X115564793Y-141027000D01*
X115937085Y-140952947D01*
X116287777Y-140807685D01*
X116603391Y-140596799D01*
X116871799Y-140328391D01*
X117082685Y-140012777D01*
X117227947Y-139662085D01*
X117302000Y-139289793D01*
X117302000Y-138910207D01*
X117227947Y-138537915D01*
X117082685Y-138187223D01*
X116871799Y-137871609D01*
X116603391Y-137603201D01*
X116287777Y-137392315D01*
X115937085Y-137247053D01*
X115564793Y-137173000D01*
X115185207Y-137173000D01*
X114812915Y-137247053D01*
X114462223Y-137392315D01*
X114146609Y-137603201D01*
X113878201Y-137871609D01*
X113667315Y-138187223D01*
X113522053Y-138537915D01*
X113448000Y-138910207D01*
X108803289Y-138910207D01*
X107808607Y-137915525D01*
X107763923Y-137861077D01*
X107546634Y-137682752D01*
X107298731Y-137550245D01*
X107029741Y-137468648D01*
X106820098Y-137448000D01*
X106820088Y-137448000D01*
X106750000Y-137441097D01*
X106679912Y-137448000D01*
X104566083Y-137448000D01*
X94508607Y-127390525D01*
X94463923Y-127336077D01*
X94246634Y-127157752D01*
X93998731Y-127025245D01*
X93729741Y-126943648D01*
X93520098Y-126923000D01*
X93520088Y-126923000D01*
X93450000Y-126916097D01*
X93379912Y-126923000D01*
X88291083Y-126923000D01*
X81702000Y-120333918D01*
X81702000Y-109220088D01*
X81708903Y-109150000D01*
X81702000Y-109079912D01*
X81702000Y-109079902D01*
X81681352Y-108870259D01*
X81599755Y-108601269D01*
X81467248Y-108353366D01*
X81403589Y-108275797D01*
X81333608Y-108190525D01*
X81333605Y-108190522D01*
X81288923Y-108136077D01*
X81234478Y-108091395D01*
X78977000Y-105833918D01*
X78977000Y-101523785D01*
X78982678Y-101534407D01*
X79082753Y-101721634D01*
X79216392Y-101884474D01*
X79216395Y-101884477D01*
X79261077Y-101938922D01*
X79315523Y-101983605D01*
X87948001Y-110616083D01*
X87948000Y-116267547D01*
X87875000Y-116267547D01*
X87654069Y-116289307D01*
X87441629Y-116353750D01*
X87245843Y-116458400D01*
X87074235Y-116599235D01*
X86933400Y-116770843D01*
X86828750Y-116966629D01*
X86764307Y-117179069D01*
X86742547Y-117400000D01*
X86742547Y-120400000D01*
X86764307Y-120620931D01*
X86828750Y-120833371D01*
X86933400Y-121029157D01*
X87074235Y-121200765D01*
X87245843Y-121341600D01*
X87441629Y-121446250D01*
X87654069Y-121510693D01*
X87875000Y-121532453D01*
X90875000Y-121532453D01*
X91095931Y-121510693D01*
X91308371Y-121446250D01*
X91504157Y-121341600D01*
X91675765Y-121200765D01*
X91816600Y-121029157D01*
X91921250Y-120833371D01*
X91985693Y-120620931D01*
X92007453Y-120400000D01*
X92007453Y-117400000D01*
X91985693Y-117179069D01*
X91921250Y-116966629D01*
X91816600Y-116770843D01*
X91675765Y-116599235D01*
X91504157Y-116458400D01*
X91308371Y-116353750D01*
X91095931Y-116289307D01*
X90875000Y-116267547D01*
X90802000Y-116267547D01*
X90802000Y-110095087D01*
X90808903Y-110024999D01*
X90802000Y-109954911D01*
X90802000Y-109954902D01*
X90781352Y-109745259D01*
X90699755Y-109476269D01*
X90567248Y-109228366D01*
X90388923Y-109011077D01*
X90334472Y-108966390D01*
X81702000Y-100333918D01*
X81702000Y-93925000D01*
X82773677Y-93925000D01*
X82810883Y-94302758D01*
X82921071Y-94665999D01*
X83100006Y-95000763D01*
X83340813Y-95294187D01*
X83634237Y-95534994D01*
X83969001Y-95713929D01*
X84332242Y-95824117D01*
X84615342Y-95852000D01*
X84804658Y-95852000D01*
X85087758Y-95824117D01*
X85450999Y-95713929D01*
X85785763Y-95534994D01*
X86079187Y-95294187D01*
X86319994Y-95000763D01*
X86498929Y-94665999D01*
X86609117Y-94302758D01*
X86646323Y-93925000D01*
X86609117Y-93547242D01*
X86597883Y-93510207D01*
X127048000Y-93510207D01*
X127048000Y-93889793D01*
X127122053Y-94262085D01*
X127267315Y-94612777D01*
X127478201Y-94928391D01*
X127746609Y-95196799D01*
X128062223Y-95407685D01*
X128412915Y-95552947D01*
X128785207Y-95627000D01*
X129164793Y-95627000D01*
X129537085Y-95552947D01*
X129887777Y-95407685D01*
X130203391Y-95196799D01*
X130471799Y-94928391D01*
X130682685Y-94612777D01*
X130827947Y-94262085D01*
X130902000Y-93889793D01*
X130902000Y-93700000D01*
X137198677Y-93700000D01*
X137235883Y-94077758D01*
X137346071Y-94440999D01*
X137525006Y-94775763D01*
X137765813Y-95069187D01*
X138059237Y-95309994D01*
X138394001Y-95488929D01*
X138757242Y-95599117D01*
X139040342Y-95627000D01*
X139229658Y-95627000D01*
X139512758Y-95599117D01*
X139875999Y-95488929D01*
X140210763Y-95309994D01*
X140504187Y-95069187D01*
X140744994Y-94775763D01*
X140923929Y-94440999D01*
X141034117Y-94077758D01*
X141071323Y-93700000D01*
X141034117Y-93322242D01*
X140923929Y-92959001D01*
X140744994Y-92624237D01*
X140504187Y-92330813D01*
X140210763Y-92090006D01*
X139875999Y-91911071D01*
X139512758Y-91800883D01*
X139229658Y-91773000D01*
X139040342Y-91773000D01*
X138757242Y-91800883D01*
X138394001Y-91911071D01*
X138059237Y-92090006D01*
X137765813Y-92330813D01*
X137525006Y-92624237D01*
X137346071Y-92959001D01*
X137235883Y-93322242D01*
X137198677Y-93700000D01*
X130902000Y-93700000D01*
X130902000Y-93510207D01*
X130827947Y-93137915D01*
X130682685Y-92787223D01*
X130471799Y-92471609D01*
X130203391Y-92203201D01*
X129887777Y-91992315D01*
X129537085Y-91847053D01*
X129164793Y-91773000D01*
X128785207Y-91773000D01*
X128412915Y-91847053D01*
X128062223Y-91992315D01*
X127746609Y-92203201D01*
X127478201Y-92471609D01*
X127267315Y-92787223D01*
X127122053Y-93137915D01*
X127048000Y-93510207D01*
X86597883Y-93510207D01*
X86498929Y-93184001D01*
X86319994Y-92849237D01*
X86079187Y-92555813D01*
X85785763Y-92315006D01*
X85450999Y-92136071D01*
X85087758Y-92025883D01*
X84804658Y-91998000D01*
X84615342Y-91998000D01*
X84332242Y-92025883D01*
X83969001Y-92136071D01*
X83634237Y-92315006D01*
X83340813Y-92555813D01*
X83100006Y-92849237D01*
X82921071Y-93184001D01*
X82810883Y-93547242D01*
X82773677Y-93925000D01*
X81702000Y-93925000D01*
X81702000Y-91845087D01*
X81708903Y-91774999D01*
X81702000Y-91704911D01*
X81702000Y-91704902D01*
X81681352Y-91495259D01*
X81599755Y-91226269D01*
X81467248Y-90978366D01*
X81288923Y-90761077D01*
X81234472Y-90716390D01*
X78518082Y-88000000D01*
X89767547Y-88000000D01*
X89767547Y-89800000D01*
X89789307Y-90020931D01*
X89853750Y-90233371D01*
X89958400Y-90429157D01*
X90002459Y-90482842D01*
X89850896Y-90848746D01*
X89773000Y-91240358D01*
X89773000Y-91639642D01*
X89850896Y-92031254D01*
X90003696Y-92400145D01*
X90225526Y-92732137D01*
X90507863Y-93014474D01*
X90839855Y-93236304D01*
X91208746Y-93389104D01*
X91600358Y-93467000D01*
X91999642Y-93467000D01*
X92391254Y-93389104D01*
X92760145Y-93236304D01*
X93092137Y-93014474D01*
X93374474Y-92732137D01*
X93596304Y-92400145D01*
X93749104Y-92031254D01*
X93827000Y-91639642D01*
X93827000Y-91240358D01*
X93749104Y-90848746D01*
X93597541Y-90482842D01*
X93641600Y-90429157D01*
X93746250Y-90233371D01*
X93810693Y-90020931D01*
X93832453Y-89800000D01*
X93832453Y-88000000D01*
X93829991Y-87975000D01*
X120817547Y-87975000D01*
X120817547Y-89775000D01*
X120839307Y-89995931D01*
X120903750Y-90208371D01*
X121008400Y-90404157D01*
X121052459Y-90457842D01*
X120900896Y-90823746D01*
X120823000Y-91215358D01*
X120823000Y-91614642D01*
X120900896Y-92006254D01*
X121053696Y-92375145D01*
X121275526Y-92707137D01*
X121557863Y-92989474D01*
X121889855Y-93211304D01*
X122258746Y-93364104D01*
X122650358Y-93442000D01*
X123049642Y-93442000D01*
X123441254Y-93364104D01*
X123810145Y-93211304D01*
X124142137Y-92989474D01*
X124424474Y-92707137D01*
X124646304Y-92375145D01*
X124799104Y-92006254D01*
X124877000Y-91614642D01*
X124877000Y-91215358D01*
X124799104Y-90823746D01*
X124647541Y-90457842D01*
X124691600Y-90404157D01*
X124796250Y-90208371D01*
X124860693Y-89995931D01*
X124882453Y-89775000D01*
X124882453Y-87975000D01*
X124860693Y-87754069D01*
X124796250Y-87541629D01*
X124691600Y-87345843D01*
X124550765Y-87174235D01*
X124379157Y-87033400D01*
X124183371Y-86928750D01*
X123970931Y-86864307D01*
X123750000Y-86842547D01*
X121950000Y-86842547D01*
X121729069Y-86864307D01*
X121516629Y-86928750D01*
X121320843Y-87033400D01*
X121149235Y-87174235D01*
X121008400Y-87345843D01*
X120903750Y-87541629D01*
X120839307Y-87754069D01*
X120817547Y-87975000D01*
X93829991Y-87975000D01*
X93810693Y-87779069D01*
X93746250Y-87566629D01*
X93641600Y-87370843D01*
X93500765Y-87199235D01*
X93329157Y-87058400D01*
X93133371Y-86953750D01*
X92920931Y-86889307D01*
X92700000Y-86867547D01*
X90900000Y-86867547D01*
X90679069Y-86889307D01*
X90466629Y-86953750D01*
X90270843Y-87058400D01*
X90099235Y-87199235D01*
X89958400Y-87370843D01*
X89853750Y-87566629D01*
X89789307Y-87779069D01*
X89767547Y-88000000D01*
X78518082Y-88000000D01*
X69577000Y-79058918D01*
X69577000Y-55095090D01*
X69583903Y-55025000D01*
X69577000Y-54954910D01*
X69577000Y-54954902D01*
X69556352Y-54745259D01*
X69474755Y-54476269D01*
X69373172Y-54286220D01*
X69342248Y-54228365D01*
X69208608Y-54065525D01*
X69208605Y-54065522D01*
X69163923Y-54011077D01*
X69109478Y-53966395D01*
X58983608Y-43840526D01*
X58951542Y-43801453D01*
X62581000Y-43801453D01*
X62581000Y-44082547D01*
X62635838Y-44358241D01*
X62743409Y-44617938D01*
X62899576Y-44851660D01*
X63098340Y-45050424D01*
X63332062Y-45206591D01*
X63591759Y-45314162D01*
X63867453Y-45369000D01*
X64148547Y-45369000D01*
X64424241Y-45314162D01*
X64683938Y-45206591D01*
X64917660Y-45050424D01*
X65116424Y-44851660D01*
X65272591Y-44617938D01*
X65380162Y-44358241D01*
X65424388Y-44135896D01*
X65526591Y-43982938D01*
X65634162Y-43723241D01*
X65689000Y-43447547D01*
X65689000Y-43166453D01*
X65634162Y-42890759D01*
X65526591Y-42631062D01*
X65370424Y-42397340D01*
X65171660Y-42198576D01*
X64937938Y-42042409D01*
X64678241Y-41934838D01*
X64402547Y-41880000D01*
X64121453Y-41880000D01*
X63845759Y-41934838D01*
X63586062Y-42042409D01*
X63352340Y-42198576D01*
X63153576Y-42397340D01*
X62997409Y-42631062D01*
X62889838Y-42890759D01*
X62845612Y-43113104D01*
X62743409Y-43266062D01*
X62635838Y-43525759D01*
X62581000Y-43801453D01*
X58951542Y-43801453D01*
X58938923Y-43786077D01*
X58721634Y-43607752D01*
X58473731Y-43475245D01*
X58204741Y-43393648D01*
X57995098Y-43373000D01*
X57995088Y-43373000D01*
X57925000Y-43366097D01*
X57854912Y-43373000D01*
X53641806Y-43373000D01*
X53616600Y-43325843D01*
X53475765Y-43154235D01*
X53304157Y-43013400D01*
X53108371Y-42908750D01*
X52895931Y-42844307D01*
X52675000Y-42822547D01*
X50975000Y-42822547D01*
X50754069Y-42844307D01*
X50541629Y-42908750D01*
X50345843Y-43013400D01*
X50174235Y-43154235D01*
X50033400Y-43325843D01*
X49928750Y-43521629D01*
X49864307Y-43734069D01*
X49842547Y-43955000D01*
X49842547Y-45655000D01*
X49864307Y-45875931D01*
X49928750Y-46088371D01*
X50033400Y-46284157D01*
X50104215Y-46370445D01*
X49989653Y-46584774D01*
X49876606Y-46957440D01*
X49838435Y-47345000D01*
X46724036Y-47345000D01*
X46811557Y-46310354D01*
X46969352Y-44798932D01*
X47156896Y-43298886D01*
X47374861Y-41810978D01*
X47623913Y-40336102D01*
X47904723Y-38874924D01*
X48217950Y-37428282D01*
X48564263Y-35996975D01*
X48944314Y-34581807D01*
X49358784Y-33183433D01*
X49808322Y-31802658D01*
X50293603Y-30440197D01*
X50815260Y-29096845D01*
X51373983Y-27773287D01*
X51970444Y-26470246D01*
X52605340Y-25188370D01*
X53279321Y-23928429D01*
X53993128Y-22691026D01*
X54747441Y-21476895D01*
X55543011Y-20286655D01*
X55894535Y-19797414D01*
X107382000Y-19797414D01*
X107382000Y-20334586D01*
X107486797Y-20861437D01*
X107692364Y-21357719D01*
X107990801Y-21804361D01*
X108370639Y-22184199D01*
X108817281Y-22482636D01*
X109313563Y-22688203D01*
X109840414Y-22793000D01*
X110377586Y-22793000D01*
X110904437Y-22688203D01*
X111400719Y-22482636D01*
X111847361Y-22184199D01*
X112227199Y-21804361D01*
X112525636Y-21357719D01*
X112731203Y-20861437D01*
X112836000Y-20334586D01*
X112836000Y-19797414D01*
X112731203Y-19270563D01*
X112525636Y-18774281D01*
X112227199Y-18327639D01*
X111847361Y-17947801D01*
X111400719Y-17649364D01*
X110904437Y-17443797D01*
X110377586Y-17339000D01*
X109840414Y-17339000D01*
X109313563Y-17443797D01*
X108817281Y-17649364D01*
X108370639Y-17947801D01*
X107990801Y-18327639D01*
X107692364Y-18774281D01*
X107486797Y-19270563D01*
X107382000Y-19797414D01*
X55894535Y-19797414D01*
X56380548Y-19120997D01*
X57260850Y-17980523D01*
X58184650Y-16865949D01*
X59152753Y-15777900D01*
X60165960Y-14717040D01*
X61225122Y-13684008D01*
X62331027Y-12679514D01*
X63484557Y-11704224D01*
X64686554Y-10758846D01*
X65937858Y-9844110D01*
X67239381Y-8960725D01*
X68591954Y-8109453D01*
X69996492Y-7291039D01*
X71453841Y-6506270D01*
X72964851Y-5755956D01*
X74530379Y-5040904D01*
X76151261Y-4361931D01*
X77828337Y-3719872D01*
X79562500Y-3115545D01*
X81354015Y-2549839D01*
X83204489Y-2023620D01*
X85114495Y-1537684D01*
X87084681Y-1092930D01*
X89115815Y-690218D01*
X91208709Y-330397D01*
X93364043Y-14344D01*
X95582627Y257096D01*
X97865147Y483060D01*
X100212297Y662691D01*
X102624899Y795149D01*
X105103618Y879580D01*
X107649185Y915142D01*
X110263313Y900990D01*
X110263313Y900990D01*
G37*
X110263313Y900990D02*
X112853801Y843013D01*
X115379505Y747277D01*
X117839714Y614376D01*
X120235290Y444862D01*
X122566880Y239296D01*
X124835096Y-1747D01*
X127040712Y-277710D01*
X129184330Y-588008D01*
X131266624Y-932063D01*
X133288406Y-1309317D01*
X135250242Y-1719165D01*
X137152912Y-2161037D01*
X138997044Y-2634329D01*
X140783459Y-3138479D01*
X142512803Y-3672874D01*
X144185800Y-4236922D01*
X145803254Y-4830057D01*
X147365832Y-5451663D01*
X148874343Y-6101164D01*
X150329475Y-6777950D01*
X151732137Y-7481501D01*
X153083020Y-8211199D01*
X154382967Y-8966505D01*
X155632774Y-9746863D01*
X156833282Y-10551749D01*
X157985265Y-11380606D01*
X159089622Y-12232971D01*
X160147115Y-13108303D01*
X161158631Y-14006172D01*
X162124991Y-14926099D01*
X163046993Y-15867626D01*
X163925533Y-16830396D01*
X164761361Y-17813929D01*
X165555251Y-18817812D01*
X166308055Y-19841725D01*
X167020492Y-20885227D01*
X167693338Y-21947971D01*
X168327336Y-23029591D01*
X168923175Y-24129654D01*
X169481564Y-25247820D01*
X170003197Y-26383666D01*
X170371007Y-27257222D01*
X169938883Y-26479398D01*
X169926281Y-26461168D01*
X169916706Y-26441188D01*
X169908094Y-26427192D01*
X169273094Y-25411191D01*
X169266837Y-25403067D01*
X169262116Y-25393960D01*
X169196809Y-25312152D01*
X169132920Y-25229207D01*
X169125199Y-25222449D01*
X169118803Y-25214437D01*
X169107265Y-25202735D01*
X168218265Y-24313735D01*
X168174250Y-24277580D01*
X168134026Y-24237273D01*
X168121266Y-24226918D01*
X167486266Y-23718917D01*
X167423176Y-23677853D01*
X167363003Y-23632624D01*
X167327126Y-23615334D01*
X167293745Y-23593607D01*
X167223875Y-23565576D01*
X167156068Y-23532899D01*
X167117521Y-23522908D01*
X167080552Y-23508077D01*
X167006569Y-23494152D01*
X166933705Y-23475267D01*
X166917453Y-23472830D01*
X166028453Y-23345829D01*
X165949147Y-23342325D01*
X165870217Y-23334029D01*
X165834651Y-23337266D01*
X165798967Y-23335689D01*
X165720497Y-23347654D01*
X165641452Y-23354848D01*
X165607190Y-23364932D01*
X165571881Y-23370316D01*
X165497227Y-23397296D01*
X165421088Y-23419705D01*
X165389439Y-23436250D01*
X165355846Y-23448391D01*
X165287858Y-23489356D01*
X165217518Y-23526128D01*
X165189682Y-23548509D01*
X165159092Y-23566940D01*
X165100356Y-23620329D01*
X165038496Y-23670066D01*
X165015539Y-23697425D01*
X164989109Y-23721449D01*
X164941860Y-23785232D01*
X164890841Y-23846034D01*
X164873636Y-23877330D01*
X164852375Y-23906031D01*
X164818414Y-23977779D01*
X164780178Y-24047330D01*
X164769379Y-24081373D01*
X164754098Y-24113656D01*
X164734721Y-24190626D01*
X164710720Y-24266288D01*
X164706739Y-24301784D01*
X164698020Y-24336417D01*
X164693963Y-24415686D01*
X164685115Y-24494567D01*
X164685000Y-24511000D01*
X164685000Y-24736074D01*
X164192630Y-24982259D01*
X164135708Y-25018056D01*
X164076068Y-25049116D01*
X164038705Y-25079060D01*
X163998176Y-25104548D01*
X163949294Y-25150717D01*
X163896819Y-25192772D01*
X163865984Y-25229403D01*
X163831178Y-25262277D01*
X163792190Y-25317068D01*
X163748888Y-25368509D01*
X163739677Y-25382118D01*
X163485677Y-25763118D01*
X163435025Y-25858020D01*
X163383178Y-25952330D01*
X163380964Y-25959310D01*
X163377516Y-25965770D01*
X163346251Y-26068738D01*
X163313720Y-26171288D01*
X163312904Y-26178562D01*
X163310776Y-26185571D01*
X163300108Y-26292649D01*
X163288115Y-26399567D01*
X163288014Y-26414032D01*
X163288002Y-26414150D01*
X163288012Y-26414256D01*
X163288000Y-26416000D01*
X163288000Y-26924000D01*
X163294652Y-26991840D01*
X163295883Y-27059994D01*
X163305834Y-27105883D01*
X163310416Y-27152614D01*
X163330119Y-27217875D01*
X163344564Y-27284487D01*
X163363236Y-27327563D01*
X163376809Y-27372520D01*
X163408813Y-27432710D01*
X163435921Y-27495249D01*
X163462608Y-27533884D01*
X163484652Y-27575342D01*
X163527733Y-27628165D01*
X163566475Y-27684251D01*
X163600158Y-27716967D01*
X163629835Y-27753354D01*
X163682353Y-27796801D01*
X163731255Y-27844298D01*
X163770654Y-27869850D01*
X163806830Y-27899777D01*
X163866791Y-27932198D01*
X163923983Y-27969289D01*
X163938630Y-27976741D01*
X164335928Y-28175391D01*
X164212142Y-28670536D01*
X164209064Y-28691289D01*
X164202720Y-28711288D01*
X164192238Y-28804741D01*
X164178442Y-28897760D01*
X164179454Y-28918717D01*
X164177115Y-28939567D01*
X164177000Y-28956000D01*
X164177000Y-29591000D01*
X164187701Y-29700136D01*
X164189130Y-29716183D01*
X162996609Y-29065717D01*
X162945414Y-29043975D01*
X162896670Y-29017178D01*
X162839944Y-28999183D01*
X162785176Y-28975924D01*
X162730735Y-28964540D01*
X162677712Y-28947720D01*
X162618578Y-28941087D01*
X162560329Y-28928907D01*
X162504703Y-28928314D01*
X162449433Y-28922115D01*
X162433000Y-28922000D01*
X160655000Y-28922000D01*
X160621649Y-28925270D01*
X160588168Y-28923899D01*
X160507568Y-28936456D01*
X160426386Y-28944416D01*
X160394306Y-28954102D01*
X160361195Y-28959260D01*
X160345311Y-28963473D01*
X158948311Y-29344473D01*
X158886529Y-29368010D01*
X158822997Y-29386335D01*
X158779443Y-29408805D01*
X158733650Y-29426251D01*
X158677608Y-29461345D01*
X158618855Y-29491657D01*
X158605118Y-29500677D01*
X157462118Y-30262677D01*
X157445006Y-30276678D01*
X157425902Y-30287813D01*
X157356238Y-30349308D01*
X157284334Y-30408140D01*
X157270269Y-30425197D01*
X157253689Y-30439832D01*
X157197302Y-30513680D01*
X157138189Y-30585364D01*
X157127701Y-30604834D01*
X157114284Y-30622406D01*
X157105731Y-30636438D01*
X156343731Y-31906438D01*
X156296103Y-32006906D01*
X156247899Y-32106932D01*
X156246952Y-32110588D01*
X156245331Y-32114006D01*
X156218120Y-32221831D01*
X156190267Y-32329295D01*
X156189195Y-32336443D01*
X156189122Y-32336733D01*
X156189106Y-32337035D01*
X156187830Y-32345547D01*
X156060829Y-33234547D01*
X156060735Y-33236663D01*
X156060241Y-33238719D01*
X156058089Y-33255011D01*
X155931089Y-34271011D01*
X155928074Y-34384277D01*
X155924789Y-34497984D01*
X155925011Y-34499307D01*
X155924976Y-34500640D01*
X155944030Y-34612405D01*
X155962882Y-34724514D01*
X155963554Y-34726929D01*
X155963580Y-34727083D01*
X155963641Y-34727244D01*
X155967286Y-34740347D01*
X156221286Y-35629347D01*
X156258282Y-35723049D01*
X156293013Y-35817621D01*
X156300259Y-35832370D01*
X156632337Y-36496527D01*
X156685260Y-36681756D01*
X156448804Y-36965503D01*
X156417565Y-37011459D01*
X156381841Y-37054034D01*
X156353148Y-37106227D01*
X156319669Y-37155479D01*
X156297950Y-37206632D01*
X156271178Y-37255330D01*
X156253170Y-37312097D01*
X156229893Y-37366920D01*
X156218524Y-37421317D01*
X156201720Y-37474288D01*
X156195081Y-37533477D01*
X156193090Y-37543001D01*
X152341448Y-37543001D01*
X152292285Y-37502654D01*
X152009638Y-37351576D01*
X151702947Y-37258543D01*
X151384000Y-37227129D01*
X151065053Y-37258543D01*
X150758362Y-37351576D01*
X150475715Y-37502654D01*
X150227971Y-37705971D01*
X150024654Y-37953715D01*
X149873576Y-38236362D01*
X149780543Y-38543053D01*
X149749129Y-38862000D01*
X149780543Y-39180947D01*
X149873576Y-39487638D01*
X150024654Y-39770285D01*
X150177022Y-39955947D01*
X150798053Y-40576977D01*
X150983714Y-40729345D01*
X151266361Y-40880424D01*
X151573052Y-40973457D01*
X151891999Y-41004871D01*
X152210947Y-40973457D01*
X152517638Y-40880424D01*
X152800285Y-40729345D01*
X152961547Y-40597001D01*
X156815998Y-40597001D01*
X156890999Y-40604388D01*
X156938000Y-40599759D01*
X156938000Y-40640000D01*
X156939346Y-40653726D01*
X156938321Y-40667477D01*
X156950541Y-40767904D01*
X156960416Y-40868614D01*
X156964403Y-40881818D01*
X156966068Y-40895505D01*
X156997561Y-40991646D01*
X157026809Y-41088520D01*
X157033283Y-41100696D01*
X157037576Y-41113801D01*
X157087150Y-41202005D01*
X157134652Y-41291342D01*
X157143368Y-41302029D01*
X157150125Y-41314051D01*
X157215894Y-41390954D01*
X157279835Y-41469354D01*
X157290458Y-41478142D01*
X157299424Y-41488626D01*
X157378891Y-41551301D01*
X157456830Y-41615777D01*
X157468958Y-41622335D01*
X157479788Y-41630876D01*
X157569899Y-41676913D01*
X157658894Y-41725033D01*
X157672067Y-41729111D01*
X157684348Y-41735385D01*
X157781677Y-41763041D01*
X157878331Y-41792960D01*
X157892046Y-41794401D01*
X157905312Y-41798171D01*
X157921502Y-41800986D01*
X158539074Y-41903914D01*
X158611856Y-42267828D01*
X158643759Y-42372767D01*
X158674705Y-42477912D01*
X158677141Y-42482573D01*
X158678672Y-42487607D01*
X158730325Y-42584304D01*
X158781128Y-42681482D01*
X158784426Y-42685584D01*
X158786903Y-42690221D01*
X158856340Y-42775027D01*
X158925066Y-42860504D01*
X158929096Y-42863886D01*
X158932428Y-42867955D01*
X159016994Y-42937641D01*
X159101034Y-43008159D01*
X159105648Y-43010696D01*
X159109703Y-43014037D01*
X159206146Y-43065944D01*
X159302330Y-43118822D01*
X159307349Y-43120414D01*
X159311977Y-43122905D01*
X159416710Y-43155106D01*
X159521288Y-43188280D01*
X159526517Y-43188867D01*
X159531544Y-43190412D01*
X159640562Y-43201658D01*
X159749567Y-43213885D01*
X159759774Y-43213956D01*
X159760041Y-43213984D01*
X159760298Y-43213960D01*
X159766000Y-43214000D01*
X160528000Y-43214000D01*
X160575029Y-43209389D01*
X160622280Y-43210218D01*
X160689077Y-43198206D01*
X160756614Y-43191584D01*
X160801851Y-43177926D01*
X160848364Y-43169562D01*
X160911552Y-43144806D01*
X160976520Y-43125191D01*
X161018246Y-43103005D01*
X161062244Y-43085767D01*
X161119420Y-43049209D01*
X161179342Y-43017348D01*
X161215963Y-42987481D01*
X161255777Y-42962024D01*
X161304764Y-42915056D01*
X161357354Y-42872165D01*
X161387476Y-42835754D01*
X161421588Y-42803048D01*
X161432196Y-42790497D01*
X161887576Y-42244042D01*
X161917960Y-42253744D01*
X161994133Y-42282931D01*
X162027160Y-42288615D01*
X162059080Y-42298808D01*
X162075171Y-42302143D01*
X162710171Y-42429143D01*
X162779117Y-42436037D01*
X162847322Y-42448266D01*
X162893140Y-42447438D01*
X162938741Y-42451998D01*
X163007717Y-42445368D01*
X163076994Y-42444117D01*
X163121778Y-42434406D01*
X163167398Y-42430021D01*
X163233776Y-42410119D01*
X163301487Y-42395436D01*
X163343532Y-42377211D01*
X163387431Y-42364049D01*
X163448672Y-42331637D01*
X163512249Y-42304079D01*
X163549959Y-42278031D01*
X163590459Y-42256596D01*
X163644233Y-42212910D01*
X163701251Y-42173525D01*
X163733185Y-42140647D01*
X163768750Y-42111754D01*
X163813013Y-42058458D01*
X163861298Y-42008745D01*
X163886238Y-41970289D01*
X163915512Y-41935041D01*
X163948582Y-41874159D01*
X163986289Y-41816017D01*
X163993741Y-41801370D01*
X164247741Y-41293371D01*
X164286628Y-41191879D01*
X164326603Y-41090735D01*
X164327718Y-41084641D01*
X164329930Y-41078867D01*
X164348365Y-40971754D01*
X164367932Y-40864774D01*
X164367842Y-40858588D01*
X164368892Y-40852486D01*
X164366169Y-40743800D01*
X164364585Y-40635088D01*
X164363294Y-40629032D01*
X164363139Y-40622847D01*
X164339360Y-40516770D01*
X164316688Y-40410426D01*
X164312943Y-40398926D01*
X164312893Y-40398701D01*
X164312806Y-40398505D01*
X164311600Y-40394800D01*
X164057600Y-39632800D01*
X164051009Y-39618020D01*
X164046981Y-39602339D01*
X164004276Y-39513230D01*
X163964040Y-39423006D01*
X163954701Y-39409784D01*
X163947706Y-39395188D01*
X163939094Y-39381192D01*
X163304094Y-38365191D01*
X163278574Y-38332059D01*
X163257368Y-38296015D01*
X163247600Y-38282800D01*
X162493814Y-37277752D01*
X161984885Y-36565253D01*
X161850403Y-36094563D01*
X161935593Y-35327847D01*
X162102771Y-34882041D01*
X162394482Y-34736185D01*
X162957058Y-34798694D01*
X163784065Y-35258143D01*
X164705940Y-36064783D01*
X164751038Y-36097054D01*
X164792638Y-36133718D01*
X164806035Y-36143236D01*
X166076035Y-37032236D01*
X166116875Y-37055240D01*
X166154779Y-37082815D01*
X166216715Y-37111479D01*
X166276178Y-37144974D01*
X166320709Y-37159608D01*
X166363247Y-37179295D01*
X166378800Y-37184600D01*
X167521800Y-37565600D01*
X167585167Y-37580037D01*
X167647080Y-37599808D01*
X167663171Y-37603143D01*
X168298171Y-37730143D01*
X168339686Y-37734294D01*
X168380370Y-37743578D01*
X168453725Y-37745697D01*
X168526741Y-37752998D01*
X168568274Y-37749006D01*
X168609984Y-37750211D01*
X168682352Y-37738042D01*
X168755398Y-37731021D01*
X168795367Y-37719037D01*
X168836514Y-37712118D01*
X168852347Y-37707714D01*
X169741347Y-37453714D01*
X169797318Y-37431615D01*
X169855099Y-37414828D01*
X169903890Y-37389537D01*
X169955006Y-37369355D01*
X170005618Y-37336806D01*
X170059040Y-37309115D01*
X170101983Y-37274834D01*
X170148212Y-37245104D01*
X170191546Y-37203337D01*
X170238563Y-37165803D01*
X170250265Y-37154265D01*
X170885265Y-36519264D01*
X170933048Y-36461092D01*
X170984648Y-36406277D01*
X170994600Y-36393200D01*
X171375600Y-35885200D01*
X171391998Y-35858198D01*
X171412053Y-35833784D01*
X171451504Y-35760212D01*
X171494836Y-35688859D01*
X171505679Y-35659182D01*
X171520607Y-35631342D01*
X171526817Y-35616127D01*
X171780817Y-34981127D01*
X171808870Y-34884576D01*
X171839280Y-34788712D01*
X171840888Y-34774380D01*
X171844909Y-34760539D01*
X171853675Y-34660371D01*
X171864885Y-34560433D01*
X171865000Y-34544000D01*
X171865000Y-32639000D01*
X171854480Y-32531705D01*
X171845253Y-32424307D01*
X171842599Y-32410535D01*
X171842584Y-32410386D01*
X171842545Y-32410257D01*
X171842143Y-32408171D01*
X171461143Y-30503171D01*
X171455370Y-30484181D01*
X171452732Y-30464506D01*
X171448858Y-30448536D01*
X171199816Y-29452368D01*
X171354176Y-29893337D01*
X171735354Y-31095842D01*
X172083043Y-32313957D01*
X172397861Y-33547229D01*
X172680418Y-34795100D01*
X172931356Y-36057194D01*
X173151305Y-37332992D01*
X173340866Y-38621963D01*
X173500672Y-39923599D01*
X173631369Y-41237444D01*
X173730640Y-42524840D01*
X173679320Y-42524840D01*
X173345776Y-42591186D01*
X173031584Y-42721328D01*
X172748818Y-42910266D01*
X172599680Y-43059404D01*
X172450542Y-42910266D01*
X172167776Y-42721328D01*
X171853584Y-42591186D01*
X171520040Y-42524840D01*
X171179960Y-42524840D01*
X170846416Y-42591186D01*
X170532224Y-42721328D01*
X170249458Y-42910266D01*
X170008986Y-43150738D01*
X169820048Y-43433504D01*
X169689906Y-43747696D01*
X169623560Y-44081240D01*
X169623560Y-44421320D01*
X169689906Y-44754864D01*
X169820048Y-45069056D01*
X170008986Y-45351822D01*
X170249458Y-45592294D01*
X170532224Y-45781232D01*
X170846416Y-45911374D01*
X171179960Y-45977720D01*
X171520040Y-45977720D01*
X171853584Y-45911374D01*
X172167776Y-45781232D01*
X172450542Y-45592294D01*
X172599680Y-45443156D01*
X172748818Y-45592294D01*
X173031584Y-45781232D01*
X173345776Y-45911374D01*
X173679320Y-45977720D01*
X173866144Y-45977720D01*
X173875631Y-46604226D01*
X173870711Y-47971058D01*
X173840085Y-49346655D01*
X173784801Y-50730756D01*
X173705514Y-52122833D01*
X173676192Y-52522902D01*
X173345776Y-52588626D01*
X173031584Y-52718768D01*
X172748818Y-52907706D01*
X172599680Y-53056844D01*
X172450542Y-52907706D01*
X172167776Y-52718768D01*
X171853584Y-52588626D01*
X171520040Y-52522280D01*
X171179960Y-52522280D01*
X170846416Y-52588626D01*
X170602000Y-52689866D01*
X170602000Y-52157503D01*
X171291573Y-51467930D01*
X171568447Y-51467930D01*
X171996946Y-51382697D01*
X172400584Y-51215504D01*
X172763848Y-50972779D01*
X173072779Y-50663848D01*
X173315504Y-50300584D01*
X173482697Y-49896946D01*
X173567930Y-49468447D01*
X173567930Y-49031553D01*
X173482697Y-48603054D01*
X173315504Y-48199416D01*
X173072779Y-47836152D01*
X172763848Y-47527221D01*
X172400584Y-47284496D01*
X171996946Y-47117303D01*
X171568447Y-47032070D01*
X171131553Y-47032070D01*
X170703054Y-47117303D01*
X170299416Y-47284496D01*
X169936152Y-47527221D01*
X169627221Y-47836152D01*
X169384496Y-48199416D01*
X169217303Y-48603054D01*
X169132070Y-49031553D01*
X169132070Y-49308427D01*
X168086446Y-50354051D01*
X168074059Y-50335512D01*
X167851228Y-50112681D01*
X167881232Y-50067776D01*
X168011374Y-49753584D01*
X168077720Y-49420040D01*
X168077720Y-49079960D01*
X168011374Y-48746416D01*
X167881232Y-48432224D01*
X167851228Y-48387319D01*
X168074059Y-48164488D01*
X168316784Y-47801224D01*
X168483977Y-47397586D01*
X168569210Y-46969087D01*
X168569210Y-46532193D01*
X168483977Y-46103694D01*
X168316784Y-45700056D01*
X168150658Y-45451430D01*
X168316784Y-45202804D01*
X168483977Y-44799166D01*
X168569210Y-44370667D01*
X168569210Y-43933773D01*
X168483977Y-43505274D01*
X168316784Y-43101636D01*
X168074059Y-42738372D01*
X167765128Y-42429441D01*
X167401864Y-42186716D01*
X166998226Y-42019523D01*
X166569727Y-41934290D01*
X166132833Y-41934290D01*
X165704334Y-42019523D01*
X165300696Y-42186716D01*
X164937432Y-42429441D01*
X164628501Y-42738372D01*
X164521841Y-42898000D01*
X163920090Y-42898000D01*
X163850000Y-42891097D01*
X163779910Y-42898000D01*
X163779902Y-42898000D01*
X163594474Y-42916263D01*
X163570258Y-42918648D01*
X163513340Y-42935914D01*
X163301269Y-43000245D01*
X163053366Y-43132752D01*
X163031450Y-43150738D01*
X162890525Y-43266392D01*
X162890522Y-43266395D01*
X162836077Y-43311077D01*
X162791395Y-43365522D01*
X161215523Y-44941395D01*
X161161077Y-44986078D01*
X161116395Y-45040523D01*
X161116392Y-45040526D01*
X161033384Y-45141672D01*
X160982752Y-45203367D01*
X160850245Y-45451270D01*
X160768648Y-45720260D01*
X160748000Y-45929903D01*
X160748000Y-45929912D01*
X160741097Y-46000000D01*
X160748000Y-46070088D01*
X160748001Y-51904903D01*
X160741097Y-51975000D01*
X160748001Y-52045098D01*
X160755935Y-52125656D01*
X160768649Y-52254741D01*
X160850246Y-52523731D01*
X160982753Y-52771634D01*
X161116392Y-52934474D01*
X161116396Y-52934478D01*
X161161078Y-52988923D01*
X161215523Y-53033605D01*
X163489175Y-55307258D01*
X163533857Y-55361703D01*
X163588302Y-55406385D01*
X163588305Y-55406388D01*
X163751145Y-55540028D01*
X163843537Y-55589412D01*
X163999049Y-55672535D01*
X164186441Y-55729380D01*
X164268038Y-55754132D01*
X164292254Y-55756517D01*
X164477682Y-55774780D01*
X164477690Y-55774780D01*
X164547780Y-55781683D01*
X164617870Y-55774780D01*
X164641653Y-55774780D01*
X164937432Y-56070559D01*
X165300696Y-56313284D01*
X165704334Y-56480477D01*
X166132833Y-56565710D01*
X166569727Y-56565710D01*
X166998226Y-56480477D01*
X167401864Y-56313284D01*
X167548001Y-56215639D01*
X167548000Y-62776075D01*
X167506054Y-62818021D01*
X167443972Y-62868970D01*
X167240655Y-63116713D01*
X167089576Y-63399361D01*
X166996543Y-63706051D01*
X166973001Y-63945074D01*
X166973001Y-63945085D01*
X166965130Y-64024999D01*
X166973001Y-64104913D01*
X166973001Y-64295076D01*
X166965129Y-64375001D01*
X166973001Y-64454925D01*
X166973001Y-64870087D01*
X166965130Y-64950001D01*
X166973001Y-65029915D01*
X166973001Y-65029926D01*
X166996543Y-65268949D01*
X167089576Y-65575639D01*
X167240655Y-65858287D01*
X167443972Y-66106030D01*
X167506054Y-66156979D01*
X167718020Y-66368945D01*
X167768971Y-66431029D01*
X168016714Y-66634346D01*
X168299362Y-66785425D01*
X168606052Y-66878458D01*
X168845075Y-66902000D01*
X168845085Y-66902000D01*
X168925000Y-66909871D01*
X168937500Y-66908640D01*
X168950000Y-66909871D01*
X169029914Y-66902000D01*
X169104925Y-66902000D01*
X169343948Y-66878458D01*
X169650638Y-66785425D01*
X169933286Y-66634346D01*
X170181029Y-66431029D01*
X170384346Y-66183286D01*
X170432238Y-66093687D01*
X170718947Y-65806978D01*
X170781029Y-65756029D01*
X170984346Y-65508286D01*
X171135425Y-65225638D01*
X171228458Y-64918948D01*
X171252000Y-64679925D01*
X171252000Y-64679915D01*
X171259871Y-64600001D01*
X171252000Y-64520086D01*
X171252000Y-64104925D01*
X171259872Y-64025000D01*
X171228458Y-63706052D01*
X171135425Y-63399362D01*
X170984346Y-63116714D01*
X170781029Y-62868971D01*
X170602000Y-62722046D01*
X170602000Y-55807574D01*
X170846416Y-55908814D01*
X171179960Y-55975160D01*
X171520040Y-55975160D01*
X171853584Y-55908814D01*
X172167776Y-55778672D01*
X172450542Y-55589734D01*
X172599680Y-55440596D01*
X172748818Y-55589734D01*
X173031584Y-55778672D01*
X173345776Y-55908814D01*
X173374953Y-55914618D01*
X173330519Y-56340962D01*
X173161998Y-57759048D01*
X172972841Y-59182268D01*
X172763700Y-60610162D01*
X172535259Y-62042066D01*
X172288205Y-63477465D01*
X172023217Y-64915776D01*
X171740939Y-66356603D01*
X171442707Y-67796310D01*
X170797348Y-70688051D01*
X170094605Y-73577586D01*
X169339286Y-76463644D01*
X168536874Y-79342041D01*
X167692939Y-82208332D01*
X166813013Y-85058254D01*
X165902590Y-87887634D01*
X164967231Y-90692215D01*
X164012512Y-93467609D01*
X163043968Y-96209687D01*
X162067143Y-98914166D01*
X161087995Y-101575803D01*
X159142211Y-106761078D01*
X157273140Y-111673867D01*
X157272899Y-111674352D01*
X157252167Y-111728994D01*
X157232211Y-111781447D01*
X157232075Y-111781949D01*
X155483351Y-116390893D01*
X155481452Y-116394788D01*
X155462785Y-116445094D01*
X155443863Y-116494966D01*
X155442737Y-116499124D01*
X153838196Y-120823326D01*
X153835550Y-120828902D01*
X153818089Y-120877514D01*
X153800120Y-120925939D01*
X153798551Y-120931907D01*
X153082005Y-122926749D01*
X153079496Y-122932179D01*
X153062477Y-122981114D01*
X153044943Y-123029929D01*
X153043481Y-123035736D01*
X152378899Y-124946652D01*
X152375758Y-124953690D01*
X152359930Y-125001197D01*
X152343455Y-125048567D01*
X152341646Y-125056071D01*
X151733631Y-126880935D01*
X151729790Y-126889939D01*
X151715367Y-126935752D01*
X151700179Y-126981335D01*
X151698009Y-126990884D01*
X151151667Y-128726222D01*
X151147066Y-128737665D01*
X151134308Y-128781357D01*
X151120648Y-128824746D01*
X151118117Y-128836809D01*
X150638480Y-130479449D01*
X150633077Y-130493980D01*
X150622282Y-130534924D01*
X150610418Y-130575554D01*
X150607553Y-130590785D01*
X150199626Y-132137943D01*
X150193433Y-132156454D01*
X150184898Y-132193800D01*
X150175129Y-132230853D01*
X150172025Y-132250131D01*
X149842294Y-133692992D01*
X149837124Y-133710166D01*
X149829424Y-133749310D01*
X149820534Y-133788211D01*
X149818271Y-133806007D01*
X149693098Y-134442331D01*
X149689393Y-134455785D01*
X149681948Y-134499015D01*
X149673477Y-134542076D01*
X149672138Y-134555972D01*
X149564048Y-135183576D01*
X149544568Y-135277577D01*
X149543945Y-135355588D01*
X149538303Y-135433402D01*
X149543021Y-135471262D01*
X149542716Y-135509418D01*
X149557326Y-135586061D01*
X149566972Y-135663471D01*
X149578985Y-135699682D01*
X149586130Y-135737166D01*
X149615409Y-135809480D01*
X149639974Y-135883527D01*
X149658824Y-135916705D01*
X149673142Y-135952067D01*
X149715965Y-136017277D01*
X149754505Y-136085112D01*
X149779461Y-136113970D01*
X149800406Y-136145865D01*
X149855129Y-136201469D01*
X149906161Y-136260480D01*
X149936272Y-136283918D01*
X149963033Y-136311110D01*
X150027546Y-136354965D01*
X150089117Y-136402892D01*
X150123224Y-136420006D01*
X150154774Y-136441454D01*
X150226603Y-136471881D01*
X150296340Y-136506874D01*
X150333129Y-136517005D01*
X150368258Y-136531886D01*
X150444646Y-136547716D01*
X150519868Y-136568431D01*
X150557925Y-136571190D01*
X150595283Y-136578932D01*
X150673295Y-136579555D01*
X150751108Y-136585197D01*
X150788968Y-136580479D01*
X150827124Y-136580784D01*
X150903767Y-136566174D01*
X150981177Y-136556528D01*
X151017388Y-136544515D01*
X151054872Y-136537370D01*
X151127189Y-136508090D01*
X151201233Y-136483526D01*
X151284707Y-136436100D01*
X171323569Y-125929985D01*
X170827231Y-183008468D01*
X140505573Y-169226092D01*
X140447682Y-169193650D01*
X140345196Y-169160319D01*
X140243354Y-169125612D01*
X140235117Y-169124518D01*
X140227201Y-169121943D01*
X140120175Y-169109245D01*
X140013526Y-169095074D01*
X139947329Y-169099333D01*
X73594927Y-167777570D01*
X73487617Y-167773878D01*
X73421845Y-167784624D01*
X73355416Y-167789833D01*
X73307716Y-167803271D01*
X73258802Y-167811263D01*
X73196394Y-167834633D01*
X73132254Y-167852703D01*
X73036581Y-167901417D01*
X45067641Y-181636172D01*
X44578792Y-158367017D01*
X48298000Y-158367017D01*
X48298000Y-158982983D01*
X48418169Y-159587112D01*
X48653889Y-160156190D01*
X48996101Y-160668346D01*
X49431654Y-161103899D01*
X49943810Y-161446111D01*
X50512888Y-161681831D01*
X51117017Y-161802000D01*
X51732983Y-161802000D01*
X52337112Y-161681831D01*
X52906190Y-161446111D01*
X53418346Y-161103899D01*
X53853899Y-160668346D01*
X54196111Y-160156190D01*
X54431831Y-159587112D01*
X54552000Y-158982983D01*
X54552000Y-158367017D01*
X57098000Y-158367017D01*
X57098000Y-158982983D01*
X57218169Y-159587112D01*
X57453889Y-160156190D01*
X57796101Y-160668346D01*
X58231654Y-161103899D01*
X58743810Y-161446111D01*
X59312888Y-161681831D01*
X59917017Y-161802000D01*
X60532983Y-161802000D01*
X61137112Y-161681831D01*
X61706190Y-161446111D01*
X62218346Y-161103899D01*
X62653899Y-160668346D01*
X62826885Y-160409453D01*
X68298000Y-160409453D01*
X68298000Y-160690547D01*
X68352838Y-160966241D01*
X68439288Y-161174948D01*
X68432410Y-161187816D01*
X68345095Y-161475657D01*
X68323000Y-161699990D01*
X68323000Y-162124263D01*
X68315613Y-162199264D01*
X68323000Y-162274265D01*
X68323000Y-162274275D01*
X68345095Y-162498608D01*
X68432410Y-162786449D01*
X68574203Y-163051724D01*
X68765024Y-163284240D01*
X68823293Y-163332060D01*
X68867203Y-163375970D01*
X68915024Y-163434240D01*
X69147540Y-163625061D01*
X69412815Y-163766854D01*
X69700656Y-163854169D01*
X69924989Y-163876264D01*
X69924998Y-163876264D01*
X69999999Y-163883651D01*
X70075000Y-163876264D01*
X76991761Y-163876264D01*
X77267203Y-164151706D01*
X77315024Y-164209976D01*
X77547540Y-164400797D01*
X77812815Y-164542590D01*
X78100656Y-164629905D01*
X78324989Y-164652000D01*
X78324998Y-164652000D01*
X78399999Y-164659387D01*
X78475000Y-164652000D01*
X79583916Y-164652000D01*
X79640340Y-164708424D01*
X79874062Y-164864591D01*
X80133759Y-164972162D01*
X80409453Y-165027000D01*
X80690547Y-165027000D01*
X80966241Y-164972162D01*
X81225938Y-164864591D01*
X81459660Y-164708424D01*
X81658424Y-164509660D01*
X81814591Y-164275938D01*
X81922162Y-164016241D01*
X81977000Y-163740547D01*
X81977000Y-163459453D01*
X81922162Y-163183759D01*
X81819208Y-162935207D01*
X120823000Y-162935207D01*
X120823000Y-163314793D01*
X120897053Y-163687085D01*
X121042315Y-164037777D01*
X121253201Y-164353391D01*
X121521609Y-164621799D01*
X121837223Y-164832685D01*
X122187915Y-164977947D01*
X122560207Y-165052000D01*
X122939793Y-165052000D01*
X123312085Y-164977947D01*
X123662777Y-164832685D01*
X123978391Y-164621799D01*
X124246799Y-164353391D01*
X124457685Y-164037777D01*
X124602947Y-163687085D01*
X124677000Y-163314793D01*
X124677000Y-162935207D01*
X124602947Y-162562915D01*
X124457685Y-162212223D01*
X124246799Y-161896609D01*
X123978391Y-161628201D01*
X123662777Y-161417315D01*
X123312085Y-161272053D01*
X122939793Y-161198000D01*
X122560207Y-161198000D01*
X122187915Y-161272053D01*
X121837223Y-161417315D01*
X121521609Y-161628201D01*
X121253201Y-161896609D01*
X121042315Y-162212223D01*
X120897053Y-162562915D01*
X120823000Y-162935207D01*
X81819208Y-162935207D01*
X81814591Y-162924062D01*
X81658424Y-162690340D01*
X81459660Y-162491576D01*
X81225938Y-162335409D01*
X80966241Y-162227838D01*
X80863917Y-162207485D01*
X80925000Y-162213501D01*
X81390973Y-162167607D01*
X81839040Y-162031687D01*
X82251980Y-161810966D01*
X82613925Y-161513925D01*
X82910966Y-161151979D01*
X83131687Y-160739039D01*
X83267607Y-160290972D01*
X83302000Y-159941771D01*
X83302000Y-159208229D01*
X83548000Y-159208229D01*
X83548000Y-159941772D01*
X83582393Y-160290973D01*
X83718313Y-160739040D01*
X83939034Y-161151980D01*
X84236076Y-161513925D01*
X84598021Y-161810966D01*
X85010961Y-162031687D01*
X85459028Y-162167607D01*
X85925000Y-162213501D01*
X86390973Y-162167607D01*
X86839040Y-162031687D01*
X87251980Y-161810966D01*
X87613925Y-161513925D01*
X87910966Y-161151979D01*
X88131687Y-160739039D01*
X88267607Y-160290972D01*
X88302000Y-159941771D01*
X88302000Y-159208228D01*
X88267607Y-158859027D01*
X88131687Y-158410960D01*
X87910966Y-157998020D01*
X87613925Y-157636075D01*
X87251979Y-157339034D01*
X86839039Y-157118313D01*
X86390972Y-156982393D01*
X85925000Y-156936499D01*
X85459027Y-156982393D01*
X85010960Y-157118313D01*
X84598020Y-157339034D01*
X84236075Y-157636075D01*
X83939034Y-157998021D01*
X83718313Y-158410961D01*
X83582393Y-158859028D01*
X83548000Y-159208229D01*
X83302000Y-159208229D01*
X83302000Y-159208228D01*
X83267607Y-158859027D01*
X83131687Y-158410960D01*
X82910966Y-157998020D01*
X82613925Y-157636075D01*
X82251979Y-157339034D01*
X81839039Y-157118313D01*
X81390972Y-156982393D01*
X80925000Y-156936499D01*
X80459027Y-156982393D01*
X80010960Y-157118313D01*
X79598020Y-157339034D01*
X79236075Y-157636075D01*
X78939034Y-157998021D01*
X78718313Y-158410961D01*
X78582393Y-158859028D01*
X78548000Y-159208229D01*
X78548000Y-159941772D01*
X78582393Y-160290973D01*
X78718313Y-160739040D01*
X78939034Y-161151980D01*
X79236076Y-161513925D01*
X79338522Y-161598000D01*
X79032503Y-161598000D01*
X78757061Y-161322558D01*
X78709240Y-161264288D01*
X78476724Y-161073467D01*
X78211449Y-160931674D01*
X77923608Y-160844359D01*
X77699275Y-160822264D01*
X77699265Y-160822264D01*
X77624264Y-160814877D01*
X77549263Y-160822264D01*
X71125800Y-160822264D01*
X71152000Y-160690547D01*
X71152000Y-160409453D01*
X71097162Y-160133759D01*
X70989591Y-159874062D01*
X70833424Y-159640340D01*
X70634660Y-159441576D01*
X70400938Y-159285409D01*
X70141241Y-159177838D01*
X69865547Y-159123000D01*
X69584453Y-159123000D01*
X69308759Y-159177838D01*
X69049062Y-159285409D01*
X68815340Y-159441576D01*
X68616576Y-159640340D01*
X68460409Y-159874062D01*
X68352838Y-160133759D01*
X68298000Y-160409453D01*
X62826885Y-160409453D01*
X62996111Y-160156190D01*
X63231831Y-159587112D01*
X63352000Y-158982983D01*
X63352000Y-158367017D01*
X63231831Y-157762888D01*
X62996111Y-157193810D01*
X62653899Y-156681654D01*
X62218346Y-156246101D01*
X61706190Y-155903889D01*
X61137112Y-155668169D01*
X60532983Y-155548000D01*
X59917017Y-155548000D01*
X59312888Y-155668169D01*
X58743810Y-155903889D01*
X58231654Y-156246101D01*
X57796101Y-156681654D01*
X57453889Y-157193810D01*
X57218169Y-157762888D01*
X57098000Y-158367017D01*
X54552000Y-158367017D01*
X54431831Y-157762888D01*
X54196111Y-157193810D01*
X53853899Y-156681654D01*
X53418346Y-156246101D01*
X52906190Y-155903889D01*
X52337112Y-155668169D01*
X51732983Y-155548000D01*
X51117017Y-155548000D01*
X50512888Y-155668169D01*
X49943810Y-155903889D01*
X49431654Y-156246101D01*
X48996101Y-156681654D01*
X48653889Y-157193810D01*
X48418169Y-157762888D01*
X48298000Y-158367017D01*
X44578792Y-158367017D01*
X44507746Y-154985207D01*
X91373000Y-154985207D01*
X91373000Y-155364793D01*
X91447053Y-155737085D01*
X91592315Y-156087777D01*
X91803201Y-156403391D01*
X92071609Y-156671799D01*
X92387223Y-156882685D01*
X92737915Y-157027947D01*
X93110207Y-157102000D01*
X93489793Y-157102000D01*
X93862085Y-157027947D01*
X94212777Y-156882685D01*
X94528391Y-156671799D01*
X94796799Y-156403391D01*
X95007685Y-156087777D01*
X95152947Y-155737085D01*
X95227000Y-155364793D01*
X95227000Y-154985207D01*
X95152947Y-154612915D01*
X95007685Y-154262223D01*
X94796799Y-153946609D01*
X94528391Y-153678201D01*
X94212777Y-153467315D01*
X93862085Y-153322053D01*
X93489793Y-153248000D01*
X93110207Y-153248000D01*
X92737915Y-153322053D01*
X92387223Y-153467315D01*
X92071609Y-153678201D01*
X91803201Y-153946609D01*
X91592315Y-154262223D01*
X91447053Y-154612915D01*
X91373000Y-154985207D01*
X44507746Y-154985207D01*
X44434009Y-151475358D01*
X51298000Y-151475358D01*
X51298000Y-151874642D01*
X51375896Y-152266254D01*
X51528696Y-152635145D01*
X51750526Y-152967137D01*
X52032863Y-153249474D01*
X52364855Y-153471304D01*
X52733746Y-153624104D01*
X53125358Y-153702000D01*
X53524642Y-153702000D01*
X53916254Y-153624104D01*
X54285145Y-153471304D01*
X54575000Y-153277629D01*
X54864855Y-153471304D01*
X55233746Y-153624104D01*
X55625358Y-153702000D01*
X56024642Y-153702000D01*
X56416254Y-153624104D01*
X56785145Y-153471304D01*
X57075000Y-153277629D01*
X57364855Y-153471304D01*
X57733746Y-153624104D01*
X58125358Y-153702000D01*
X58524642Y-153702000D01*
X58916254Y-153624104D01*
X59285145Y-153471304D01*
X59617137Y-153249474D01*
X59899474Y-152967137D01*
X60121304Y-152635145D01*
X60274104Y-152266254D01*
X60352000Y-151874642D01*
X60352000Y-151475358D01*
X60274104Y-151083746D01*
X60121304Y-150714855D01*
X59899474Y-150382863D01*
X59617137Y-150100526D01*
X59285145Y-149878696D01*
X58916254Y-149725896D01*
X58524642Y-149648000D01*
X58125358Y-149648000D01*
X57733746Y-149725896D01*
X57364855Y-149878696D01*
X57075000Y-150072371D01*
X56785145Y-149878696D01*
X56416254Y-149725896D01*
X56024642Y-149648000D01*
X55625358Y-149648000D01*
X55233746Y-149725896D01*
X54864855Y-149878696D01*
X54575000Y-150072371D01*
X54285145Y-149878696D01*
X53916254Y-149725896D01*
X53524642Y-149648000D01*
X53125358Y-149648000D01*
X52733746Y-149725896D01*
X52364855Y-149878696D01*
X52032863Y-150100526D01*
X51750526Y-150382863D01*
X51528696Y-150714855D01*
X51375896Y-151083746D01*
X51298000Y-151475358D01*
X44434009Y-151475358D01*
X44333860Y-146708229D01*
X78548000Y-146708229D01*
X78548000Y-147441772D01*
X78582393Y-147790973D01*
X78718313Y-148239040D01*
X78939034Y-148651980D01*
X79236076Y-149013925D01*
X79598021Y-149310966D01*
X80010961Y-149531687D01*
X80459028Y-149667607D01*
X80925000Y-149713501D01*
X81390973Y-149667607D01*
X81839040Y-149531687D01*
X82251980Y-149310966D01*
X82613925Y-149013925D01*
X82910966Y-148651979D01*
X83131687Y-148239039D01*
X83267607Y-147790972D01*
X83302000Y-147441771D01*
X83302000Y-146708229D01*
X83548000Y-146708229D01*
X83548000Y-147441772D01*
X83582393Y-147790973D01*
X83718313Y-148239040D01*
X83939034Y-148651980D01*
X84236076Y-149013925D01*
X84598021Y-149310966D01*
X85010961Y-149531687D01*
X85459028Y-149667607D01*
X85925000Y-149713501D01*
X86390973Y-149667607D01*
X86839040Y-149531687D01*
X87251980Y-149310966D01*
X87613925Y-149013925D01*
X87910966Y-148651979D01*
X88131687Y-148239039D01*
X88267607Y-147790972D01*
X88302000Y-147441771D01*
X88302000Y-146708228D01*
X88267607Y-146359027D01*
X88131687Y-145910960D01*
X87910966Y-145498020D01*
X87613925Y-145136075D01*
X87251979Y-144839034D01*
X86839039Y-144618313D01*
X86390972Y-144482393D01*
X85925000Y-144436499D01*
X85459027Y-144482393D01*
X85010960Y-144618313D01*
X84598020Y-144839034D01*
X84236075Y-145136075D01*
X83939034Y-145498021D01*
X83718313Y-145910961D01*
X83582393Y-146359028D01*
X83548000Y-146708229D01*
X83302000Y-146708229D01*
X83302000Y-146708228D01*
X83267607Y-146359027D01*
X83131687Y-145910960D01*
X82910966Y-145498020D01*
X82613925Y-145136075D01*
X82251979Y-144839034D01*
X81839039Y-144618313D01*
X81390972Y-144482393D01*
X80925000Y-144436499D01*
X80459027Y-144482393D01*
X80010960Y-144618313D01*
X79598020Y-144839034D01*
X79236075Y-145136075D01*
X78939034Y-145498021D01*
X78718313Y-145910961D01*
X78582393Y-146359028D01*
X78548000Y-146708229D01*
X44333860Y-146708229D01*
X44261406Y-143259453D01*
X52223000Y-143259453D01*
X52223000Y-143540547D01*
X52277838Y-143816241D01*
X52385409Y-144075938D01*
X52541576Y-144309660D01*
X52740340Y-144508424D01*
X52974062Y-144664591D01*
X53233759Y-144772162D01*
X53509453Y-144827000D01*
X53790547Y-144827000D01*
X54066241Y-144772162D01*
X54325938Y-144664591D01*
X54559660Y-144508424D01*
X54758424Y-144309660D01*
X54914591Y-144075938D01*
X55022162Y-143816241D01*
X55077000Y-143540547D01*
X55077000Y-143259453D01*
X55065826Y-143203276D01*
X55151711Y-143132792D01*
X56457504Y-141827000D01*
X57642497Y-141827000D01*
X61117208Y-145301712D01*
X61165024Y-145359976D01*
X61397540Y-145550797D01*
X61600699Y-145659388D01*
X61662815Y-145692590D01*
X61950655Y-145779905D01*
X61977955Y-145782594D01*
X62174989Y-145802000D01*
X62174996Y-145802000D01*
X62250000Y-145809387D01*
X62325004Y-145802000D01*
X75124998Y-145802000D01*
X75199999Y-145809387D01*
X75275000Y-145802000D01*
X75275011Y-145802000D01*
X75499344Y-145779905D01*
X75787185Y-145692590D01*
X76052460Y-145550797D01*
X76284976Y-145359976D01*
X76475797Y-145127460D01*
X76617590Y-144862185D01*
X76704905Y-144574344D01*
X76734388Y-144275000D01*
X76704905Y-143975656D01*
X76617590Y-143687815D01*
X76577000Y-143611877D01*
X76577000Y-142549989D01*
X76554905Y-142325656D01*
X76467590Y-142037815D01*
X76325797Y-141772540D01*
X76134976Y-141540024D01*
X75902460Y-141349203D01*
X75899664Y-141347708D01*
X75847162Y-141083759D01*
X75739591Y-140824062D01*
X75583424Y-140590340D01*
X75384660Y-140391576D01*
X75150938Y-140235409D01*
X74891241Y-140127838D01*
X74615547Y-140073000D01*
X74334453Y-140073000D01*
X74058759Y-140127838D01*
X73799062Y-140235409D01*
X73565340Y-140391576D01*
X73366576Y-140590340D01*
X73210409Y-140824062D01*
X73102838Y-141083759D01*
X73048000Y-141359453D01*
X73048000Y-141640547D01*
X73102838Y-141916241D01*
X73210409Y-142175938D01*
X73366576Y-142409660D01*
X73523000Y-142566084D01*
X73523000Y-142748000D01*
X62882504Y-142748000D01*
X59407797Y-139273294D01*
X59359976Y-139215024D01*
X59127460Y-139024203D01*
X58862185Y-138882410D01*
X58574344Y-138795095D01*
X58350011Y-138773000D01*
X58350001Y-138773000D01*
X58275000Y-138765613D01*
X58199999Y-138773000D01*
X55900000Y-138773000D01*
X55824999Y-138765613D01*
X55749998Y-138773000D01*
X55749989Y-138773000D01*
X55525656Y-138795095D01*
X55237815Y-138882410D01*
X54972540Y-139024203D01*
X54740024Y-139215024D01*
X54692207Y-139273289D01*
X52992208Y-140973289D01*
X52849204Y-141147540D01*
X52707411Y-141412815D01*
X52620096Y-141700656D01*
X52590613Y-142000000D01*
X52620096Y-142299344D01*
X52646274Y-142385642D01*
X52541576Y-142490340D01*
X52385409Y-142724062D01*
X52277838Y-142983759D01*
X52223000Y-143259453D01*
X44261406Y-143259453D01*
X43826061Y-122537136D01*
X66105351Y-134638515D01*
X66108429Y-134641041D01*
X66143060Y-134659552D01*
X66174999Y-134682399D01*
X66241468Y-134712449D01*
X66254515Y-134719536D01*
X66258167Y-134721077D01*
X66312902Y-134750334D01*
X66350481Y-134761733D01*
X66386260Y-134777909D01*
X66400820Y-134781291D01*
X66414596Y-134787106D01*
X66475378Y-134799620D01*
X66534767Y-134817636D01*
X66573847Y-134821485D01*
X66612095Y-134830370D01*
X66627042Y-134830847D01*
X66641681Y-134833861D01*
X66703732Y-134834277D01*
X66707687Y-134834667D01*
X66746765Y-134834667D01*
X66843826Y-134837764D01*
X66858574Y-134835317D01*
X66873525Y-134835417D01*
X66934468Y-134823719D01*
X66996231Y-134817636D01*
X67033811Y-134806236D01*
X67072547Y-134799808D01*
X67086534Y-134794530D01*
X67101217Y-134791712D01*
X67158706Y-134768350D01*
X67218096Y-134750334D01*
X67252731Y-134731821D01*
X67289467Y-134717960D01*
X67302157Y-134710054D01*
X67316007Y-134704426D01*
X67367831Y-134670299D01*
X67422569Y-134641041D01*
X67452926Y-134616127D01*
X67486252Y-134595366D01*
X67497156Y-134585136D01*
X67509642Y-134576914D01*
X67553813Y-134533331D01*
X67601790Y-134493958D01*
X67626704Y-134463600D01*
X67655339Y-134436736D01*
X67664036Y-134424578D01*
X67674680Y-134414076D01*
X67709500Y-134362713D01*
X67748873Y-134314737D01*
X67767386Y-134280101D01*
X67790230Y-134248167D01*
X67796389Y-134234543D01*
X67804778Y-134222169D01*
X67828908Y-134165001D01*
X67858166Y-134110264D01*
X67869566Y-134072682D01*
X67885741Y-134036905D01*
X67889123Y-134022345D01*
X67894938Y-134008569D01*
X67907452Y-133947790D01*
X67925468Y-133888399D01*
X67929317Y-133849318D01*
X67938202Y-133811070D01*
X67938679Y-133796123D01*
X67941693Y-133781484D01*
X67942109Y-133719435D01*
X67948193Y-133657667D01*
X67944344Y-133618585D01*
X67945596Y-133579339D01*
X67943149Y-133564591D01*
X67943249Y-133549640D01*
X67931551Y-133488696D01*
X67925468Y-133426935D01*
X67914068Y-133389355D01*
X67907640Y-133350619D01*
X67902363Y-133336632D01*
X67899544Y-133321948D01*
X67876181Y-133264456D01*
X67858166Y-133205070D01*
X67832642Y-133157317D01*
X67812258Y-133107158D01*
X67788488Y-133071062D01*
X67061887Y-131600727D01*
X66185558Y-129762338D01*
X65036513Y-127270535D01*
X63661063Y-124175284D01*
X62904669Y-122421057D01*
X62108534Y-120533540D01*
X61279413Y-118521256D01*
X60423056Y-116390418D01*
X59545295Y-114147339D01*
X58651994Y-111798536D01*
X57748911Y-109350170D01*
X56841941Y-106808822D01*
X55936858Y-104180720D01*
X55039526Y-101472385D01*
X54155740Y-98690124D01*
X53818237Y-97577468D01*
X56432570Y-97577468D01*
X56432570Y-97976752D01*
X56510466Y-98368364D01*
X56663266Y-98737255D01*
X56885096Y-99069247D01*
X57167433Y-99351584D01*
X57284765Y-99429982D01*
X57097248Y-99617499D01*
X56902777Y-99908545D01*
X56768823Y-100231938D01*
X56700534Y-100575251D01*
X56700534Y-100925289D01*
X56768823Y-101268602D01*
X56902777Y-101591995D01*
X57097248Y-101883041D01*
X57344763Y-102130556D01*
X57436804Y-102192056D01*
X57384574Y-102454636D01*
X57384574Y-102804674D01*
X57452863Y-103147987D01*
X57586817Y-103471380D01*
X57781288Y-103762426D01*
X58028803Y-104009941D01*
X58120845Y-104071442D01*
X58068615Y-104334021D01*
X58068615Y-104684059D01*
X58136904Y-105027372D01*
X58270858Y-105350765D01*
X58465329Y-105641811D01*
X58712844Y-105889326D01*
X59003890Y-106083797D01*
X59327283Y-106217751D01*
X59670596Y-106286040D01*
X59778119Y-106286040D01*
X59715964Y-106598517D01*
X59715964Y-106997801D01*
X59793860Y-107389413D01*
X59946660Y-107758304D01*
X60168490Y-108090296D01*
X60450827Y-108372633D01*
X60782819Y-108594463D01*
X61151710Y-108747263D01*
X61543322Y-108825159D01*
X61942606Y-108825159D01*
X62334218Y-108747263D01*
X62703109Y-108594463D01*
X63035101Y-108372633D01*
X63317438Y-108090296D01*
X63539268Y-107758304D01*
X63692068Y-107389413D01*
X63769964Y-106997801D01*
X63769964Y-106598517D01*
X63692068Y-106206905D01*
X63539268Y-105838014D01*
X63317438Y-105506022D01*
X63035101Y-105223685D01*
X62917770Y-105145287D01*
X63105286Y-104957771D01*
X63299757Y-104666725D01*
X63433711Y-104343332D01*
X63502000Y-104000019D01*
X63502000Y-103649981D01*
X63433711Y-103306668D01*
X63299757Y-102983275D01*
X63105286Y-102692229D01*
X62857771Y-102444714D01*
X62765730Y-102383214D01*
X62817960Y-102120634D01*
X62817960Y-101770596D01*
X62749671Y-101427283D01*
X62615717Y-101103890D01*
X62421246Y-100812844D01*
X62173731Y-100565329D01*
X62081689Y-100503828D01*
X62133919Y-100241249D01*
X62133919Y-99891211D01*
X62065630Y-99547898D01*
X61931676Y-99224505D01*
X61737205Y-98933459D01*
X61489690Y-98685944D01*
X61198644Y-98491473D01*
X60875251Y-98357519D01*
X60531938Y-98289230D01*
X60424415Y-98289230D01*
X60486570Y-97976752D01*
X60486570Y-97577468D01*
X60408674Y-97185856D01*
X60255874Y-96816965D01*
X60034044Y-96484973D01*
X59751707Y-96202636D01*
X59419715Y-95980806D01*
X59050824Y-95828006D01*
X58659212Y-95750110D01*
X58259928Y-95750110D01*
X57868316Y-95828006D01*
X57499425Y-95980806D01*
X57167433Y-96202636D01*
X56885096Y-96484973D01*
X56663266Y-96816965D01*
X56510466Y-97185856D01*
X56432570Y-97577468D01*
X53818237Y-97577468D01*
X53291310Y-95840333D01*
X52452061Y-92929417D01*
X51643791Y-89963805D01*
X50872327Y-86949928D01*
X50143425Y-83894108D01*
X49462299Y-80800154D01*
X49142511Y-79245819D01*
X48836451Y-77682489D01*
X48545385Y-76113559D01*
X48270040Y-74539888D01*
X48011082Y-72962080D01*
X47769256Y-71380957D01*
X47545306Y-69797633D01*
X47339914Y-68212613D01*
X47153814Y-66626840D01*
X46987702Y-65041041D01*
X46842317Y-63456201D01*
X46718328Y-61872880D01*
X46616485Y-60292160D01*
X46537440Y-58714643D01*
X46481964Y-57141219D01*
X46450734Y-55572911D01*
X46444807Y-54010171D01*
X46464162Y-52453841D01*
X46509860Y-50904919D01*
X46582466Y-49364123D01*
X46682811Y-47832357D01*
X46724036Y-47345000D01*
X49838435Y-47345000D01*
X49876606Y-47732560D01*
X49989653Y-48105226D01*
X50173232Y-48448676D01*
X50309730Y-48615000D01*
X50173232Y-48781324D01*
X49989653Y-49124774D01*
X49876606Y-49497440D01*
X49838435Y-49885000D01*
X49876606Y-50272560D01*
X49989653Y-50645226D01*
X50173232Y-50988676D01*
X50309730Y-51155000D01*
X50173232Y-51321324D01*
X49989653Y-51664774D01*
X49876606Y-52037440D01*
X49838435Y-52425000D01*
X49876606Y-52812560D01*
X49989653Y-53185226D01*
X50173232Y-53528676D01*
X50309730Y-53695000D01*
X50173232Y-53861324D01*
X49989653Y-54204774D01*
X49876606Y-54577440D01*
X49838435Y-54965000D01*
X49876606Y-55352560D01*
X49989653Y-55725226D01*
X50173232Y-56068676D01*
X50309730Y-56235000D01*
X50173232Y-56401324D01*
X49989653Y-56744774D01*
X49876606Y-57117440D01*
X49838435Y-57505000D01*
X49876606Y-57892560D01*
X49989653Y-58265226D01*
X50173232Y-58608676D01*
X50420286Y-58909714D01*
X50721324Y-59156768D01*
X51064774Y-59340347D01*
X51437440Y-59453394D01*
X51727884Y-59482000D01*
X51922116Y-59482000D01*
X52212560Y-59453394D01*
X52466775Y-59376279D01*
X57373001Y-64282505D01*
X57373000Y-67774999D01*
X57365613Y-67850000D01*
X57373000Y-67925001D01*
X57373000Y-67925010D01*
X57395095Y-68149343D01*
X57482410Y-68437184D01*
X57523001Y-68513124D01*
X57523000Y-90824999D01*
X57515613Y-90900000D01*
X57523000Y-90975001D01*
X57523000Y-90975010D01*
X57545095Y-91199343D01*
X57632410Y-91487184D01*
X57774203Y-91752459D01*
X57965024Y-91984976D01*
X58023294Y-92032797D01*
X65098001Y-99107506D01*
X65098000Y-109999999D01*
X65090613Y-110075000D01*
X65098000Y-110150001D01*
X65098000Y-110150010D01*
X65120095Y-110374343D01*
X65207410Y-110662184D01*
X65349203Y-110927459D01*
X65540024Y-111159976D01*
X65598294Y-111207797D01*
X70973001Y-116582506D01*
X70973001Y-117296439D01*
X70925524Y-117225385D01*
X70559615Y-116859476D01*
X70129351Y-116571983D01*
X69651268Y-116373954D01*
X69143737Y-116273000D01*
X68626263Y-116273000D01*
X68118732Y-116373954D01*
X67640649Y-116571983D01*
X67210385Y-116859476D01*
X66844476Y-117225385D01*
X66556983Y-117655649D01*
X66358954Y-118133732D01*
X66258000Y-118641263D01*
X66258000Y-119158737D01*
X66358954Y-119666268D01*
X66556983Y-120144351D01*
X66844476Y-120574615D01*
X67210385Y-120940524D01*
X67640649Y-121228017D01*
X68118732Y-121426046D01*
X68626263Y-121527000D01*
X69143737Y-121527000D01*
X69651268Y-121426046D01*
X70129351Y-121228017D01*
X70559615Y-120940524D01*
X70925524Y-120574615D01*
X70973001Y-120503561D01*
X70973000Y-125324999D01*
X70965613Y-125400000D01*
X70973000Y-125475001D01*
X70973000Y-125475010D01*
X70995095Y-125699343D01*
X71082410Y-125987184D01*
X71224203Y-126252459D01*
X71415024Y-126484976D01*
X71473294Y-126532797D01*
X83592207Y-138651711D01*
X83640024Y-138709976D01*
X83872540Y-138900797D01*
X84103417Y-139024204D01*
X84137815Y-139042590D01*
X84425655Y-139129905D01*
X84452955Y-139132594D01*
X84649989Y-139152000D01*
X84649996Y-139152000D01*
X84725000Y-139159387D01*
X84800004Y-139152000D01*
X89667497Y-139152000D01*
X93626313Y-143110816D01*
X93394658Y-143088000D01*
X93205342Y-143088000D01*
X92922242Y-143115883D01*
X92559001Y-143226071D01*
X92224237Y-143405006D01*
X91930813Y-143645813D01*
X91690006Y-143939237D01*
X91511071Y-144274001D01*
X91400883Y-144637242D01*
X91363677Y-145015000D01*
X91400883Y-145392758D01*
X91511071Y-145755999D01*
X91690006Y-146090763D01*
X91930813Y-146384187D01*
X92224237Y-146624994D01*
X92559001Y-146803929D01*
X92922242Y-146914117D01*
X93205342Y-146942000D01*
X93394658Y-146942000D01*
X93677758Y-146914117D01*
X94040999Y-146803929D01*
X94375763Y-146624994D01*
X94669187Y-146384187D01*
X94909994Y-146090763D01*
X95088929Y-145755999D01*
X95199117Y-145392758D01*
X95236323Y-145015000D01*
X95204184Y-144688688D01*
X96973001Y-146457505D01*
X96973000Y-155349999D01*
X96965613Y-155425000D01*
X96973000Y-155500001D01*
X96973000Y-155500010D01*
X96995095Y-155724343D01*
X97082410Y-156012184D01*
X97224203Y-156277459D01*
X97415024Y-156509976D01*
X97473293Y-156557796D01*
X98617207Y-157701711D01*
X98665024Y-157759976D01*
X98897540Y-157950797D01*
X99162815Y-158092590D01*
X99450656Y-158179905D01*
X99674989Y-158202000D01*
X99674999Y-158202000D01*
X99750000Y-158209387D01*
X99825001Y-158202000D01*
X103946038Y-158202000D01*
X103959001Y-158208929D01*
X104322242Y-158319117D01*
X104605342Y-158347000D01*
X105594658Y-158347000D01*
X105877758Y-158319117D01*
X106240999Y-158208929D01*
X106575763Y-158029994D01*
X106869187Y-157789187D01*
X107109994Y-157495763D01*
X107288929Y-157160999D01*
X107399117Y-156797758D01*
X107422800Y-156557303D01*
X108623000Y-157757504D01*
X108623000Y-158679912D01*
X108616097Y-158750000D01*
X108623000Y-158820088D01*
X108623000Y-158820098D01*
X108639044Y-158982983D01*
X108643649Y-159029741D01*
X108725246Y-159298731D01*
X108857753Y-159546634D01*
X109036077Y-159763923D01*
X109170282Y-159874062D01*
X109253367Y-159942248D01*
X109501270Y-160074755D01*
X109770260Y-160156352D01*
X110050000Y-160183904D01*
X110329741Y-160156352D01*
X110598731Y-160074755D01*
X110688074Y-160027000D01*
X112179902Y-160027000D01*
X112250000Y-160033904D01*
X112320097Y-160027000D01*
X112320098Y-160027000D01*
X112529741Y-160006352D01*
X112798731Y-159924755D01*
X113046634Y-159792248D01*
X113088086Y-159758229D01*
X126548000Y-159758229D01*
X126548000Y-160491772D01*
X126582393Y-160840973D01*
X126718313Y-161289040D01*
X126939034Y-161701980D01*
X127236076Y-162063925D01*
X127598021Y-162360966D01*
X128010961Y-162581687D01*
X128459028Y-162717607D01*
X128925000Y-162763501D01*
X129390973Y-162717607D01*
X129839040Y-162581687D01*
X130251980Y-162360966D01*
X130613925Y-162063925D01*
X130910966Y-161701979D01*
X131131687Y-161289039D01*
X131267607Y-160840972D01*
X131302000Y-160491771D01*
X131302000Y-159758229D01*
X131548000Y-159758229D01*
X131548000Y-160491772D01*
X131582393Y-160840973D01*
X131718313Y-161289040D01*
X131939034Y-161701980D01*
X132236076Y-162063925D01*
X132598021Y-162360966D01*
X133010961Y-162581687D01*
X133459028Y-162717607D01*
X133925000Y-162763501D01*
X134390973Y-162717607D01*
X134839040Y-162581687D01*
X135251980Y-162360966D01*
X135613925Y-162063925D01*
X135910966Y-161701979D01*
X136131687Y-161289039D01*
X136267607Y-160840972D01*
X136302000Y-160491771D01*
X136302000Y-159758228D01*
X136267607Y-159409027D01*
X136131687Y-158960960D01*
X135910966Y-158548020D01*
X135639319Y-158217017D01*
X149848000Y-158217017D01*
X149848000Y-158832983D01*
X149968169Y-159437112D01*
X150203889Y-160006190D01*
X150546101Y-160518346D01*
X150981654Y-160953899D01*
X151493810Y-161296111D01*
X152062888Y-161531831D01*
X152667017Y-161652000D01*
X153282983Y-161652000D01*
X153887112Y-161531831D01*
X154456190Y-161296111D01*
X154968346Y-160953899D01*
X155403899Y-160518346D01*
X155746111Y-160006190D01*
X155981831Y-159437112D01*
X156102000Y-158832983D01*
X156102000Y-158217017D01*
X158648000Y-158217017D01*
X158648000Y-158832983D01*
X158768169Y-159437112D01*
X159003889Y-160006190D01*
X159346101Y-160518346D01*
X159781654Y-160953899D01*
X160293810Y-161296111D01*
X160862888Y-161531831D01*
X161467017Y-161652000D01*
X162082983Y-161652000D01*
X162687112Y-161531831D01*
X163256190Y-161296111D01*
X163768346Y-160953899D01*
X164203899Y-160518346D01*
X164546111Y-160006190D01*
X164781831Y-159437112D01*
X164902000Y-158832983D01*
X164902000Y-158217017D01*
X164781831Y-157612888D01*
X164546111Y-157043810D01*
X164203899Y-156531654D01*
X163768346Y-156096101D01*
X163256190Y-155753889D01*
X162687112Y-155518169D01*
X162082983Y-155398000D01*
X161467017Y-155398000D01*
X160862888Y-155518169D01*
X160293810Y-155753889D01*
X159781654Y-156096101D01*
X159346101Y-156531654D01*
X159003889Y-157043810D01*
X158768169Y-157612888D01*
X158648000Y-158217017D01*
X156102000Y-158217017D01*
X155981831Y-157612888D01*
X155746111Y-157043810D01*
X155403899Y-156531654D01*
X154968346Y-156096101D01*
X154456190Y-155753889D01*
X153887112Y-155518169D01*
X153282983Y-155398000D01*
X152667017Y-155398000D01*
X152062888Y-155518169D01*
X151493810Y-155753889D01*
X150981654Y-156096101D01*
X150546101Y-156531654D01*
X150203889Y-157043810D01*
X149968169Y-157612888D01*
X149848000Y-158217017D01*
X135639319Y-158217017D01*
X135613925Y-158186075D01*
X135251979Y-157889034D01*
X134839039Y-157668313D01*
X134390972Y-157532393D01*
X133925000Y-157486499D01*
X133459027Y-157532393D01*
X133010960Y-157668313D01*
X132598020Y-157889034D01*
X132236075Y-158186075D01*
X131939034Y-158548021D01*
X131718313Y-158960961D01*
X131582393Y-159409028D01*
X131548000Y-159758229D01*
X131302000Y-159758229D01*
X131302000Y-159758228D01*
X131267607Y-159409027D01*
X131131687Y-158960960D01*
X130910966Y-158548020D01*
X130613925Y-158186075D01*
X130251979Y-157889034D01*
X129839039Y-157668313D01*
X129390972Y-157532393D01*
X128925000Y-157486499D01*
X128459027Y-157532393D01*
X128010960Y-157668313D01*
X127598020Y-157889034D01*
X127236075Y-158186075D01*
X126939034Y-158548021D01*
X126718313Y-158960961D01*
X126582393Y-159409028D01*
X126548000Y-159758229D01*
X113088086Y-159758229D01*
X113263923Y-159613923D01*
X113442248Y-159396634D01*
X113574755Y-159148731D01*
X113656352Y-158879741D01*
X113683904Y-158600000D01*
X113677000Y-158529902D01*
X113677000Y-158264745D01*
X113860999Y-158208929D01*
X114195763Y-158029994D01*
X114489187Y-157789187D01*
X114729994Y-157495763D01*
X114908929Y-157160999D01*
X115019117Y-156797758D01*
X115056323Y-156420000D01*
X115019117Y-156042242D01*
X114908929Y-155679001D01*
X114729994Y-155344237D01*
X114570588Y-155150000D01*
X114729994Y-154955763D01*
X114908929Y-154620999D01*
X115019117Y-154257758D01*
X115056323Y-153880000D01*
X115019117Y-153502242D01*
X114908929Y-153139001D01*
X114815924Y-152965000D01*
X120813677Y-152965000D01*
X120850883Y-153342758D01*
X120961071Y-153705999D01*
X121140006Y-154040763D01*
X121380813Y-154334187D01*
X121674237Y-154574994D01*
X122009001Y-154753929D01*
X122372242Y-154864117D01*
X122655342Y-154892000D01*
X122844658Y-154892000D01*
X123127758Y-154864117D01*
X123490999Y-154753929D01*
X123825763Y-154574994D01*
X124119187Y-154334187D01*
X124359994Y-154040763D01*
X124538929Y-153705999D01*
X124649117Y-153342758D01*
X124686323Y-152965000D01*
X124649117Y-152587242D01*
X124538929Y-152224001D01*
X124359994Y-151889237D01*
X124119187Y-151595813D01*
X123825763Y-151355006D01*
X123770296Y-151325358D01*
X152848000Y-151325358D01*
X152848000Y-151724642D01*
X152925896Y-152116254D01*
X153078696Y-152485145D01*
X153300526Y-152817137D01*
X153582863Y-153099474D01*
X153914855Y-153321304D01*
X154283746Y-153474104D01*
X154675358Y-153552000D01*
X155074642Y-153552000D01*
X155466254Y-153474104D01*
X155835145Y-153321304D01*
X156125000Y-153127629D01*
X156414855Y-153321304D01*
X156783746Y-153474104D01*
X157175358Y-153552000D01*
X157574642Y-153552000D01*
X157966254Y-153474104D01*
X158335145Y-153321304D01*
X158625000Y-153127629D01*
X158914855Y-153321304D01*
X159283746Y-153474104D01*
X159675358Y-153552000D01*
X160074642Y-153552000D01*
X160466254Y-153474104D01*
X160835145Y-153321304D01*
X161167137Y-153099474D01*
X161449474Y-152817137D01*
X161671304Y-152485145D01*
X161824104Y-152116254D01*
X161902000Y-151724642D01*
X161902000Y-151325358D01*
X161824104Y-150933746D01*
X161671304Y-150564855D01*
X161449474Y-150232863D01*
X161167137Y-149950526D01*
X160835145Y-149728696D01*
X160466254Y-149575896D01*
X160074642Y-149498000D01*
X159675358Y-149498000D01*
X159283746Y-149575896D01*
X158914855Y-149728696D01*
X158625000Y-149922371D01*
X158335145Y-149728696D01*
X157966254Y-149575896D01*
X157574642Y-149498000D01*
X157175358Y-149498000D01*
X156783746Y-149575896D01*
X156414855Y-149728696D01*
X156125000Y-149922371D01*
X155835145Y-149728696D01*
X155466254Y-149575896D01*
X155074642Y-149498000D01*
X154675358Y-149498000D01*
X154283746Y-149575896D01*
X153914855Y-149728696D01*
X153582863Y-149950526D01*
X153300526Y-150232863D01*
X153078696Y-150564855D01*
X152925896Y-150933746D01*
X152848000Y-151325358D01*
X123770296Y-151325358D01*
X123490999Y-151176071D01*
X123127758Y-151065883D01*
X122844658Y-151038000D01*
X122655342Y-151038000D01*
X122372242Y-151065883D01*
X122009001Y-151176071D01*
X121674237Y-151355006D01*
X121380813Y-151595813D01*
X121140006Y-151889237D01*
X120961071Y-152224001D01*
X120850883Y-152587242D01*
X120813677Y-152965000D01*
X114815924Y-152965000D01*
X114729994Y-152804237D01*
X114691258Y-152757037D01*
X114799741Y-152746352D01*
X115068731Y-152664755D01*
X115316634Y-152532248D01*
X115323029Y-152527000D01*
X118254912Y-152527000D01*
X118325000Y-152533903D01*
X118395088Y-152527000D01*
X118395098Y-152527000D01*
X118604741Y-152506352D01*
X118873731Y-152424755D01*
X119121634Y-152292248D01*
X119338923Y-152113923D01*
X119361463Y-152086458D01*
X119388922Y-152063923D01*
X119567248Y-151846634D01*
X119699755Y-151598731D01*
X119781352Y-151329741D01*
X119802000Y-151120098D01*
X119802000Y-151120090D01*
X119808903Y-151050000D01*
X119802000Y-150979910D01*
X119802000Y-146295098D01*
X119803072Y-146284205D01*
X120622882Y-146284205D01*
X120660088Y-146661963D01*
X120770276Y-147025204D01*
X120949211Y-147359968D01*
X121190018Y-147653392D01*
X121483442Y-147894199D01*
X121818206Y-148073134D01*
X122181447Y-148183322D01*
X122464547Y-148211205D01*
X122653863Y-148211205D01*
X122936963Y-148183322D01*
X123300204Y-148073134D01*
X123634968Y-147894199D01*
X123928392Y-147653392D01*
X124169199Y-147359968D01*
X124223579Y-147258229D01*
X126548000Y-147258229D01*
X126548000Y-147991772D01*
X126582393Y-148340973D01*
X126718313Y-148789040D01*
X126939034Y-149201980D01*
X127236076Y-149563925D01*
X127598021Y-149860966D01*
X128010961Y-150081687D01*
X128459028Y-150217607D01*
X128925000Y-150263501D01*
X129390973Y-150217607D01*
X129839040Y-150081687D01*
X130251980Y-149860966D01*
X130613925Y-149563925D01*
X130910966Y-149201979D01*
X131131687Y-148789039D01*
X131267607Y-148340972D01*
X131302000Y-147991771D01*
X131302000Y-147258229D01*
X131548000Y-147258229D01*
X131548000Y-147991772D01*
X131582393Y-148340973D01*
X131718313Y-148789040D01*
X131939034Y-149201980D01*
X132236076Y-149563925D01*
X132598021Y-149860966D01*
X133010961Y-150081687D01*
X133459028Y-150217607D01*
X133925000Y-150263501D01*
X134390973Y-150217607D01*
X134839040Y-150081687D01*
X135251980Y-149860966D01*
X135613925Y-149563925D01*
X135910966Y-149201979D01*
X136131687Y-148789039D01*
X136267607Y-148340972D01*
X136302000Y-147991771D01*
X136302000Y-147258228D01*
X136267607Y-146909027D01*
X136131687Y-146460960D01*
X135910966Y-146048020D01*
X135613925Y-145686075D01*
X135251979Y-145389034D01*
X134839039Y-145168313D01*
X134390972Y-145032393D01*
X133925000Y-144986499D01*
X133459027Y-145032393D01*
X133010960Y-145168313D01*
X132598020Y-145389034D01*
X132236075Y-145686075D01*
X131939034Y-146048021D01*
X131718313Y-146460961D01*
X131582393Y-146909028D01*
X131548000Y-147258229D01*
X131302000Y-147258229D01*
X131302000Y-147258228D01*
X131267607Y-146909027D01*
X131131687Y-146460960D01*
X130910966Y-146048020D01*
X130613925Y-145686075D01*
X130251979Y-145389034D01*
X129839039Y-145168313D01*
X129390972Y-145032393D01*
X128925000Y-144986499D01*
X128459027Y-145032393D01*
X128010960Y-145168313D01*
X127598020Y-145389034D01*
X127236075Y-145686075D01*
X126939034Y-146048021D01*
X126718313Y-146460961D01*
X126582393Y-146909028D01*
X126548000Y-147258229D01*
X124223579Y-147258229D01*
X124348134Y-147025204D01*
X124458322Y-146661963D01*
X124495528Y-146284205D01*
X124458322Y-145906447D01*
X124348134Y-145543206D01*
X124169199Y-145208442D01*
X123928392Y-144915018D01*
X123634968Y-144674211D01*
X123300204Y-144495276D01*
X122936963Y-144385088D01*
X122653863Y-144357205D01*
X122464547Y-144357205D01*
X122181447Y-144385088D01*
X121818206Y-144495276D01*
X121483442Y-144674211D01*
X121190018Y-144915018D01*
X120949211Y-145208442D01*
X120770276Y-145543206D01*
X120660088Y-145906447D01*
X120622882Y-146284205D01*
X119803072Y-146284205D01*
X119808904Y-146225000D01*
X119781352Y-145945259D01*
X119699755Y-145676269D01*
X119567248Y-145428366D01*
X119388923Y-145211077D01*
X119171634Y-145032752D01*
X118923731Y-144900245D01*
X118654741Y-144818648D01*
X118445098Y-144798000D01*
X118375000Y-144791096D01*
X118304903Y-144798000D01*
X115191083Y-144798000D01*
X110583607Y-140190525D01*
X110538923Y-140136077D01*
X110321634Y-139957752D01*
X110073731Y-139825245D01*
X109804741Y-139743648D01*
X109618375Y-139725293D01*
X108803289Y-138910207D01*
X113448000Y-138910207D01*
X113448000Y-139289793D01*
X113522053Y-139662085D01*
X113667315Y-140012777D01*
X113878201Y-140328391D01*
X114146609Y-140596799D01*
X114462223Y-140807685D01*
X114812915Y-140952947D01*
X115185207Y-141027000D01*
X115564793Y-141027000D01*
X115937085Y-140952947D01*
X116287777Y-140807685D01*
X116603391Y-140596799D01*
X116871799Y-140328391D01*
X117082685Y-140012777D01*
X117227947Y-139662085D01*
X117302000Y-139289793D01*
X117302000Y-138910207D01*
X117227947Y-138537915D01*
X117082685Y-138187223D01*
X116871799Y-137871609D01*
X116603391Y-137603201D01*
X116287777Y-137392315D01*
X115937085Y-137247053D01*
X115564793Y-137173000D01*
X115185207Y-137173000D01*
X114812915Y-137247053D01*
X114462223Y-137392315D01*
X114146609Y-137603201D01*
X113878201Y-137871609D01*
X113667315Y-138187223D01*
X113522053Y-138537915D01*
X113448000Y-138910207D01*
X108803289Y-138910207D01*
X107808607Y-137915525D01*
X107763923Y-137861077D01*
X107546634Y-137682752D01*
X107298731Y-137550245D01*
X107029741Y-137468648D01*
X106820098Y-137448000D01*
X106820088Y-137448000D01*
X106750000Y-137441097D01*
X106679912Y-137448000D01*
X104566083Y-137448000D01*
X94508607Y-127390525D01*
X94463923Y-127336077D01*
X94246634Y-127157752D01*
X93998731Y-127025245D01*
X93729741Y-126943648D01*
X93520098Y-126923000D01*
X93520088Y-126923000D01*
X93450000Y-126916097D01*
X93379912Y-126923000D01*
X88291083Y-126923000D01*
X81702000Y-120333918D01*
X81702000Y-109220088D01*
X81708903Y-109150000D01*
X81702000Y-109079912D01*
X81702000Y-109079902D01*
X81681352Y-108870259D01*
X81599755Y-108601269D01*
X81467248Y-108353366D01*
X81403589Y-108275797D01*
X81333608Y-108190525D01*
X81333605Y-108190522D01*
X81288923Y-108136077D01*
X81234478Y-108091395D01*
X78977000Y-105833918D01*
X78977000Y-101523785D01*
X78982678Y-101534407D01*
X79082753Y-101721634D01*
X79216392Y-101884474D01*
X79216395Y-101884477D01*
X79261077Y-101938922D01*
X79315523Y-101983605D01*
X87948001Y-110616083D01*
X87948000Y-116267547D01*
X87875000Y-116267547D01*
X87654069Y-116289307D01*
X87441629Y-116353750D01*
X87245843Y-116458400D01*
X87074235Y-116599235D01*
X86933400Y-116770843D01*
X86828750Y-116966629D01*
X86764307Y-117179069D01*
X86742547Y-117400000D01*
X86742547Y-120400000D01*
X86764307Y-120620931D01*
X86828750Y-120833371D01*
X86933400Y-121029157D01*
X87074235Y-121200765D01*
X87245843Y-121341600D01*
X87441629Y-121446250D01*
X87654069Y-121510693D01*
X87875000Y-121532453D01*
X90875000Y-121532453D01*
X91095931Y-121510693D01*
X91308371Y-121446250D01*
X91504157Y-121341600D01*
X91675765Y-121200765D01*
X91816600Y-121029157D01*
X91921250Y-120833371D01*
X91985693Y-120620931D01*
X92007453Y-120400000D01*
X92007453Y-117400000D01*
X91985693Y-117179069D01*
X91921250Y-116966629D01*
X91816600Y-116770843D01*
X91675765Y-116599235D01*
X91504157Y-116458400D01*
X91308371Y-116353750D01*
X91095931Y-116289307D01*
X90875000Y-116267547D01*
X90802000Y-116267547D01*
X90802000Y-110095087D01*
X90808903Y-110024999D01*
X90802000Y-109954911D01*
X90802000Y-109954902D01*
X90781352Y-109745259D01*
X90699755Y-109476269D01*
X90567248Y-109228366D01*
X90388923Y-109011077D01*
X90334472Y-108966390D01*
X81702000Y-100333918D01*
X81702000Y-93925000D01*
X82773677Y-93925000D01*
X82810883Y-94302758D01*
X82921071Y-94665999D01*
X83100006Y-95000763D01*
X83340813Y-95294187D01*
X83634237Y-95534994D01*
X83969001Y-95713929D01*
X84332242Y-95824117D01*
X84615342Y-95852000D01*
X84804658Y-95852000D01*
X85087758Y-95824117D01*
X85450999Y-95713929D01*
X85785763Y-95534994D01*
X86079187Y-95294187D01*
X86319994Y-95000763D01*
X86498929Y-94665999D01*
X86609117Y-94302758D01*
X86646323Y-93925000D01*
X86609117Y-93547242D01*
X86597883Y-93510207D01*
X127048000Y-93510207D01*
X127048000Y-93889793D01*
X127122053Y-94262085D01*
X127267315Y-94612777D01*
X127478201Y-94928391D01*
X127746609Y-95196799D01*
X128062223Y-95407685D01*
X128412915Y-95552947D01*
X128785207Y-95627000D01*
X129164793Y-95627000D01*
X129537085Y-95552947D01*
X129887777Y-95407685D01*
X130203391Y-95196799D01*
X130471799Y-94928391D01*
X130682685Y-94612777D01*
X130827947Y-94262085D01*
X130902000Y-93889793D01*
X130902000Y-93700000D01*
X137198677Y-93700000D01*
X137235883Y-94077758D01*
X137346071Y-94440999D01*
X137525006Y-94775763D01*
X137765813Y-95069187D01*
X138059237Y-95309994D01*
X138394001Y-95488929D01*
X138757242Y-95599117D01*
X139040342Y-95627000D01*
X139229658Y-95627000D01*
X139512758Y-95599117D01*
X139875999Y-95488929D01*
X140210763Y-95309994D01*
X140504187Y-95069187D01*
X140744994Y-94775763D01*
X140923929Y-94440999D01*
X141034117Y-94077758D01*
X141071323Y-93700000D01*
X141034117Y-93322242D01*
X140923929Y-92959001D01*
X140744994Y-92624237D01*
X140504187Y-92330813D01*
X140210763Y-92090006D01*
X139875999Y-91911071D01*
X139512758Y-91800883D01*
X139229658Y-91773000D01*
X139040342Y-91773000D01*
X138757242Y-91800883D01*
X138394001Y-91911071D01*
X138059237Y-92090006D01*
X137765813Y-92330813D01*
X137525006Y-92624237D01*
X137346071Y-92959001D01*
X137235883Y-93322242D01*
X137198677Y-93700000D01*
X130902000Y-93700000D01*
X130902000Y-93510207D01*
X130827947Y-93137915D01*
X130682685Y-92787223D01*
X130471799Y-92471609D01*
X130203391Y-92203201D01*
X129887777Y-91992315D01*
X129537085Y-91847053D01*
X129164793Y-91773000D01*
X128785207Y-91773000D01*
X128412915Y-91847053D01*
X128062223Y-91992315D01*
X127746609Y-92203201D01*
X127478201Y-92471609D01*
X127267315Y-92787223D01*
X127122053Y-93137915D01*
X127048000Y-93510207D01*
X86597883Y-93510207D01*
X86498929Y-93184001D01*
X86319994Y-92849237D01*
X86079187Y-92555813D01*
X85785763Y-92315006D01*
X85450999Y-92136071D01*
X85087758Y-92025883D01*
X84804658Y-91998000D01*
X84615342Y-91998000D01*
X84332242Y-92025883D01*
X83969001Y-92136071D01*
X83634237Y-92315006D01*
X83340813Y-92555813D01*
X83100006Y-92849237D01*
X82921071Y-93184001D01*
X82810883Y-93547242D01*
X82773677Y-93925000D01*
X81702000Y-93925000D01*
X81702000Y-91845087D01*
X81708903Y-91774999D01*
X81702000Y-91704911D01*
X81702000Y-91704902D01*
X81681352Y-91495259D01*
X81599755Y-91226269D01*
X81467248Y-90978366D01*
X81288923Y-90761077D01*
X81234472Y-90716390D01*
X78518082Y-88000000D01*
X89767547Y-88000000D01*
X89767547Y-89800000D01*
X89789307Y-90020931D01*
X89853750Y-90233371D01*
X89958400Y-90429157D01*
X90002459Y-90482842D01*
X89850896Y-90848746D01*
X89773000Y-91240358D01*
X89773000Y-91639642D01*
X89850896Y-92031254D01*
X90003696Y-92400145D01*
X90225526Y-92732137D01*
X90507863Y-93014474D01*
X90839855Y-93236304D01*
X91208746Y-93389104D01*
X91600358Y-93467000D01*
X91999642Y-93467000D01*
X92391254Y-93389104D01*
X92760145Y-93236304D01*
X93092137Y-93014474D01*
X93374474Y-92732137D01*
X93596304Y-92400145D01*
X93749104Y-92031254D01*
X93827000Y-91639642D01*
X93827000Y-91240358D01*
X93749104Y-90848746D01*
X93597541Y-90482842D01*
X93641600Y-90429157D01*
X93746250Y-90233371D01*
X93810693Y-90020931D01*
X93832453Y-89800000D01*
X93832453Y-88000000D01*
X93829991Y-87975000D01*
X120817547Y-87975000D01*
X120817547Y-89775000D01*
X120839307Y-89995931D01*
X120903750Y-90208371D01*
X121008400Y-90404157D01*
X121052459Y-90457842D01*
X120900896Y-90823746D01*
X120823000Y-91215358D01*
X120823000Y-91614642D01*
X120900896Y-92006254D01*
X121053696Y-92375145D01*
X121275526Y-92707137D01*
X121557863Y-92989474D01*
X121889855Y-93211304D01*
X122258746Y-93364104D01*
X122650358Y-93442000D01*
X123049642Y-93442000D01*
X123441254Y-93364104D01*
X123810145Y-93211304D01*
X124142137Y-92989474D01*
X124424474Y-92707137D01*
X124646304Y-92375145D01*
X124799104Y-92006254D01*
X124877000Y-91614642D01*
X124877000Y-91215358D01*
X124799104Y-90823746D01*
X124647541Y-90457842D01*
X124691600Y-90404157D01*
X124796250Y-90208371D01*
X124860693Y-89995931D01*
X124882453Y-89775000D01*
X124882453Y-87975000D01*
X124860693Y-87754069D01*
X124796250Y-87541629D01*
X124691600Y-87345843D01*
X124550765Y-87174235D01*
X124379157Y-87033400D01*
X124183371Y-86928750D01*
X123970931Y-86864307D01*
X123750000Y-86842547D01*
X121950000Y-86842547D01*
X121729069Y-86864307D01*
X121516629Y-86928750D01*
X121320843Y-87033400D01*
X121149235Y-87174235D01*
X121008400Y-87345843D01*
X120903750Y-87541629D01*
X120839307Y-87754069D01*
X120817547Y-87975000D01*
X93829991Y-87975000D01*
X93810693Y-87779069D01*
X93746250Y-87566629D01*
X93641600Y-87370843D01*
X93500765Y-87199235D01*
X93329157Y-87058400D01*
X93133371Y-86953750D01*
X92920931Y-86889307D01*
X92700000Y-86867547D01*
X90900000Y-86867547D01*
X90679069Y-86889307D01*
X90466629Y-86953750D01*
X90270843Y-87058400D01*
X90099235Y-87199235D01*
X89958400Y-87370843D01*
X89853750Y-87566629D01*
X89789307Y-87779069D01*
X89767547Y-88000000D01*
X78518082Y-88000000D01*
X69577000Y-79058918D01*
X69577000Y-55095090D01*
X69583903Y-55025000D01*
X69577000Y-54954910D01*
X69577000Y-54954902D01*
X69556352Y-54745259D01*
X69474755Y-54476269D01*
X69373172Y-54286220D01*
X69342248Y-54228365D01*
X69208608Y-54065525D01*
X69208605Y-54065522D01*
X69163923Y-54011077D01*
X69109478Y-53966395D01*
X58983608Y-43840526D01*
X58951542Y-43801453D01*
X62581000Y-43801453D01*
X62581000Y-44082547D01*
X62635838Y-44358241D01*
X62743409Y-44617938D01*
X62899576Y-44851660D01*
X63098340Y-45050424D01*
X63332062Y-45206591D01*
X63591759Y-45314162D01*
X63867453Y-45369000D01*
X64148547Y-45369000D01*
X64424241Y-45314162D01*
X64683938Y-45206591D01*
X64917660Y-45050424D01*
X65116424Y-44851660D01*
X65272591Y-44617938D01*
X65380162Y-44358241D01*
X65424388Y-44135896D01*
X65526591Y-43982938D01*
X65634162Y-43723241D01*
X65689000Y-43447547D01*
X65689000Y-43166453D01*
X65634162Y-42890759D01*
X65526591Y-42631062D01*
X65370424Y-42397340D01*
X65171660Y-42198576D01*
X64937938Y-42042409D01*
X64678241Y-41934838D01*
X64402547Y-41880000D01*
X64121453Y-41880000D01*
X63845759Y-41934838D01*
X63586062Y-42042409D01*
X63352340Y-42198576D01*
X63153576Y-42397340D01*
X62997409Y-42631062D01*
X62889838Y-42890759D01*
X62845612Y-43113104D01*
X62743409Y-43266062D01*
X62635838Y-43525759D01*
X62581000Y-43801453D01*
X58951542Y-43801453D01*
X58938923Y-43786077D01*
X58721634Y-43607752D01*
X58473731Y-43475245D01*
X58204741Y-43393648D01*
X57995098Y-43373000D01*
X57995088Y-43373000D01*
X57925000Y-43366097D01*
X57854912Y-43373000D01*
X53641806Y-43373000D01*
X53616600Y-43325843D01*
X53475765Y-43154235D01*
X53304157Y-43013400D01*
X53108371Y-42908750D01*
X52895931Y-42844307D01*
X52675000Y-42822547D01*
X50975000Y-42822547D01*
X50754069Y-42844307D01*
X50541629Y-42908750D01*
X50345843Y-43013400D01*
X50174235Y-43154235D01*
X50033400Y-43325843D01*
X49928750Y-43521629D01*
X49864307Y-43734069D01*
X49842547Y-43955000D01*
X49842547Y-45655000D01*
X49864307Y-45875931D01*
X49928750Y-46088371D01*
X50033400Y-46284157D01*
X50104215Y-46370445D01*
X49989653Y-46584774D01*
X49876606Y-46957440D01*
X49838435Y-47345000D01*
X46724036Y-47345000D01*
X46811557Y-46310354D01*
X46969352Y-44798932D01*
X47156896Y-43298886D01*
X47374861Y-41810978D01*
X47623913Y-40336102D01*
X47904723Y-38874924D01*
X48217950Y-37428282D01*
X48564263Y-35996975D01*
X48944314Y-34581807D01*
X49358784Y-33183433D01*
X49808322Y-31802658D01*
X50293603Y-30440197D01*
X50815260Y-29096845D01*
X51373983Y-27773287D01*
X51970444Y-26470246D01*
X52605340Y-25188370D01*
X53279321Y-23928429D01*
X53993128Y-22691026D01*
X54747441Y-21476895D01*
X55543011Y-20286655D01*
X55894535Y-19797414D01*
X107382000Y-19797414D01*
X107382000Y-20334586D01*
X107486797Y-20861437D01*
X107692364Y-21357719D01*
X107990801Y-21804361D01*
X108370639Y-22184199D01*
X108817281Y-22482636D01*
X109313563Y-22688203D01*
X109840414Y-22793000D01*
X110377586Y-22793000D01*
X110904437Y-22688203D01*
X111400719Y-22482636D01*
X111847361Y-22184199D01*
X112227199Y-21804361D01*
X112525636Y-21357719D01*
X112731203Y-20861437D01*
X112836000Y-20334586D01*
X112836000Y-19797414D01*
X112731203Y-19270563D01*
X112525636Y-18774281D01*
X112227199Y-18327639D01*
X111847361Y-17947801D01*
X111400719Y-17649364D01*
X110904437Y-17443797D01*
X110377586Y-17339000D01*
X109840414Y-17339000D01*
X109313563Y-17443797D01*
X108817281Y-17649364D01*
X108370639Y-17947801D01*
X107990801Y-18327639D01*
X107692364Y-18774281D01*
X107486797Y-19270563D01*
X107382000Y-19797414D01*
X55894535Y-19797414D01*
X56380548Y-19120997D01*
X57260850Y-17980523D01*
X58184650Y-16865949D01*
X59152753Y-15777900D01*
X60165960Y-14717040D01*
X61225122Y-13684008D01*
X62331027Y-12679514D01*
X63484557Y-11704224D01*
X64686554Y-10758846D01*
X65937858Y-9844110D01*
X67239381Y-8960725D01*
X68591954Y-8109453D01*
X69996492Y-7291039D01*
X71453841Y-6506270D01*
X72964851Y-5755956D01*
X74530379Y-5040904D01*
X76151261Y-4361931D01*
X77828337Y-3719872D01*
X79562500Y-3115545D01*
X81354015Y-2549839D01*
X83204489Y-2023620D01*
X85114495Y-1537684D01*
X87084681Y-1092930D01*
X89115815Y-690218D01*
X91208709Y-330397D01*
X93364043Y-14344D01*
X95582627Y257096D01*
X97865147Y483060D01*
X100212297Y662691D01*
X102624899Y795149D01*
X105103618Y879580D01*
X107649185Y915142D01*
X110263313Y900990D01*
G36*
X100917207Y-147476711D02*
G01*
X100965024Y-147534976D01*
X101197540Y-147725797D01*
X101462815Y-147867590D01*
X101750655Y-147954905D01*
X101777955Y-147957594D01*
X101974989Y-147977000D01*
X101974996Y-147977000D01*
X102050000Y-147984387D01*
X102125004Y-147977000D01*
X102769812Y-147977000D01*
X102767547Y-148000000D01*
X102767547Y-149600000D01*
X102789307Y-149820931D01*
X102853750Y-150033371D01*
X102958400Y-150229157D01*
X103049453Y-150340106D01*
X102911071Y-150599001D01*
X102800883Y-150962242D01*
X102763677Y-151340000D01*
X102800883Y-151717758D01*
X102911071Y-152080999D01*
X103090006Y-152415763D01*
X103249412Y-152610000D01*
X103090006Y-152804237D01*
X102911071Y-153139001D01*
X102800883Y-153502242D01*
X102763677Y-153880000D01*
X102800883Y-154257758D01*
X102911071Y-154620999D01*
X103090006Y-154955763D01*
X103247771Y-155148000D01*
X100382504Y-155148000D01*
X100027000Y-154792497D01*
X100027000Y-146586504D01*
X100917207Y-147476711D01*
X100917207Y-147476711D01*
G37*
X100917207Y-147476711D02*
X100965024Y-147534976D01*
X101197540Y-147725797D01*
X101462815Y-147867590D01*
X101750655Y-147954905D01*
X101777955Y-147957594D01*
X101974989Y-147977000D01*
X101974996Y-147977000D01*
X102050000Y-147984387D01*
X102125004Y-147977000D01*
X102769812Y-147977000D01*
X102767547Y-148000000D01*
X102767547Y-149600000D01*
X102789307Y-149820931D01*
X102853750Y-150033371D01*
X102958400Y-150229157D01*
X103049453Y-150340106D01*
X102911071Y-150599001D01*
X102800883Y-150962242D01*
X102763677Y-151340000D01*
X102800883Y-151717758D01*
X102911071Y-152080999D01*
X103090006Y-152415763D01*
X103249412Y-152610000D01*
X103090006Y-152804237D01*
X102911071Y-153139001D01*
X102800883Y-153502242D01*
X102763677Y-153880000D01*
X102800883Y-154257758D01*
X102911071Y-154620999D01*
X103090006Y-154955763D01*
X103247771Y-155148000D01*
X100382504Y-155148000D01*
X100027000Y-154792497D01*
X100027000Y-146586504D01*
X100917207Y-147476711D01*
G36*
X116948000Y-149673000D02*
G01*
X114838373Y-149673000D01*
X114908929Y-149540999D01*
X115019117Y-149177758D01*
X115056323Y-148800000D01*
X115019117Y-148422242D01*
X114908929Y-148059001D01*
X114729994Y-147724237D01*
X114670711Y-147652000D01*
X116948001Y-147652000D01*
X116948000Y-149673000D01*
X116948000Y-149673000D01*
G37*
X116948000Y-149673000D02*
X114838373Y-149673000D01*
X114908929Y-149540999D01*
X115019117Y-149177758D01*
X115056323Y-148800000D01*
X115019117Y-148422242D01*
X114908929Y-148059001D01*
X114729994Y-147724237D01*
X114670711Y-147652000D01*
X116948001Y-147652000D01*
X116948000Y-149673000D01*
G36*
X113231584Y-146874667D02*
G01*
X113214658Y-146873000D01*
X112225342Y-146873000D01*
X111942242Y-146900883D01*
X111579001Y-147011071D01*
X111407000Y-147103007D01*
X111407000Y-145050083D01*
X113231584Y-146874667D01*
X113231584Y-146874667D01*
G37*
X113231584Y-146874667D02*
X113214658Y-146873000D01*
X112225342Y-146873000D01*
X111942242Y-146900883D01*
X111579001Y-147011071D01*
X111407000Y-147103007D01*
X111407000Y-145050083D01*
X113231584Y-146874667D01*
G36*
X104412240Y-144921743D02*
G01*
X104350000Y-144915613D01*
X104274999Y-144923000D01*
X102682504Y-144923000D01*
X102036504Y-144277000D01*
X103767497Y-144277000D01*
X104412240Y-144921743D01*
X104412240Y-144921743D01*
G37*
X104412240Y-144921743D02*
X104350000Y-144915613D01*
X104274999Y-144923000D01*
X102682504Y-144923000D01*
X102036504Y-144277000D01*
X103767497Y-144277000D01*
X104412240Y-144921743D01*
G36*
X85837815Y-133642590D02*
G01*
X85855649Y-133648000D01*
X85832505Y-133648000D01*
X85814785Y-133630280D01*
X85837815Y-133642590D01*
X85837815Y-133642590D01*
G37*
X85837815Y-133642590D02*
X85855649Y-133648000D01*
X85832505Y-133648000D01*
X85814785Y-133630280D01*
X85837815Y-133642590D01*
G36*
X76123000Y-106354912D02*
G01*
X76116097Y-106425000D01*
X76123000Y-106495088D01*
X76123000Y-106495097D01*
X76143648Y-106704740D01*
X76225245Y-106973730D01*
X76357752Y-107221633D01*
X76357753Y-107221634D01*
X76491392Y-107384474D01*
X76491395Y-107384477D01*
X76536077Y-107438922D01*
X76590523Y-107483605D01*
X78848001Y-109741084D01*
X78848001Y-109779918D01*
X73502000Y-104433918D01*
X73502000Y-95542332D01*
X73637223Y-95632685D01*
X73987915Y-95777947D01*
X74360207Y-95852000D01*
X74739793Y-95852000D01*
X75112085Y-95777947D01*
X75462777Y-95632685D01*
X75778391Y-95421799D01*
X76046799Y-95153391D01*
X76123001Y-95039347D01*
X76123000Y-106354912D01*
X76123000Y-106354912D01*
G37*
X76123000Y-106354912D02*
X76116097Y-106425000D01*
X76123000Y-106495088D01*
X76123000Y-106495097D01*
X76143648Y-106704740D01*
X76225245Y-106973730D01*
X76357752Y-107221633D01*
X76357753Y-107221634D01*
X76491392Y-107384474D01*
X76491395Y-107384477D01*
X76536077Y-107438922D01*
X76590523Y-107483605D01*
X78848001Y-109741084D01*
X78848001Y-109779918D01*
X73502000Y-104433918D01*
X73502000Y-95542332D01*
X73637223Y-95632685D01*
X73987915Y-95777947D01*
X74360207Y-95852000D01*
X74739793Y-95852000D01*
X75112085Y-95777947D01*
X75462777Y-95632685D01*
X75778391Y-95421799D01*
X76046799Y-95153391D01*
X76123001Y-95039347D01*
X76123000Y-106354912D01*
G36*
X75070748Y-92063831D02*
G01*
X74739793Y-91998000D01*
X74360207Y-91998000D01*
X73987915Y-92072053D01*
X73637223Y-92217315D01*
X73321609Y-92428201D01*
X73053201Y-92696609D01*
X72842315Y-93012223D01*
X72714317Y-93321235D01*
X65952000Y-86558918D01*
X65952000Y-82945082D01*
X75070748Y-92063831D01*
X75070748Y-92063831D01*
G37*
X75070748Y-92063831D02*
X74739793Y-91998000D01*
X74360207Y-91998000D01*
X73987915Y-92072053D01*
X73637223Y-92217315D01*
X73321609Y-92428201D01*
X73053201Y-92696609D01*
X72842315Y-93012223D01*
X72714317Y-93321235D01*
X65952000Y-86558918D01*
X65952000Y-82945082D01*
X75070748Y-92063831D01*
G36*
X164218583Y-46103694D02*
G01*
X164133350Y-46532193D01*
X164133350Y-46969087D01*
X164218583Y-47397586D01*
X164385776Y-47801224D01*
X164628501Y-48164488D01*
X164851332Y-48387319D01*
X164821328Y-48432224D01*
X164691186Y-48746416D01*
X164624840Y-49079960D01*
X164624840Y-49420040D01*
X164691186Y-49753584D01*
X164821328Y-50067776D01*
X164851332Y-50112681D01*
X164628501Y-50335512D01*
X164385776Y-50698776D01*
X164218583Y-51102414D01*
X164133350Y-51530913D01*
X164133350Y-51915268D01*
X163602000Y-51383918D01*
X163602000Y-46591082D01*
X164309938Y-45883145D01*
X164218583Y-46103694D01*
X164218583Y-46103694D01*
G37*
X164218583Y-46103694D02*
X164133350Y-46532193D01*
X164133350Y-46969087D01*
X164218583Y-47397586D01*
X164385776Y-47801224D01*
X164628501Y-48164488D01*
X164851332Y-48387319D01*
X164821328Y-48432224D01*
X164691186Y-48746416D01*
X164624840Y-49079960D01*
X164624840Y-49420040D01*
X164691186Y-49753584D01*
X164821328Y-50067776D01*
X164851332Y-50112681D01*
X164628501Y-50335512D01*
X164385776Y-50698776D01*
X164218583Y-51102414D01*
X164133350Y-51530913D01*
X164133350Y-51915268D01*
X163602000Y-51383918D01*
X163602000Y-46591082D01*
X164309938Y-45883145D01*
X164218583Y-46103694D01*
G36*
X166494996Y-30842118D02*
G01*
X166251005Y-30977668D01*
X165999356Y-30893785D01*
X166076366Y-30886384D01*
X166166269Y-30881574D01*
X166182498Y-30878986D01*
X166498966Y-30826241D01*
X166494996Y-30842118D01*
X166494996Y-30842118D01*
G37*
X166494996Y-30842118D02*
X166251005Y-30977668D01*
X165999356Y-30893785D01*
X166076366Y-30886384D01*
X166166269Y-30881574D01*
X166182498Y-30878986D01*
X166498966Y-30826241D01*
X166494996Y-30842118D01*
M02*
